<svg width="24" height="24" viewBox="0 0 24 24" fill="none" xmlns="http://www.w3.org/2000/svg">
<path d="M3.21475 2.33267C3.56036 2.20391 3.88423 2.25206 4.06533 2.28775C4.2551 2.32515 4.47926 2.39294 4.68936 2.45474L18.9892 6.65982C19.1832 6.71689 19.3958 6.77833 19.5673 6.84634C19.7144 6.90469 19.9475 7.01087 20.1483 7.22134L20.2323 7.31802L20.3222 7.44595C20.5153 7.75441 20.5912 8.12442 20.5312 8.48696C20.4738 8.83268 20.2885 9.08025 20.1728 9.21939C20.0547 9.36125 19.8969 9.51677 19.7538 9.65982L17.414 11.9997L21.1415 15.7272C21.2288 15.8145 21.3371 15.922 21.4237 16.0241C21.4945 16.1074 21.5836 16.2229 21.6552 16.3737L21.7196 16.5368L21.7519 16.6501C21.8161 16.9182 21.8053 17.1999 21.7196 17.4635C21.6441 17.6961 21.518 17.8642 21.4237 17.9752C21.337 18.0774 21.2288 18.1858 21.1415 18.2731L18.2733 21.1413C18.186 21.2286 18.0776 21.3368 17.9755 21.4235C17.8644 21.5178 17.6963 21.6438 17.4638 21.7194C17.1626 21.8172 16.8382 21.8171 16.537 21.7194C16.3044 21.6438 16.1354 21.5178 16.0243 21.4235C15.9223 21.3368 15.8147 21.2285 15.7274 21.1413L11.9999 17.4137L9.66006 19.7536C9.51701 19.8966 9.36149 20.0545 9.21963 20.1725C9.08049 20.2883 8.83293 20.4736 8.48721 20.5309C8.07296 20.5995 7.64904 20.4908 7.31826 20.2321C7.04202 20.016 6.91327 19.7352 6.84658 19.567C6.77858 19.3955 6.71713 19.183 6.66006 18.9889L2.45498 4.68911C2.39319 4.47902 2.32539 4.25485 2.28799 4.06509C2.25231 3.88398 2.20415 3.56011 2.33291 3.2145C2.48495 2.80666 2.8069 2.4847 3.21475 2.33267ZM8.4833 18.1012L11.2929 15.2926C11.4804 15.1051 11.7348 14.9997 11.9999 14.9997C12.265 14.9997 12.5194 15.1052 12.7069 15.2926L16.9999 19.5856L19.5858 16.9997L15.2929 12.7067C15.1055 12.5192 14.9999 12.2648 14.9999 11.9997C15 11.7345 15.1054 11.4801 15.2929 11.2926L18.1015 8.48306L4.47549 4.47525L8.4833 18.1012Z" fill="#101828"/>
</svg>
