<svg xmlns="http://www.w3.org/2000/svg" fill="none" viewBox="0 0 38 27"><g clip-path="url(#side-loader-bin-washer_svg-clip0_574_16388)"><path fill="#404041" d="M25.16 25.35.47 15.28c-.39-.16-.63-.75-.34-.83l5.95-1.57a.4.4 0 0 1 .22.01l29.36 9.09c1.54.48 3.05 1.5 1.98 1.75l-8.08 2.25c-1.18.28-2.75.04-4.4-.63" opacity=".25"/><path fill="#050A08" d="m3.5 8.88 26.96 7.54L21 21.15 2.8 14.22z"/><path fill="#050A08" d="M4.98 11.9s-.8.1-1.1.4c-.29.3-.59 1.08-.59 1.29s-.17.8-.17.8l1.57.22 1.16-2.44z"/><path fill="#0F1312" d="M4.13 13.16q.06 0 .1-.03c.33-.16.75-.21 1.07-.03.28.15.45.45.57.74.22.53.37 1.12.28 1.7a1.8 1.8 0 0 1-1 1.4q.61.05 1.15-.21.55-.26.82-.8c.19-.36.22-.8.16-1.2q-.1-.71-.56-1.27-.46-.55-1.14-.76a2 2 0 0 0-.87-.05q-.26.07-.47.24c-.06.05-.15.12-.18.2q-.02.1.07.07"/><path fill="#252A2A" d="M6.2 14.67c.2 1.18-.24 2.28-1.04 2.28s-1.5-1.12-1.53-2.32c-.03-1.06.47-1.8 1.1-1.78s1.28.79 1.46 1.82"/><path fill="#EEF0F3" d="M5.64 14.74c.12.71-.16 1.35-.64 1.35-.49 0-.9-.65-.93-1.37-.02-.64.28-1.1.68-1.08.4 0 .78.48.89 1.1"/><path fill="#CFCFD0" d="M5.16 14.98c0 .25-.12.45-.29.47s-.34-.16-.38-.43c-.04-.3.09-.56.3-.57s.37.25.37.53" opacity=".51"/><path fill="url(#side-loader-bin-washer_svg-paint0_linear_574_16388)" d="M3.11 14.48c.02-.33.02-.56.05-.85l.1-.8q.04-.27.15-.51c.12-.3.19-.48.39-.5s.45.05.64.13l2.45 1.06c.14.06.29.13.37.31q.1.2.11.45.12.85.19 1.72l-.4.03c-.05-.44-.03-.83-.1-1.27a1 1 0 0 0-.08-.35.6.6 0 0 0-.24-.25c-.92-.47-1.63-.87-2.54-1.29a1 1 0 0 0-.33 0q-.17.04-.27.3a5 5 0 0 0-.21 1.8z"/><path fill="url(#side-loader-bin-washer_svg-paint1_linear_574_16388)" d="m7.88 14.34-.01-.27a2 2 0 0 0-.23-1 1 1 0 0 0-.57-.43l-1.37-.59c-.34-.14-.67-.29-1.01-.35a1.5 1.5 0 0 0-1.02.16L6.9 13.3a1 1 0 0 1 .34.24c.1.15.13.37.17.58l.14 1.4.37-.15z"/><path fill="url(#side-loader-bin-washer_svg-paint2_linear_574_16388)" d="M.26 9.4C.26 9.34.1 3.63.06.56l19.75 5.53-.19 11.78L8.95 14l.02-1.05z"/><path fill="url(#side-loader-bin-washer_svg-paint3_linear_574_16388)" d="M28.76 4.68 8.12 0C7.9-.04.07.55.07.55l19.67 5.5z"/><path fill="url(#side-loader-bin-washer_svg-paint4_linear_574_16388)" d="m19.73 6.07 9-1.4.26 14.6-8.17 1.21c-.53.09-1.3.94-1.24-.18z"/><path fill="#808184" d="m23.46 15.58-.45-.19-.01-.04v-.1l.02-.02h.04l.45.2.02.01v.03l-.01.1a.04.04 0 0 1-.06.01"/><path fill="#231F20" d="M37.58 12.99s.04.5.03.53q.01.05-.01.19l-.07.13c-.04.05-.77.06-.77.06v.07c0 .01-.08.03-.1.02q-.04 0-.07-.03c0-.02-.04-.26-.03-.29l.38-.04a.1.1 0 0 1 .1.06l.02.03c.03.02.19 0 .21 0l.03-.06-.05-.63z"/><path fill="#1B2523" d="m36.7 10.5.25.22.55.08s-.44.01-.47.03l-.2.14c-.02.02-.01-.1 0-.12 0-.02-.61-.52-.61-.52l.05-.06h.15z"/><path fill="#BBBDBF" d="m37.68 12.96-.5.08a.2.2 0 0 1-.17-.07L37 12.9l-.17-1.92a.15.15 0 0 1 .14-.17l.52-.05a.2.2 0 0 1 .15.08l.02.06.16 1.9a.15.15 0 0 1-.13.16"/><path fill="url(#side-loader-bin-washer_svg-paint5_linear_574_16388)" d="m37.82 12.94-.5.08a.16.16 0 0 1-.19-.14l-.17-1.92a.15.15 0 0 1 .14-.17l.52-.05a.2.2 0 0 1 .15.08l.02.06.16 1.9a.15.15 0 0 1-.13.16"/><path fill="#13201D" d="m21.6 16.7-.15.11a6 6 0 0 0-1.47 2.3c-.25.9-.21 1.49-.4 2.4 2.28.36 4.22 1.7 6.48 2.18 2.6.55 5.22-.27 7.82-1.1.8-.26 1.24-.31 2-.7.11-.07.44.02.5-.1.05-.07-.03-.38-.02-.47.2-1.65.56-3.35.38-5.02-3.03.75-6.08 1.5-9.11 1.37-1.93-.09-3.82-.54-5.69-.97a1 1 0 0 0-.3-.02z"/><path fill="#231F20" d="m28.3 12.19.67 3.24 3.63-.66 2.88-.54-2.28-.69-.03-2.13-4.35.75z"/><path fill="url(#side-loader-bin-washer_svg-paint6_linear_574_16388)" d="M27.46 12.05q.2-.06.4-.06c.23 0 4.98-.74 6.23-1.06s2.02-.41 2.02-.41.14.04.18.16.36 1.56.4 1.77.16 1.16.17 1.29l.05.49c0 .04.04.25-.14.39s-1.2.71-2.96 1.1a48 48 0 0 1-3.51.64c-.64.1-1.3.18-1.47.15s-.92-.38-1.01-.57c-.1-.2-.2-.81-.2-.98s-.28-2.55-.28-2.55-.02-.24 0-.26c.01-.03.12-.1.12-.1"/><path fill="url(#side-loader-bin-washer_svg-paint7_linear_574_16388)" d="M28.25 7.38q-.23 0-.45.05l-4.16.81c-.48.1-.97.2-1.39.48a1.7 1.7 0 0 0-.67.9c-.14.45-.12 1.02-.16 1.5l-.28 3.15c-.05.59-.1 1.19 0 1.77.02.12.07.27.18.31q.07.03.15 0l6.4-.85c.25-.03.5-.07.7-.24.27-.24.32-.66.35-1.04l.2-2.5c.1-1.18.2-2.43-.13-3.6-.07-.23-.16-.47-.34-.61a1 1 0 0 0-.4-.13" opacity=".53"/><path fill="url(#side-loader-bin-washer_svg-paint8_linear_574_16388)" d="M22.39 9.48q.07-.16.21-.26c.14-.1.44-.19.58-.22 1.39-.34 5.94-1.36 6.91-1.17 1.17.22 1.95.5 2.93.76.84.24 1.6.45 2.4.76.45.17.94.4 1.06.85q.04.13 0 .25c-.07.13-.22.18-.36.21-2.65.7-5.68 1.45-8.42 1.57.01-.4-.3-.22-.4-.48-.14-.37-.6-.72-.99-.85-1.16-.4-2.28-1-3.45-1.41-.08-.03-.49.1-.47 0"/><path fill="url(#side-loader-bin-washer_svg-paint9_linear_574_16388)" d="M22.57 9.42a.3.3 0 0 0-.21.1q-.1.11-.13.3-.66 3.3-.7 6.67 0 .09.03.18.05.06.13.1c.46.24.97.41 1.43.65.47.24.92.56 1.19 1.02.15.25.24.55.44.77.18.2.43.31.67.42q1.28.52 2.64.79l.3-3.16c.03-.25.06-.52-.03-.76q-.1-.23-.24-.46c-.13-.28-.16-.59-.19-.9l-.22-2.22a1 1 0 0 1 .04-.48q.05-.14.18-.2c.06-.04.15-.08.17-.15.02-.14-.21-.33-.3-.41a4 4 0 0 0-.9-.62q-.47-.24-.97-.42L22.98 9.5a1 1 0 0 0-.41-.08"/><path fill="url(#side-loader-bin-washer_svg-paint10_linear_574_16388)" d="M28.98 16.58a9 9 0 0 0 2.98-.3c.84-.2 2.33-.5 3.16-.7.84-.22.7-.21 1.58-.59q.1-.06.28-.46c.03-.06.06.11.06.18-.04 1.1.02 2.26-.18 3.34-.02.14-.03.16-.13.27-.1.1-.41.2-.54.24-2.69.8-5.34 1.63-8.13 1.86.04-.7.07-2.9.1-4.1 0-.12.36.13.54.2z"/><path fill="url(#side-loader-bin-washer_svg-paint11_linear_574_16388)" d="m20.57 18.64.03-.04-.02-.05c-.17-.1-.48-.29-.53-.26s-.24.09-.27.29l-.18 1.69-.08 1.21v.02a.05.05 0 0 0 .1 0c.04-.41.13-1.23.16-1.4.14-.83.22-.91.29-1.04a1 1 0 0 1 .5-.42"/><path fill="#0F1312" d="M20.84 19.58q.06 0 .12-.04c.4-.19.9-.25 1.3-.03.33.18.53.54.68.89.27.64.44 1.36.34 2.06-.1.72-.53 1.4-1.22 1.7q.75.04 1.4-.26.66-.32 1-.96c.22-.45.26-.97.18-1.47a3 3 0 0 0-.67-1.53 3 3 0 0 0-1.38-.92q-.52-.16-1.05-.05-.32.08-.57.29c-.07.06-.18.15-.21.23q-.03.12.08.1"/><path fill="#252A2A" d="M23.33 21.41c.26 1.43-.28 2.75-1.24 2.76-.98 0-1.82-1.35-1.86-2.81-.03-1.28.58-2.18 1.34-2.15.76.02 1.53.95 1.76 2.2"/><path fill="#EEF0F3" d="M22.66 21.5c.15.85-.19 1.63-.77 1.63s-1.1-.8-1.13-1.66c-.02-.78.35-1.33.82-1.31.48.01.95.58 1.08 1.34"/><path fill="#CFCFD0" d="M22.08 21.78c0 .3-.15.55-.35.57s-.4-.2-.46-.51c-.05-.36.11-.69.37-.7.24 0 .44.3.44.64" opacity=".51"/><path fill="#101C1C" d="M36.46 14.46c0-.04-.04-.36-.04-.49l-.18-1.29c-.03-.2-.36-1.65-.4-1.76s-.18-.17-.18-.17-.65.29-1.9.6c-1.25.32-5.46.86-5.69.86a.4.4 0 0 0-.32.17l-.08.16.22 2.75c0 .16.22.75.3.94.1.19.43.34.6.36.17.03.42.1 1.06 0 .64-.09 1.75-.26 3.51-.64a9 9 0 0 0 2.96-1.1c.19-.13.14-.34.14-.39m-3.68-1.66.02-1.2 2.46-.55s.29 1.03.34 1.43.14 1.44.14 1.44z" opacity=".15"/><path fill="#808184" d="m23.49 15.97-.46-.2-.02-.02v-.02l.01-.1.04-.02h.02l.46.2.02.01v.03l-.02.1-.02.02z"/><path fill="url(#side-loader-bin-washer_svg-paint12_linear_574_16388)" d="M23.06 15.6h.1l.49.2v.04l-.01.11-.04.03h-.09l.04-.02v-.11l-.01-.04z"/><path fill="#383838" d="m23.43 11.2-.23 2.72a.2.2 0 0 0 .1.21l3.24 1.69a.2.2 0 0 0 .2-.02l.02-.01a.2.2 0 0 0 .1-.2l-.22-3.38a.2.2 0 0 0-.15-.2l-2.87-.93a.15.15 0 0 0-.2.13"/><path fill="#B2C9D5" d="M31.57 11.96a2.3 2.3 0 0 1 1.23.86q.43.52.62 1.25c.07.24.22 1 .19 1.28-.05.08-.1.07-.28.09l-.48.08c-.25.07-.66.14-.92.2-.94.21-1.86.45-3.01.68-.38.08-.5.06-.81-.34-.11-.3-.24-.65-.23-1.29-.1-.74-.11-.9-.16-1.51l-.04-.47c0-.1 0-.27.05-.38.04-.08.12-.13.16-.17.1-.07 2.19-.29 2.88-.33q.4-.03.8.05" opacity=".21"/><path fill="#231F20" d="M28.99 16.2c1.5-.15 2.99-.5 4.49-.78 1.17-.23 2.37-.47 3.45-.97.02 0 .06.1.06.12v.13l-.03.09-.11.08q-.26.18-.53.3-.56.26-1.16.4l-.96.22c-.9.21-1.79.48-2.7.66-.9.18-1.84.28-2.75.15-.24-.03-.52-.13-.55-.36q.39 0 .79-.05"/><path fill="url(#side-loader-bin-washer_svg-paint13_linear_574_16388)" d="M27.72 11.79h.02l.22-.03.19-.03.12-.01c.38-.03.5-.06.6-.07a48 48 0 0 0 3.37-.53 42 42 0 0 0 4.22-1.05q.04.02.04.07v.14l-.05.23-.01.04-.01.02v.01l-.03.01-.14.04-.15.04-.16.04-.16.04-.16.05-.16.04-.16.04-.16.04-.16.04-.16.04-.16.04-.16.04-.16.04-.17.04-.16.03-.17.04-.16.04-.17.04-.16.04-.17.03-.17.04-.16.04-.17.03-.17.04-.17.04-.17.03-.17.04-.17.03-.17.04-.17.03-.18.04-.17.03-.17.04-.18.03-.17.03-.18.04-.18.03-.07.01a13 13 0 0 1-1.94.2l-.24.02-.2.03q-.04-.01-.04-.07l-.02-.1-.03-.15-.02-.1z"/><path fill="#383838" d="m30.13 9.63-.77.13-1.07-.1c-.39-.03-.6-.1-.4-.16a4 4 0 0 1 1.18-.01z"/><path fill="#383838" d="M29.22 9.54c.02.02-.22 0-.55 0s-.6.03-.65 0 .17-.07.54-.07c.35 0 .64.04.66.07m.64.08q-.23.07-.48.07l-.67-.01h.68q.35-.02.47-.06m.51.04-.76.12-.26-.02.77-.13z"/><path fill="#383838" d="m30.48 9.66-.83.13h-.09q-.04 0-.01-.01l.83-.13zq.03 0 0 0"/><path fill="url(#side-loader-bin-washer_svg-paint14_linear_574_16388)" d="m30.6 9.53-1 .02-.02-.75c0-.23.24-.4.54-.4.3.02.52.2.5.42z"/><path fill="url(#side-loader-bin-washer_svg-paint15_linear_574_16388)" d="M30.52 8.97c-.08.05-.07-.1-.2-.23-.14-.12-.4-.18-.31-.24s.33-.01.47.12.12.3.04.35"/><path fill="url(#side-loader-bin-washer_svg-paint16_linear_574_16388)" d="M30.5 9.4c.02 0-.42.09-.56-.02s-.27-.43-.24-.36c.02.05.13.23.29.34.14.1.41.04.52.04"/><path fill="url(#side-loader-bin-washer_svg-paint17_linear_574_16388)" d="m30.59 9.73-.99.02v-.2l1-.02z"/><path fill="url(#side-loader-bin-washer_svg-paint18_linear_574_16388)" d="m30.64 9.77-1.07.03q-.05 0-.06-.04t.06-.04l1.08-.03q.04 0 .04.04z"/><path fill="url(#side-loader-bin-washer_svg-paint19_linear_574_16388)" d="M37.11 18.62c-.07-.06-.04-.06-.14-.06l-.08.02c-.2.13-.35.3-.6.4-2.07.94-4.33 1.34-6.57 1.74-.82.15-1.75.28-2.47-.07a2 2 0 0 0-.5-.18l-.18-.05c-.44-.1-.89-.22-1.29-.44a2.4 2.4 0 0 1-.84-.72c-.2-.3-.27-.67-.51-.95q-.27-.26-.62-.4l-1.47-.73c-.24-.11-.5-.23-.76-.17-.33.09-.67.5-.76.83l-.01.05c-.03.16 0 .35.11.47.16.16.4.17.63.19.76.05 1.53.34 2.06.89.44.45.7 1.06.86 1.67s.26 1.24.42 1.85q.02.15.12.26.1.1.24.12l1.83.6h.04l.03.02c1 .43 2.15.1 3.2-.17 2.06-.55 4.14-1.05 6.17-1.72.22-.07.46-.15.6-.34q.17-.23.2-.53c.15-.7.25-1.33.36-2.05.02-.14.04-.43-.07-.53"/><path fill="#fff" d="m26.61 20.43.5.14.15.07q.79.29 1.64.2.5-.05.99-.17l1.32-.28q1.66-.32 3.27-.8c.64-.2 1.29-.4 1.89-.7q.15-.06.29-.16l.28-.2c.15-.05.3.08.3.23q0 .15-.03.3l-.02.1c.01-.18.1-.42-.07-.55a.2.2 0 0 0-.16-.02q-.18.16-.4.31c-.43.28-.9.46-1.38.65-1.27.48-2.6.8-3.93 1.05l-1.33.25q-.5.1-1.01.13a3.4 3.4 0 0 1-1.67-.3l-.15-.08z"/><path fill="#13201D" d="m36.8 20.96-.63.17c-.12.03-.12-.11-.14-.23l-.03-.38c0-.1.2-.15.28-.18l.68-.23m-9.44 1.77.63.18h.01l1.47-.2q.07 0 .07.07l-.02.4c0 .05-.04.5-.1.5l-1.5.23-.04-.01-.53-.22a.1.1 0 0 1-.05-.08l-.02-.76q0-.12.08-.1"/><path fill="url(#side-loader-bin-washer_svg-paint20_linear_574_16388)" d="m28.07 22.99-.54-.2-.05-.07-.02-.71q0-.1.1-.1l.58.18"/><path fill="url(#side-loader-bin-washer_svg-paint21_linear_574_16388)" d="m36.75 20.17-.05.82.18-.05.15-.86z"/><path fill="#326859" d="M.24 9.43c0-.28-.16-7.6-.16-8.35l7.27 2.14 2.23 3.44c.26.44.57.91 1.56 2.82l3.77 6.67-5.98-2.17.04-1z"/><path fill="url(#side-loader-bin-washer_svg-paint22_linear_574_16388)" d="M.25 9.42 8.96 13l.08-1.02L.23 8.6z"/><path fill="url(#side-loader-bin-washer_svg-paint23_linear_574_16388)" d="m.48 11.52 2.55 1.07.19-1.96-2.98-1.2-.02 1.68a.4.4 0 0 0 .26.4"/><path fill="url(#side-loader-bin-washer_svg-paint24_linear_574_16388)" d="m8.18 14.53 11.42 4.2-.01-.48-11.34-4.12z"/><path fill="url(#side-loader-bin-washer_svg-paint25_linear_574_16388)" d="m7.71 15.88 11.8 4.44.05-.5-11.78-4.35z"/><path fill="#231F20" d="m8.96 12.99.3-9.88.14.05-.34 11.2-.15-.09z"/><path fill="#4A7B64" d="m15.51 6.75-.4-.13q-.12-.01-.2-.13h-.02q-.08.06-.2 0-.2-.04-.4-.12a.2.2 0 0 1-.15-.18q0-.04.03-.04l.54.17c.04 0 .08.02.1-.03a.3.3 0 0 0 .01-.2l-.07-.05q-.22-.08-.43-.13-.05-.01-.05-.07l.01-.12q.04-.01.1.02l.44.14q.14.08.13.27l.01.16q.01.1.08.1l.92.28q.08.03.08-.07l.01-.36q-.01-.05.04-.03.06 0 .1.03.02.05 0 .12v.27q-.03.25-.23.22c-.16-.02-.32-.1-.45-.12m-3.75-.98.08.04q.1.04.11-.09l.03-.35.02-.3q0-.03.02-.02.06 0 .1.03.02.05 0 .13l-.02.29q0 .04.03.04l1.12.34q.07.02.08-.08l.02-.33q0-.04.03-.03.05 0 .09.03v.12l-.02.25q-.02.23-.2.21l-.11-.02-1.01-.3q-.06-.03-.04.04l-.01.08q-.03.15-.14.13l-.17-.05-.01-.03z"/><path fill="#52B478" d="M18.02 6.47q.04 0 .07.04l.36.3.02.03q0 .02-.02.02-.22.05-.41.17l-.16.09q-.03.02-.02.06l.04.1q.03.02.01.05-.03 0-.04-.02-.1-.07-.2-.17l-.2-.14-.03-.06q-.05-.27.14-.33l.37-.14zm-1.39.93v-.24q0-.02.02-.03l.02.02q.26.32.56.58.03.03.04 0l.05-.07q0-.02.04-.02.02.03 0 .05l.01.21.01.31-.03.06q-.16.12-.33-.1l-.33-.38a.2.2 0 0 1-.06-.18zm1.96.88-.02.51a.1.1 0 0 1-.05.09l-.37.16h-.02l-.01-.01V9q.03-.2.01-.4 0-.23-.03-.44 0-.04-.03-.04l-.1-.03-.03-.03q0-.02.02-.03l.37-.2.06.02a.4.4 0 0 1 .2.37z"/><path fill="#4A7B64" d="m13.91 7.18-.09.48q-.01.08-.07.05l-.13-.04-.05-.06-.08-.69.12.04q.03 0 .03.05l.06.56.04-.15.06-.32q.01-.08.08-.05l.1.03q.05 0 .06.1l.05.51.03-.14.09-.37q0-.03.03-.02l.14.05-.1.37-.06.22q-.01.06-.07.05l-.12-.04q-.06-.02-.06-.1-.04-.24-.04-.49zm-.67-.3.02-.29q0-.04.03-.03l.1.04q.04 0 .03.04l-.05.91q0 .04-.03.03l-.04-.01c-.07-.03-.07-.03-.07-.12l-.03.02q-.1.07-.21 0-.12-.05-.13-.2a1 1 0 0 1 .02-.39q.05-.18.22-.1.08.03.14.1m-.01.29V7.1c0-.12 0-.13-.1-.16q-.1-.04-.1.05l-.02.22q0 .1.09.12h.08q.04-.01.04-.07zm.83-1.12-.02.35-.01.09q-.01.08-.1.09l-.2-.01q-.03 0-.04-.04l-.03-.1q-.02-.06.02-.04l.15.02c.05 0 .1-.08.07-.14q0-.02-.02-.02l-.19-.06q-.13-.06-.15-.23a.5.5 0 0 1 .07-.34.2.2 0 0 1 .18-.06l.26.07q.03 0 .03.04zm-.14-.13v-.04q.02-.07 0-.12-.03-.03-.09-.03-.14-.05-.16.12-.03.14.1.18l.12.04q.03 0 .03-.03zM12.6 7.23a.2.2 0 0 1-.21.05.24.24 0 0 1-.15-.25v-.05q.02-.19.16-.14l.16.05c.02 0 .04.03.04 0V6.8l-.06-.05-.21-.05q-.03 0-.03-.04v-.1h.09l.08.02.07.01q.08.01.14.07a.2.2 0 0 1 .09.18l-.02.43c0 .1 0 .1-.1.08q-.05-.01-.04-.08zM12.51 7l-.06-.02q-.04-.01-.05.05-.01.1.04.11h.12q.05-.01.03-.1-.01-.03-.04-.03zm2.86.96-.12-.04q-.02 0-.02.02a.2.2 0 0 0 .1.14l.22.06q.04 0 .04.05v.01c0 .1 0 .1-.06.1q-.16 0-.3-.09-.15-.1-.18-.29 0-.15.02-.29.03-.18.18-.16t.26.1c.14.1.14.3.09.39q-.05.05-.11.03-.06 0-.12-.04m-.04-.15.05.02q.07.03.08-.05a.1.1 0 0 0-.07-.11l-.06-.02q-.07-.03-.1.08-.01.06.05.07zm-.6-.05-.11-.04q-.03 0-.02.03 0 .09.08.12.08.04.17.05l.08.03.01.01.01.11q0 .03-.02.02a.6.6 0 0 1-.38-.1q-.12-.11-.13-.28l.02-.3q.04-.14.17-.13.14 0 .26.1c.1.07.15.26.09.37a.1.1 0 0 1-.11.04q-.06 0-.11-.03m-.04-.14.06.02q.06.01.07-.05 0-.08-.06-.11l-.05-.02q-.1-.04-.1.08-.02.04.03.06zm-2.96-1.54.06.03.47.15q.03 0 .03.04v.1q0 .05-.02.03l-.15-.05q-.04 0-.04.03l-.04.73q.01.04-.04.03l-.1-.03q-.02 0-.02-.05l.05-.72q.01-.05-.04-.06l-.15-.04-.02-.03zm4.14 1.72a.3.3 0 0 1 .23-.06q.06-.01.04.07l-.01.12c-.02.05-.06 0-.1 0q-.07-.02-.13.01-.03.06-.01.16l-.01.3q0 .03-.03.02l-.13-.04q-.02 0-.02-.04l.02-.66q0-.05.03-.03l.03.01c.08.03.08.03.1.14"/><path fill="#52B478" d="M17.29 6.7a1 1 0 0 0-.31.22.4.4 0 0 0-.07.37v.02l-.03-.01-.18-.23q-.12-.17.02-.24.11-.05.22-.07zm1.38 1.2-.05-.33a1 1 0 0 0-.18-.4.4.4 0 0 0-.15-.12q-.02 0-.03-.03.01-.02.02-.01.12-.05.26-.07.12 0 .15.16v.3l-.02.48zm-1.33.58q.12.12.27.2.18.13.36.07l.06-.05.02-.01q.02.01.01.03l-.02.3q-.02.16-.16.07l-.1-.08-.45-.52z"/><path fill="#4A7B64" d="M13.2 6.2c.06.01.06.01.05.09q.02.1-.06.05c-.06-.02-.06-.02-.06-.09q-.02-.1.07-.06m.16.21c-.06-.03-.06-.03-.05-.1q-.01-.09.05-.06c.07.03.07.03.07.1q.02.1-.07.05m2.57-.36c-.06-.02-.06-.02-.06-.1q-.02-.1.07-.05c.07.02.07.02.07.09q.02.1-.08.06m.2-.1c.07.02.07.02.06.1q.01.1-.06.05c-.07-.02-.07-.02-.07-.1q-.02-.1.07-.05"/><path fill="#52B478" d="M17.28 6.7h.02zm.05 1.79-.01-.02z"/><path fill="#FFDD15" d="m9.16 14.84-.45-.13.06-.37.48.16zm.88.32-.47-.17.08-.34.49.17zm.9.34-.47-.17.08-.35.49.18zm.92.33-.46-.17.07-.34.5.17zm.94.37-.46-.17.07-.35.5.18zm.89.32-.47-.16.08-.35.48.18zm.79.28-.37-.12.07-.35.4.13zm.75.27-.4-.15.08-.33.42.15zm.79.3-.41-.15.08-.34.43.15zm.85.31-.43-.15.07-.35.45.16zm.89.37-.45-.17.08-.36.47.17zm.88.33-.46-.17.07-.37.48.18zm.84.32-.44-.16.07-.37.46.17zM8.95 16.32l-.45-.14.06-.37.48.17zm.88.31-.47-.16.08-.34.49.17zm.9.34-.47-.16.08-.35.49.17zm.92.33-.46-.16.07-.34.5.17zm.95.37-.47-.16.07-.35.5.18zm.88.33-.47-.16.08-.35.49.17zm.79.27-.37-.11.07-.35.4.13zm.75.27-.4-.14.08-.33.42.14zm.79.31-.41-.15.08-.35.43.16zm.85.31-.43-.15.07-.36.45.16zm.89.36-.45-.16.08-.36.47.17zm.88.34-.46-.17.07-.37.48.17zm.84.31-.44-.16.07-.36.46.16z"/></g><defs><linearGradient id="side-loader-bin-washer_svg-paint0_linear_574_16388" x1="4.34" x2="9.59" y1="18.7" y2="9.63" gradientUnits="userSpaceOnUse"><stop offset=".13" stop-color="#4C5C6D"/><stop offset=".16" stop-color="#5D6B7A"/><stop offset=".22" stop-color="#88939A"/><stop offset=".24" stop-color="#9BA5A9"/><stop offset=".3" stop-color="#8B979D"/><stop offset=".36" stop-color="#78858F"/><stop offset=".54" stop-color="#4D5D6E"/><stop offset=".56" stop-color="#6E7B89"/><stop offset=".62" stop-color="#D6D9DD"/><stop offset=".64" stop-color="#fff"/><stop offset=".65" stop-color="#F9F9FA"/><stop offset=".75" stop-color="#C6CCCF"/><stop offset=".82" stop-color="#A6B0B4"/><stop offset=".86" stop-color="#9AA6AA"/></linearGradient><linearGradient id="side-loader-bin-washer_svg-paint1_linear_574_16388" x1="5.7" x2="6.97" y1="12.19" y2="18.95" gradientUnits="userSpaceOnUse"><stop offset=".13" stop-color="#36424E"/><stop offset=".16" stop-color="#47525C"/><stop offset=".23" stop-color="#727B80"/><stop offset=".24" stop-color="#7E878A"/><stop offset=".3" stop-color="#6E787D"/><stop offset=".36" stop-color="#5E6870"/><stop offset=".54" stop-color="#37434F"/><stop offset=".57" stop-color="#6E777F"/><stop offset=".62" stop-color="#D6D8DB"/><stop offset=".64" stop-color="#fff"/><stop offset=".69" stop-color="#DDDFE0"/><stop offset=".77" stop-color="#AAB0B2"/><stop offset=".83" stop-color="#8A9396"/><stop offset=".86" stop-color="#7E888B"/></linearGradient><linearGradient id="side-loader-bin-washer_svg-paint2_linear_574_16388" x1="-25.63" x2="57.72" y1="7.99" y2="10.85" gradientUnits="userSpaceOnUse"><stop offset=".03" stop-color="#4C7F80"/><stop offset=".1" stop-color="#528385"/><stop offset=".19" stop-color="#629092"/><stop offset=".3" stop-color="#7EA4A8"/><stop offset=".41" stop-color="#A4C0C6"/><stop offset=".53" stop-color="#D3E3EC"/><stop offset=".55" stop-color="#D4E2EA"/><stop offset=".56" stop-color="#D7DADF"/><stop offset=".65" stop-color="#EAEBED"/><stop offset=".73" stop-color="#F6F6F6"/></linearGradient><linearGradient id="side-loader-bin-washer_svg-paint3_linear_574_16388" x1="-12.29" x2="88.85" y1="-6.41" y2="27.78" gradientUnits="userSpaceOnUse"><stop offset=".13" stop-color="#A3BEC3"/><stop offset=".17" stop-color="#B4CBD1"/><stop offset=".27" stop-color="#DFEEF4"/><stop offset=".43" stop-color="#C2D4D7"/><stop offset=".54" stop-color="#D3E3EC"/><stop offset=".64" stop-color="#D3E3EC"/><stop offset=".76" stop-color="#BFD1DF"/><stop offset=".86" stop-color="#B3C7D8"/></linearGradient><linearGradient id="side-loader-bin-washer_svg-paint4_linear_574_16388" x1="18.96" x2="31.98" y1="-17.47" y2="72.34" gradientUnits="userSpaceOnUse"><stop offset=".19" stop-color="#BFD2D7"/><stop offset=".29" stop-color="#BACED2"/><stop offset=".4" stop-color="#AAC1C4"/><stop offset=".51" stop-color="#95AFB0"/></linearGradient><linearGradient id="side-loader-bin-washer_svg-paint5_linear_574_16388" x1="34.31" x2="40.4" y1="12.22" y2="11.57" gradientUnits="userSpaceOnUse"><stop offset=".03" stop-color="#4C7F80"/><stop offset=".15" stop-color="#649193"/><stop offset=".41" stop-color="#A2BFC5"/><stop offset=".6" stop-color="#D3E3EC"/><stop offset=".68" stop-color="#D4E1E9"/><stop offset=".74" stop-color="#D7DADF"/><stop offset=".79" stop-color="#EAEBED"/><stop offset=".83" stop-color="#F6F6F6"/></linearGradient><linearGradient id="side-loader-bin-washer_svg-paint6_linear_574_16388" x1="31.52" x2="33.03" y1="9.73" y2="19.19" gradientUnits="userSpaceOnUse"><stop offset=".08" stop-color="#404041"/><stop offset=".1" stop-color="#515152"/><stop offset=".13" stop-color="#69696A"/><stop offset=".16" stop-color="#777778"/><stop offset=".18" stop-color="#7C7C7D"/><stop offset=".19" stop-color="#727273"/><stop offset=".22" stop-color="#5D5D5D"/><stop offset=".26" stop-color="#4C4C4C"/><stop offset=".3" stop-color="#414141"/><stop offset=".35" stop-color="#3A3A3A"/><stop offset=".51" stop-color="#383838"/></linearGradient><linearGradient id="side-loader-bin-washer_svg-paint7_linear_574_16388" x1="21.26" x2="29.2" y1="11.66" y2="11.97" gradientUnits="userSpaceOnUse"><stop offset=".38" stop-color="#2E302E"/><stop offset=".67" stop-color="#313331"/><stop offset=".92" stop-color="#3B3C3C"/><stop offset="1" stop-color="#404041"/></linearGradient><linearGradient id="side-loader-bin-washer_svg-paint8_linear_574_16388" x1="41" x2="18.72" y1="11.59" y2="8.72" gradientUnits="userSpaceOnUse"><stop offset=".01" stop-color="#B3C7D8"/><stop offset=".32" stop-color="#AAC5CC"/><stop offset=".37" stop-color="#B6CDD3"/><stop offset=".45" stop-color="#D5E1E4"/><stop offset=".52" stop-color="#F6F6F6"/><stop offset=".61" stop-color="#D1DEE1"/><stop offset=".67" stop-color="#BFD2D7"/></linearGradient><linearGradient id="side-loader-bin-washer_svg-paint9_linear_574_16388" x1="9.43" x2="48.19" y1="14.57" y2="15.41" gradientUnits="userSpaceOnUse"><stop offset=".26" stop-color="#98B8BD"/><stop offset=".33" stop-color="#9AB9BE"/><stop offset=".37" stop-color="#A2BEC3"/><stop offset=".4" stop-color="#B0C6CA"/><stop offset=".43" stop-color="#C3D2D5"/><stop offset=".45" stop-color="#DCE1E3"/><stop offset=".46" stop-color="#E6E7E8"/><stop offset=".76" stop-color="#F6F6F6"/></linearGradient><linearGradient id="side-loader-bin-washer_svg-paint10_linear_574_16388" x1="46.68" x2="20" y1="17.05" y2="17.83" gradientUnits="userSpaceOnUse"><stop offset=".03" stop-color="#4C7F80"/><stop offset=".1" stop-color="#528385"/><stop offset=".19" stop-color="#629092"/><stop offset=".3" stop-color="#7EA4A8"/><stop offset=".41" stop-color="#A4C0C6"/><stop offset=".53" stop-color="#D3E3EC"/><stop offset=".63" stop-color="#D4E2EA"/><stop offset=".66" stop-color="#D6DDE3"/><stop offset=".68" stop-color="#D7DADF"/><stop offset=".7" stop-color="#EAEBED"/><stop offset=".73" stop-color="#F6F6F6"/></linearGradient><linearGradient id="side-loader-bin-washer_svg-paint11_linear_574_16388" x1="17.8" x2="19.37" y1="20.48" y2="20.19" gradientUnits="userSpaceOnUse"><stop offset=".09" stop-color="#649193"/><stop offset=".17" stop-color="#7BA2A5"/><stop offset=".32" stop-color="#B6CED5"/><stop offset=".39" stop-color="#D3E3EC"/><stop offset=".46" stop-color="#D5E3EC"/><stop offset=".48" stop-color="#DCE5EA"/><stop offset=".49" stop-color="#E4E6E8"/><stop offset=".52" stop-color="#D2E2EB"/><stop offset=".57" stop-color="#AEC5CA"/><stop offset=".62" stop-color="#94B0B2"/><stop offset=".67" stop-color="#84A3A4"/><stop offset=".71" stop-color="#7F9F9F"/></linearGradient><linearGradient id="side-loader-bin-washer_svg-paint12_linear_574_16388" x1="23.05" x2="23.65" y1="15.78" y2="15.81" gradientUnits="userSpaceOnUse"><stop stop-color="#231F20"/><stop offset=".8" stop-color="#231F20"/><stop offset=".93" stop-color="#231F20"/></linearGradient><linearGradient id="side-loader-bin-washer_svg-paint13_linear_574_16388" x1="34.87" x2="21.72" y1="11.07" y2="11.47" gradientUnits="userSpaceOnUse"><stop offset=".02" stop-color="#95B5BA"/><stop offset=".26" stop-color="#C2D1D4"/><stop offset=".48" stop-color="#E6E7E8"/><stop offset=".62" stop-color="#F1F1F2"/><stop offset=".76" stop-color="#F6F6F6"/></linearGradient><linearGradient id="side-loader-bin-washer_svg-paint14_linear_574_16388" x1="29.58" x2="30.63" y1="8.98" y2="8.98" gradientUnits="userSpaceOnUse"><stop offset=".05" stop-color="#F6921E"/><stop offset=".07" stop-color="#F68C1E"/><stop offset=".24" stop-color="#F05021"/><stop offset=".36" stop-color="#ED2A23"/><stop offset=".42" stop-color="#EC1C24"/><stop offset=".5" stop-color="#EC1E24"/><stop offset=".53" stop-color="#EC2524"/><stop offset=".55" stop-color="#ED3324"/><stop offset=".63" stop-color="#EE3924"/><stop offset=".74" stop-color="#EF4C23"/><stop offset=".87" stop-color="#F26922"/><stop offset=".95" stop-color="#F48021"/></linearGradient><linearGradient id="side-loader-bin-washer_svg-paint15_linear_574_16388" x1="30.73" x2="31.18" y1="7.94" y2="8.46" gradientUnits="userSpaceOnUse"><stop offset=".05" stop-color="#F1F1F2" stop-opacity="0"/><stop offset=".14" stop-color="#F1F1F2" stop-opacity=".17"/><stop offset=".33" stop-color="#F1F1F2" stop-opacity=".61"/><stop offset=".5" stop-color="#F1F1F2"/><stop offset=".95" stop-color="#D0D2D3" stop-opacity="0"/></linearGradient><linearGradient id="side-loader-bin-washer_svg-paint16_linear_574_16388" x1="30.44" x2="30.98" y1="8.44" y2="9.06" gradientUnits="userSpaceOnUse"><stop offset=".05" stop-color="#F1F1F2" stop-opacity="0"/><stop offset=".14" stop-color="#F1F1F2" stop-opacity=".17"/><stop offset=".33" stop-color="#F1F1F2" stop-opacity=".61"/><stop offset=".5" stop-color="#F1F1F2"/><stop offset=".95" stop-color="#D0D2D3" stop-opacity="0"/></linearGradient><linearGradient id="side-loader-bin-washer_svg-paint17_linear_574_16388" x1="29.6" x2="30.59" y1="9.64" y2="9.64" gradientUnits="userSpaceOnUse"><stop offset=".05"/><stop offset=".11" stop-color="#1A1A1B"/><stop offset=".24" stop-color="#4D4E50"/><stop offset=".35" stop-color="#737477"/><stop offset=".44" stop-color="#8A8B8E"/><stop offset=".5" stop-color="#929497"/><stop offset=".56" stop-color="#7E7F82"/><stop offset=".69" stop-color="#575658"/><stop offset=".81" stop-color="#3B3839"/><stop offset=".91" stop-color="#292627"/><stop offset=".99" stop-color="#231F20"/></linearGradient><linearGradient id="side-loader-bin-washer_svg-paint18_linear_574_16388" x1="30.1" x2="30.11" y1="9.26" y2="9.99" gradientUnits="userSpaceOnUse"><stop offset=".33"/><stop offset=".42" stop-color="#020202"/><stop offset=".45" stop-color="#080809"/><stop offset=".47" stop-color="#141414"/><stop offset=".48" stop-color="#242525"/><stop offset=".5" stop-color="#393A3B"/><stop offset=".51" stop-color="#545557"/><stop offset=".52" stop-color="#727476"/><stop offset=".53" stop-color="#929497"/><stop offset=".54" stop-color="#909295"/><stop offset=".56" stop-color="#737476"/><stop offset=".59" stop-color="#5A595B"/><stop offset=".63" stop-color="#464445"/><stop offset=".67" stop-color="#363334"/><stop offset=".72" stop-color="#2B2829"/><stop offset=".79" stop-color="#252122"/><stop offset=".99" stop-color="#231F20"/></linearGradient><linearGradient id="side-loader-bin-washer_svg-paint19_linear_574_16388" x1="43.81" x2="12.51" y1="21.84" y2="19.8" gradientUnits="userSpaceOnUse"><stop stop-color="#649193"/><stop offset=".12" stop-color="#7BA2A5"/><stop offset=".36" stop-color="#B6CED5"/><stop offset=".47" stop-color="#D3E3EC"/><stop offset=".49" stop-color="#DCE5EA"/><stop offset=".5" stop-color="#E4E6E8"/><stop offset=".52" stop-color="#D3E3EC"/><stop offset=".54" stop-color="#BACFD5"/><stop offset=".57" stop-color="#A4BDC1"/><stop offset=".61" stop-color="#93B0B2"/><stop offset=".65" stop-color="#88A6A7"/><stop offset=".7" stop-color="#81A1A1"/><stop offset=".86" stop-color="#7F9F9F"/></linearGradient><linearGradient id="side-loader-bin-washer_svg-paint20_linear_574_16388" x1="27.37" x2="31.89" y1="22.46" y2="22.35" gradientUnits="userSpaceOnUse"><stop offset=".05" stop-color="#F6921E"/><stop offset=".07" stop-color="#F68C1E"/><stop offset=".24" stop-color="#F05021"/><stop offset=".36" stop-color="#ED2A23"/><stop offset=".42" stop-color="#EC1C24"/><stop offset=".5" stop-color="#EC1E24"/><stop offset=".53" stop-color="#EC2524"/><stop offset=".55" stop-color="#ED3324"/><stop offset=".63" stop-color="#EE3924"/><stop offset=".74" stop-color="#EF4C23"/><stop offset=".87" stop-color="#F26922"/><stop offset=".95" stop-color="#F48021"/></linearGradient><linearGradient id="side-loader-bin-washer_svg-paint21_linear_574_16388" x1="36.7" x2="38.18" y1="20.54" y2="20.54" gradientUnits="userSpaceOnUse"><stop offset=".05" stop-color="#F6921E"/><stop offset=".07" stop-color="#F68C1E"/><stop offset=".24" stop-color="#F05021"/><stop offset=".36" stop-color="#ED2A23"/><stop offset=".42" stop-color="#EC1C24"/><stop offset=".5" stop-color="#EC1E24"/><stop offset=".53" stop-color="#EC2524"/><stop offset=".55" stop-color="#ED3324"/><stop offset=".63" stop-color="#EE3924"/><stop offset=".74" stop-color="#EF4C23"/><stop offset=".87" stop-color="#F26922"/><stop offset=".95" stop-color="#F48021"/></linearGradient><linearGradient id="side-loader-bin-washer_svg-paint22_linear_574_16388" x1="-11.38" x2="26.16" y1="9.29" y2="12.82" gradientUnits="userSpaceOnUse"><stop offset=".03" stop-color="#4C7F80"/><stop offset=".1" stop-color="#528385"/><stop offset=".19" stop-color="#629092"/><stop offset=".3" stop-color="#7EA4A8"/><stop offset=".41" stop-color="#A4C0C6"/><stop offset=".53" stop-color="#D3E3EC"/><stop offset=".55" stop-color="#D4E2EA"/><stop offset=".56" stop-color="#D7DADF"/><stop offset=".65" stop-color="#EAEBED"/><stop offset=".73" stop-color="#F6F6F6"/></linearGradient><linearGradient id="side-loader-bin-washer_svg-paint23_linear_574_16388" x1="2.74" x2="-.14" y1="6.25" y2="18.65" gradientUnits="userSpaceOnUse"><stop offset=".03" stop-color="#4C7F80"/><stop offset=".09" stop-color="#5E8D8F"/><stop offset=".18" stop-color="#779FA3"/><stop offset=".29" stop-color="#88ACB1"/><stop offset=".4" stop-color="#93B4B9"/><stop offset=".53" stop-color="#96B6BC"/><stop offset=".57" stop-color="#98B7BD"/><stop offset=".59" stop-color="#9FBBC1"/><stop offset=".6" stop-color="#AAC1C7"/><stop offset=".61" stop-color="#BBCBD0"/><stop offset=".62" stop-color="#D7DADF"/><stop offset=".68" stop-color="#EAEBED"/><stop offset=".73" stop-color="#F6F6F6"/></linearGradient><linearGradient id="side-loader-bin-washer_svg-paint24_linear_574_16388" x1="1.72" x2="50.19" y1="15.28" y2="19.84" gradientUnits="userSpaceOnUse"><stop offset=".03" stop-color="#4C7F80"/><stop offset=".1" stop-color="#528385"/><stop offset=".19" stop-color="#629092"/><stop offset=".3" stop-color="#7EA4A8"/><stop offset=".41" stop-color="#A4C0C6"/><stop offset=".53" stop-color="#D3E3EC"/><stop offset=".55" stop-color="#D4E2EA"/><stop offset=".56" stop-color="#D7DADF"/><stop offset=".65" stop-color="#EAEBED"/><stop offset=".73" stop-color="#F6F6F6"/></linearGradient><linearGradient id="side-loader-bin-washer_svg-paint25_linear_574_16388" x1="-3.04" x2="47.13" y1="16.32" y2="21.05" gradientUnits="userSpaceOnUse"><stop offset=".03" stop-color="#4C7F80"/><stop offset=".1" stop-color="#528385"/><stop offset=".19" stop-color="#629092"/><stop offset=".3" stop-color="#7EA4A8"/><stop offset=".41" stop-color="#A4C0C6"/><stop offset=".53" stop-color="#D3E3EC"/><stop offset=".55" stop-color="#D4E2EA"/><stop offset=".56" stop-color="#D7DADF"/><stop offset=".65" stop-color="#EAEBED"/><stop offset=".73" stop-color="#F6F6F6"/></linearGradient><clipPath id="side-loader-bin-washer_svg-clip0_574_16388"><path fill="#fff" d="M0 0h38v26.1H0z"/></clipPath></defs></svg>