<svg width="178" height="141" viewBox="0 0 178 141" fill="none" xmlns="http://www.w3.org/2000/svg">
<g filter="url(#filter0_d_6564_13296)">
<path d="M135.693 114.661H34.5058C34.0444 114.661 33.6738 114.288 33.6738 113.824V9.49775C33.6738 9.03367 34.0444 8.66089 34.5058 8.66089H135.693C136.154 8.66089 136.525 9.03367 136.525 9.49775V113.824C136.525 114.28 136.154 114.661 135.693 114.661Z" fill="url(#paint0_linear_6564_13296)"/>
</g>
<path d="M42.614 19.3951C42.3417 19.1212 42.1753 18.7484 42.1753 18.3376C42.1753 17.5084 42.8409 16.8389 43.6653 16.8389H127.304C128.129 16.8389 128.794 17.5084 128.794 18.3376C128.794 19.1669 128.129 19.8364 127.304 19.8364H43.6729C43.2569 19.8364 42.8863 19.669 42.614 19.3951Z" fill="#E5EBF5"/>
<path d="M80.3645 25.6484C80.3645 26.4777 79.6989 27.1471 78.8745 27.1471H43.6731C43.2571 27.1471 42.8865 26.9798 42.6218 26.7059C42.3495 26.432 42.1831 26.0592 42.1831 25.6484C42.1831 24.8191 42.8487 24.1497 43.6731 24.1497H78.8745C79.6913 24.1497 80.3645 24.8191 80.3645 25.6484Z" fill="#E5EBF5"/>
<path d="M48.3853 71.0766V69.479C48.3853 49.1204 64.8514 32.5505 85.0993 32.5505C92.731 32.5505 100.045 34.8785 106.247 39.2911C106.504 39.4737 106.754 39.6563 107.011 39.8465C116.277 46.7848 121.813 57.8618 121.813 69.479V71.0766H48.3853Z" fill="#E5EBF5"/>
<path d="M121.76 70.854H51.5088C51.5088 51.3475 67.2337 35.5232 86.6345 35.5232C94.1679 35.5232 101.149 37.9044 106.867 41.9746C107.109 42.1496 107.351 42.3246 107.593 42.4996C116.193 48.9434 121.76 59.2444 121.76 70.854Z" fill="white"/>
<path d="M109.076 47.8947L106.845 50.3064C106.655 50.5118 106.33 50.527 106.118 50.3292C105.907 50.1314 105.899 49.8043 106.088 49.5988L108.319 47.1872C108.516 46.9741 108.841 46.9665 109.046 47.1643C109.257 47.3545 109.272 47.6817 109.076 47.8947Z" fill="#E5EBF5"/>
<path d="M105.083 44.6158L103.268 47.3622C103.109 47.5981 102.791 47.6666 102.557 47.5068C102.315 47.347 102.254 47.0275 102.413 46.7917L104.228 44.0452C104.387 43.8018 104.705 43.7409 104.947 43.9007C105.181 44.0528 105.242 44.3724 105.083 44.6158Z" fill="#E5EBF5"/>
<path d="M101.626 42.5311L100.173 45.4905C100.045 45.7492 99.7422 45.8481 99.485 45.7264C99.2278 45.597 99.122 45.2927 99.2505 45.034L100.703 42.0746C100.831 41.8159 101.134 41.7094 101.391 41.8387C101.648 41.9681 101.747 42.2724 101.626 42.5311Z" fill="#E5EBF5"/>
<path d="M97.9274 40.9098L96.861 44.029C96.7702 44.2953 96.4752 44.4398 96.2105 44.3485C95.9382 44.2573 95.7945 43.9605 95.8928 43.6943L96.9593 40.5751C97.05 40.3012 97.345 40.1566 97.6173 40.2555C97.8745 40.3468 98.0182 40.6359 97.9274 40.9098Z" fill="#E5EBF5"/>
<path d="M94.0548 39.7773L93.3892 43.003C93.3287 43.2845 93.0564 43.4595 92.7841 43.4063C92.5042 43.3454 92.3227 43.0715 92.3832 42.7976L93.0488 39.5719C93.1093 39.2904 93.3816 39.1078 93.6615 39.1687C93.9338 39.2219 94.1153 39.4958 94.0548 39.7773Z" fill="#E5EBF5"/>
<path d="M90.0763 39.145L89.8267 42.4316C89.804 42.7131 89.562 42.9261 89.2746 42.9033C88.9871 42.8804 88.7754 42.6294 88.7981 42.3479L89.0477 39.0613C89.0703 38.7722 89.3199 38.5592 89.5998 38.582C89.8872 38.6124 90.099 38.8559 90.0763 39.145Z" fill="#E5EBF5"/>
<path d="M90.0763 39.145L89.8267 42.4316C89.804 42.7131 89.562 42.9261 89.2746 42.9033C88.9871 42.8804 88.7754 42.6294 88.7981 42.3479L89.0477 39.0613C89.0703 38.7722 89.3199 38.5592 89.5998 38.582C89.8872 38.6124 90.099 38.8559 90.0763 39.145Z" fill="#E5EBF5"/>
<path d="M86.1278 42.3564C86.1278 42.6379 85.8933 42.8738 85.6134 42.8738C85.326 42.8738 85.0991 42.6379 85.0991 42.3564V39.0623C85.0991 38.7732 85.326 38.5449 85.6134 38.5449C85.8933 38.5449 86.1278 38.7732 86.1278 39.0623V42.3564Z" fill="#E6F1FB"/>
<path d="M82.0356 39.4271L82.618 42.6757C82.671 42.9572 82.4819 43.2234 82.202 43.2767C81.9222 43.3299 81.6499 43.1397 81.6045 42.8583L81.0221 39.6097C80.9691 39.3282 81.1582 39.0543 81.4381 39.0087C81.7179 38.963 81.9827 39.1456 82.0356 39.4271Z" fill="#E5EBF5"/>
<path d="M78.1029 40.3389L79.0938 43.481C79.177 43.7549 79.0257 44.044 78.761 44.1276C78.4887 44.2113 78.2013 44.0668 78.1105 43.7929L77.1197 40.6509C77.0365 40.377 77.1802 40.0879 77.46 39.9966C77.7323 39.9129 78.0197 40.0651 78.1029 40.3389Z" fill="#E5EBF5"/>
<path d="M74.3207 41.7389L75.6973 44.7288C75.8183 44.9874 75.7048 45.2918 75.4477 45.4135C75.1905 45.5352 74.8804 45.4211 74.7669 45.1624L73.3903 42.1725C73.2693 41.9139 73.3828 41.602 73.6399 41.4802C73.8971 41.3661 74.1996 41.4802 74.3207 41.7389Z" fill="#E5EBF5"/>
<path d="M70.7508 43.6194L72.498 46.4115C72.6493 46.6549 72.5737 46.9745 72.3392 47.119C72.0971 47.2712 71.7795 47.2027 71.6282 46.9592L69.881 44.1672C69.7297 43.9237 69.7978 43.6042 70.0398 43.452C70.2743 43.2999 70.592 43.376 70.7508 43.6194Z" fill="#E5EBF5"/>
<path d="M67.4381 45.9325L69.5181 48.4811C69.6997 48.7017 69.6694 49.0289 69.4501 49.2039C69.2307 49.3864 68.9055 49.356 68.7239 49.1354L66.6439 46.5868C66.4624 46.3661 66.4927 46.039 66.712 45.8564C66.9314 45.6814 67.2566 45.7119 67.4381 45.9325Z" fill="#E5EBF5"/>
<path d="M64.4507 48.6558L66.8408 50.9153C67.045 51.1131 67.0601 51.4403 66.8635 51.6457C66.6668 51.8587 66.3416 51.8663 66.1374 51.6685L63.7472 49.409C63.5355 49.2112 63.5279 48.884 63.7245 48.6786C63.9136 48.4656 64.2389 48.458 64.4507 48.6558Z" fill="#E5EBF5"/>
<path d="M61.8263 51.7373L64.4812 53.6773C64.7081 53.8447 64.761 54.1642 64.5946 54.4C64.4282 54.6359 64.103 54.6815 63.8761 54.5141L61.2212 52.5741C60.9868 52.4068 60.9414 52.0796 61.1078 51.8514C61.2742 51.6232 61.5994 51.5699 61.8263 51.7373Z" fill="#E5EBF5"/>
<path d="M59.6175 55.1295L62.4917 56.712C62.7413 56.8489 62.8321 57.1608 62.6959 57.4119C62.5598 57.6629 62.2497 57.7542 62.0001 57.6173L59.1259 56.0349C58.8763 55.8979 58.7855 55.586 58.9216 55.3273C59.0578 55.0839 59.3679 54.9926 59.6175 55.1295Z" fill="#E5EBF5"/>
<path d="M57.855 58.774L60.9108 59.9761C61.1755 60.0826 61.3041 60.3793 61.1982 60.6456C61.0923 60.9118 60.7973 61.0412 60.5326 60.9423L57.4769 59.7402C57.2121 59.6337 57.0835 59.337 57.1819 59.0707C57.2878 58.8045 57.5903 58.6675 57.855 58.774Z" fill="#E5EBF5"/>
<path d="M56.5688 62.6147L59.7455 63.4135C60.0178 63.482 60.1842 63.7635 60.1161 64.0374C60.0481 64.3189 59.7682 64.4862 59.4959 64.4178L56.3192 63.6189C56.0393 63.5505 55.8729 63.269 55.941 62.9875C56.0091 62.7136 56.2889 62.5462 56.5688 62.6147Z" fill="#E5EBF5"/>
<path d="M115.256 66.7313L118.531 66.7161C118.811 66.7161 119.045 66.9443 119.045 67.2258C119.045 67.5149 118.818 67.7431 118.538 67.7507L115.263 67.7659C114.976 67.7659 114.749 67.5377 114.741 67.2486C114.734 66.9671 114.968 66.7313 115.256 66.7313Z" fill="#E6F1FB"/>
<path d="M55.5104 66.7313L58.7855 66.7161C59.0653 66.7161 59.2998 66.9443 59.2998 67.2258C59.2998 67.5149 59.0729 67.7431 58.7931 67.7507L55.518 67.7659C55.2306 67.7659 55.0037 67.5377 54.9961 67.2486C54.9961 66.9671 55.223 66.7313 55.5104 66.7313Z" fill="#E6F1FB"/>
<path d="M114.416 62.9037L117.578 62.044C117.85 61.9679 118.13 62.1353 118.206 62.4092C118.281 62.6907 118.115 62.9722 117.842 63.0483L114.681 63.9079C114.401 63.984 114.121 63.8167 114.046 63.5428C113.977 63.2613 114.144 62.9798 114.416 62.9037Z" fill="#E5EBF5"/>
<path d="M114.416 62.9037L117.578 62.044C117.85 61.9679 118.13 62.1353 118.206 62.4092C118.281 62.6907 118.115 62.9722 117.842 63.0483L114.681 63.9079C114.401 63.984 114.121 63.8167 114.046 63.5428C113.977 63.2613 114.144 62.9798 114.416 62.9037Z" fill="#E5EBF5"/>
<path d="M113.191 59.4888L116.224 58.2335C116.488 58.127 116.783 58.2487 116.897 58.515C117.003 58.7812 116.882 59.0856 116.617 59.1921L113.584 60.4474C113.319 60.5539 113.017 60.4322 112.911 60.1659C112.805 59.8996 112.926 59.5953 113.191 59.4888Z" fill="#E5EBF5"/>
<path d="M111.542 56.2475L114.386 54.6118C114.628 54.4673 114.946 54.5585 115.089 54.802C115.233 55.0531 115.142 55.365 114.9 55.5095L112.056 57.1452C111.807 57.2898 111.497 57.1985 111.353 56.955C111.209 56.7116 111.293 56.392 111.542 56.2475Z" fill="#E5EBF5"/>
<path d="M109.499 53.2502L112.116 51.2645C112.343 51.0896 112.661 51.1352 112.835 51.3634C113.009 51.5917 112.963 51.9188 112.737 52.0862L110.12 54.0718C109.893 54.2468 109.567 54.2012 109.393 53.9729C109.227 53.7523 109.272 53.4252 109.499 53.2502Z" fill="#E5EBF5"/>
<path d="M109.499 53.2502L112.116 51.2645C112.343 51.0896 112.661 51.1352 112.835 51.3634C113.009 51.5917 112.963 51.9188 112.737 52.0862L110.12 54.0718C109.893 54.2468 109.567 54.2012 109.393 53.9729C109.227 53.7523 109.272 53.4252 109.499 53.2502Z" fill="#E5EBF5"/>
<path d="M112.101 70.8624H61.1753C61.1753 56.7423 72.5964 45.2468 86.6422 45.2468C100.68 45.2468 112.101 56.7347 112.101 70.8624Z" fill="#0072D6"/>
<path d="M100.378 70.862H72.8916C72.8916 63.2237 79.0484 57.0386 86.6348 57.0386C94.2287 57.031 100.378 63.2237 100.378 70.862Z" fill="white"/>
<path opacity="0.05" d="M87.6632 45.2694C74.1243 45.84 63.2855 57.0996 63.2855 70.8546H61.1147C61.1147 56.7345 72.5359 45.239 86.5816 45.239C86.9447 45.2466 87.3077 45.2542 87.6632 45.2694Z" fill="#0072D6"/>
<path d="M92.7761 70.8621H80.4927C80.4927 67.4538 83.2458 64.6846 86.6344 64.6846C90.0229 64.677 92.7761 67.4538 92.7761 70.8621Z" fill="#EFEBF7"/>
<path opacity="0.05" d="M107.919 42.7515L89.1458 70.8777L88.276 72.1862L86.9826 70.8549L85.2959 69.1127L107.208 42.2266C107.45 42.3939 107.684 42.5689 107.919 42.7515Z" fill="#0072D6"/>
<path d="M88.329 72.1719L85.0918 68.9158L114.704 41.8471C114.87 41.6949 115.127 41.7025 115.278 41.8623C115.437 42.022 115.445 42.2731 115.294 42.4405L88.329 72.1719Z" fill="#BFC8D6"/>
<path d="M91.0543 75.3055C93.4941 72.8515 93.4941 68.8727 91.0543 66.4186C88.6145 63.9645 84.6588 63.9645 82.2189 66.4186C79.7791 68.8727 79.7791 72.8515 82.2189 75.3055C84.6588 77.7596 88.6145 77.7596 91.0543 75.3055Z" fill="#BFC8D6"/>
<path d="M48.4909 90.5597H40.8667C40.6776 90.5597 40.5264 90.4075 40.5264 90.2174V82.5487C40.5264 82.3585 40.6776 82.2063 40.8667 82.2063H48.4909C48.68 82.2063 48.8313 82.3585 48.8313 82.5487V90.2174C48.8313 90.4075 48.68 90.5597 48.4909 90.5597Z" fill="#D6DCE8"/>
<path d="M52.3414 84.7309C52.1674 84.5559 52.0615 84.3201 52.0615 84.0538C52.0615 83.5213 52.4851 83.0952 53.0145 83.0952H80.0925C80.6144 83.0952 81.0455 83.5213 81.0455 84.0538C81.0455 84.5787 80.6219 85.0124 80.0925 85.0124H53.0145C52.7498 85.0124 52.5153 84.9059 52.3414 84.7309Z" fill="#E5EBF5"/>
<path d="M66.2358 88.7103C66.2358 89.2352 65.8123 89.6689 65.2828 89.6689H53.0145C52.7498 89.6689 52.5153 89.5624 52.3414 89.3874C52.1674 89.2124 52.0615 88.9766 52.0615 88.7103C52.0615 88.1854 52.4851 87.7517 53.0145 87.7517H65.2904C65.8123 87.7593 66.2358 88.1854 66.2358 88.7103Z" fill="#E5EBF5"/>
<path d="M97.1184 90.5597H89.4942C89.3051 90.5597 89.1538 90.4075 89.1538 90.2174V82.5487C89.1538 82.3585 89.3051 82.2063 89.4942 82.2063H97.1184C97.3074 82.2063 97.4587 82.3585 97.4587 82.5487V90.2174C97.4587 90.4075 97.3074 90.5597 97.1184 90.5597Z" fill="#D6DCE8"/>
<path d="M100.968 84.7309C100.794 84.5559 100.688 84.3201 100.688 84.0538C100.688 83.5213 101.112 83.0952 101.641 83.0952H128.719C129.241 83.0952 129.672 83.5213 129.672 84.0538C129.672 84.5787 129.248 85.0124 128.719 85.0124H101.641C101.376 85.0124 101.142 84.9059 100.968 84.7309Z" fill="#E5EBF5"/>
<path d="M114.862 88.7103C114.862 89.2352 114.439 89.6689 113.909 89.6689H101.641C101.376 89.6689 101.142 89.5624 100.968 89.3874C100.794 89.2124 100.688 88.9766 100.688 88.7103C100.688 88.1854 101.112 87.7517 101.641 87.7517H113.917C114.439 87.7593 114.862 88.1854 114.862 88.7103Z" fill="#E5EBF5"/>
<path d="M48.4909 105.57H40.8667C40.6776 105.57 40.5264 105.418 40.5264 105.228V97.5591C40.5264 97.369 40.6776 97.2168 40.8667 97.2168H48.4909C48.68 97.2168 48.8313 97.369 48.8313 97.5591V105.228C48.8313 105.418 48.68 105.57 48.4909 105.57Z" fill="#D6DCE8"/>
<path d="M52.3414 99.7414C52.1674 99.5664 52.0615 99.3306 52.0615 99.0643C52.0615 98.5318 52.4851 98.1057 53.0145 98.1057H80.0925C80.6144 98.1057 81.0455 98.5318 81.0455 99.0643C81.0455 99.5892 80.6219 100.023 80.0925 100.023H53.0145C52.7498 100.023 52.5153 99.9164 52.3414 99.7414Z" fill="#E5EBF5"/>
<path d="M66.2358 103.721C66.2358 104.246 65.8123 104.679 65.2828 104.679H53.0145C52.7498 104.679 52.5153 104.573 52.3414 104.398C52.1674 104.223 52.0615 103.987 52.0615 103.721C52.0615 103.196 52.4851 102.762 53.0145 102.762H65.2904C65.8123 102.762 66.2358 103.196 66.2358 103.721Z" fill="#E5EBF5"/>
<path d="M97.1184 105.57H89.4942C89.3051 105.57 89.1538 105.418 89.1538 105.228V97.5591C89.1538 97.369 89.3051 97.2168 89.4942 97.2168H97.1184C97.3074 97.2168 97.4587 97.369 97.4587 97.5591V105.228C97.4587 105.418 97.3074 105.57 97.1184 105.57Z" fill="#D6DCE8"/>
<path d="M100.968 99.7414C100.794 99.5664 100.688 99.3306 100.688 99.0643C100.688 98.5318 101.112 98.1057 101.641 98.1057H128.719C129.241 98.1057 129.672 98.5318 129.672 99.0643C129.672 99.5892 129.248 100.023 128.719 100.023H101.641C101.376 100.023 101.142 99.9164 100.968 99.7414Z" fill="#E5EBF5"/>
<path d="M114.862 103.721C114.862 104.246 114.439 104.679 113.909 104.679H101.641C101.376 104.679 101.142 104.573 100.968 104.398C100.794 104.223 100.688 103.987 100.688 103.721C100.688 103.196 101.112 102.762 101.641 102.762H113.917C114.439 102.762 114.862 103.196 114.862 103.721Z" fill="#E5EBF5"/>
<path d="M142.409 27.1702C146.017 30.335 146.388 35.8659 143.234 39.4872C140.087 43.1162 134.589 43.489 130.988 40.3165C127.38 37.1516 127.01 31.6207 130.164 27.9994C133.303 24.3781 138.801 24.0053 142.409 27.1702ZM131.669 39.5329C134.838 42.3174 139.679 41.9902 142.447 38.8025C145.215 35.6148 144.89 30.7458 141.721 27.9614C138.552 25.1769 133.711 25.504 130.943 28.6917C128.175 31.887 128.5 36.7484 131.669 39.5329Z" fill="#ECF3FE"/>
<path d="M142.409 27.1702C146.017 30.335 146.388 35.8659 143.234 39.4872C140.087 43.1162 134.589 43.489 130.988 40.3165C127.38 37.1516 127.01 31.6207 130.164 27.9994C133.303 24.3781 138.801 24.0053 142.409 27.1702ZM131.669 39.5329C134.838 42.3174 139.679 41.9902 142.447 38.8025C145.215 35.6148 144.89 30.7458 141.721 27.9614C138.552 25.1769 133.711 25.504 130.943 28.6917C128.175 31.887 128.5 36.7484 131.669 39.5329Z" fill="#E5EBF5"/>
<path d="M136.464 24.9181C136.623 25.0626 136.736 25.2604 136.759 25.4886C136.805 25.9679 136.457 26.394 135.98 26.4472C134.127 26.6298 132.433 27.5123 131.207 28.9198C128.56 31.9629 128.878 36.6113 131.903 39.2664C132.266 39.586 132.304 40.1337 131.987 40.4989C131.669 40.8641 131.124 40.9021 130.761 40.5826C127.01 37.2884 126.624 31.5445 129.899 27.771C131.419 26.0212 133.514 24.9333 135.806 24.705C136.056 24.6898 136.29 24.7659 136.464 24.9181Z" fill="#E6F1FB"/>
<path d="M132.607 34.5341L133.885 32.1453H132.455C132.312 32.1453 132.198 32.0311 132.198 31.8866C132.198 31.742 132.312 31.6279 132.455 31.6279H134.309C134.467 31.6279 134.573 31.7192 134.573 31.8866C134.573 31.9703 134.543 32.0768 134.49 32.1681L133.121 34.77C133.053 34.8993 132.962 34.9678 132.841 34.9678C132.682 34.9678 132.546 34.8765 132.546 34.7091C132.554 34.6711 132.576 34.5874 132.607 34.5341Z" fill="#0072D6"/>
<path d="M135.05 34.6484C134.982 34.5952 134.929 34.5191 134.929 34.4202C134.929 34.2681 135.057 34.1387 135.209 34.1387C135.277 34.1387 135.33 34.1615 135.375 34.192C135.602 34.3746 135.829 34.4735 136.094 34.4735C136.464 34.4735 136.736 34.2528 136.736 33.9029V33.8953C136.736 33.5529 136.457 33.3475 136.056 33.3475C135.738 33.3475 135.579 33.4616 135.488 33.4616C135.398 33.4616 135.33 33.4312 135.216 33.3475C135.133 33.2866 135.095 33.203 135.103 33.0888L135.171 31.8944C135.178 31.7423 135.292 31.6357 135.435 31.6357H136.926C137.069 31.6357 137.183 31.7575 137.183 31.8944C137.183 32.039 137.062 32.1531 136.926 32.1531H135.685L135.64 32.9291C135.799 32.8758 135.942 32.8378 136.162 32.8378C136.805 32.8378 137.311 33.1801 137.311 33.8801V33.8877C137.311 34.5572 136.812 35.0136 136.109 35.0136C135.662 35.006 135.322 34.8539 135.05 34.6484Z" fill="#0072D6"/>
<path d="M137.818 32.4571V32.4495C137.818 31.9854 138.136 31.605 138.597 31.605C139.066 31.605 139.368 31.9854 139.368 32.4418V32.4495C139.368 32.9059 139.058 33.2939 138.589 33.2939C138.128 33.2939 137.818 32.9135 137.818 32.4571ZM138.952 32.4571V32.4495C138.952 32.1832 138.801 31.9625 138.589 31.9625C138.37 31.9625 138.234 32.1832 138.234 32.4342V32.4418C138.234 32.7081 138.385 32.9211 138.597 32.9211C138.816 32.9287 138.952 32.7081 138.952 32.4571ZM138.355 34.6709L140.518 31.7039C140.548 31.6506 140.609 31.6202 140.677 31.6202C140.783 31.6202 140.866 31.7039 140.866 31.8028C140.866 31.8484 140.851 31.8941 140.821 31.9245L138.657 34.8916C138.62 34.9448 138.559 34.9753 138.491 34.9753C138.385 34.9753 138.31 34.8916 138.31 34.7927C138.317 34.747 138.332 34.7014 138.355 34.6709ZM139.807 34.1536V34.146C139.807 33.6819 140.125 33.3015 140.586 33.3015C141.048 33.3015 141.358 33.6819 141.358 34.1384V34.146C141.358 34.6025 141.04 34.9981 140.579 34.9981C140.117 34.9905 139.807 34.6101 139.807 34.1536ZM140.942 34.1536V34.146C140.942 33.8797 140.79 33.6667 140.579 33.6667C140.359 33.6667 140.223 33.8873 140.223 34.1384V34.146C140.223 34.4199 140.374 34.6329 140.586 34.6329C140.813 34.6253 140.942 34.4047 140.942 34.1536Z" fill="#0072D6"/>
<path d="M34.5437 108.172C33.4848 108.172 32.6226 107.305 32.6226 106.24C32.6226 105.175 33.4848 104.308 34.5437 104.308C35.6026 104.308 36.4649 105.175 36.4649 106.24C36.4649 107.305 35.6026 108.172 34.5437 108.172ZM34.5437 104.688C33.689 104.688 33.0007 105.388 33.0007 106.24C33.0007 107.092 33.6966 107.792 34.5437 107.792C35.3984 107.792 36.0867 107.092 36.0867 106.24C36.0867 105.388 35.3984 104.688 34.5437 104.688Z" fill="white"/>
<defs>
<filter id="filter0_d_6564_13296" x="16.352" y="-2.09808e-05" width="137.494" height="140.644" filterUnits="userSpaceOnUse" color-interpolation-filters="sRGB">
<feFlood flood-opacity="0" result="BackgroundImageFix"/>
<feColorMatrix in="SourceAlpha" type="matrix" values="0 0 0 0 0 0 0 0 0 0 0 0 0 0 0 0 0 0 127 0" result="hardAlpha"/>
<feOffset dy="8.66091"/>
<feGaussianBlur stdDeviation="8.66091"/>
<feColorMatrix type="matrix" values="0 0 0 0 0.397708 0 0 0 0 0.47749 0 0 0 0 0.575 0 0 0 0.27 0"/>
<feBlend mode="normal" in2="BackgroundImageFix" result="effect1_dropShadow_6564_13296"/>
<feBlend mode="normal" in="SourceGraphic" in2="effect1_dropShadow_6564_13296" result="shape"/>
</filter>
<linearGradient id="paint0_linear_6564_13296" x1="85.0657" y1="6.20901" x2="85.0657" y2="115.804" gradientUnits="userSpaceOnUse">
<stop stop-color="#FDFEFF"/>
<stop offset="0.9964" stop-color="#ECF0F5"/>
</linearGradient>
</defs>
</svg>
