<svg width="58" height="32" viewBox="0 0 58 32" fill="none" xmlns="http://www.w3.org/2000/svg">
<path d="M16.201 22.3715L16.479 17.0285L9.27392 16.6097L9.22589 9.77478L5.51127 10.0418C5.12059 10.062 4.67131 10.1101 4.37158 10.3301" fill="url(#paint0_linear_8563_41623)"/>
<path d="M4.3709 10.3289C4.17076 10.4749 4.03723 10.6968 4.03178 11.0372L3.93059 16.5175L4.26843 16.5358C2.19048 16.9841 0.593518 18.5077 0.476955 20.3785L0.471191 20.4666L16.2007 22.3713" fill="url(#paint1_linear_8563_41623)"/>
<path opacity="0.67" d="M16.1461 3.76416C16.1884 3.73355 16.2384 3.71527 16.2905 3.71137C16.3425 3.70747 16.3947 3.7181 16.4411 3.74207C16.6092 3.82501 20.6424 3.5858 21.9044 3.12467C23.2657 2.62736 24.1342 2.64882 24.1342 2.64882C24.1342 2.64882 24.2917 2.86241 24.31 3.27134C24.3282 3.68026 24.4166 8.5192 24.4166 9.20576C24.4166 9.89233 24.3746 12.9165 24.3602 13.313C24.3458 13.7094 24.3247 14.7005 24.316 14.8379C24.3074 14.9753 24.3176 15.6385 24.0919 15.9062C23.8661 16.1739 22.7149 17.0491 20.9738 16.8079C19.3948 16.5889 18.4761 16.2885 17.9714 16.1034C17.4824 15.9238 16.995 15.7384 16.8721 15.5674C16.7491 15.3964 16.2454 14.1171 16.1922 13.6111C16.1391 13.1052 16.101 11.5617 16.1096 11.1652C16.1183 10.7688 16.0356 4.65984 16.0356 4.65984C16.0356 4.65984 16.0356 4.04244 16.0491 3.97807C16.0625 3.91371 16.1461 3.76416 16.1461 3.76416Z" fill="url(#paint2_linear_8563_41623)"/>
<path opacity="0.25" d="M3.17041 25.1329L25.9839 30.5207L38.1189 28.118L10.7428 22.0264L3.17041 25.1329Z" fill="#404041"/>
<path d="M23.2491 13.4539C23.3205 12.8256 24.4292 14.2478 25.0972 14.7454C26.4914 15.7839 28.5556 16.6245 30.1695 18.5679C31.7162 20.43 32.315 22.7629 32.4944 23.0693C32.9376 23.8283 33.2085 24.7345 33.2085 24.7345C33.2085 24.7345 31.9577 24.7742 31.4184 24.2987C30.8622 23.8081 28.8758 19.6448 27.7832 19.1168C23.1963 16.8976 23.335 15.4278 23.1588 14.8203C23.121 14.6938 23.1796 14.071 23.2491 13.4539Z" fill="url(#paint3_linear_8563_41623)"/>
<path d="M16.6636 3.64283C16.704 3.61233 16.7523 3.59405 16.8027 3.59013C16.8532 3.58621 16.9037 3.59684 16.9483 3.62074C17.1103 3.70367 20.9998 3.46447 22.2166 3.00334C23.5296 2.50571 24.3666 2.52748 24.3666 2.52748C24.3666 2.52748 24.5184 2.74108 24.536 3.15C24.5536 3.55893 24.6388 8.39786 24.6388 9.08443C24.6388 9.77099 24.5985 12.7952 24.5844 13.1916C24.5703 13.5881 24.5504 14.5792 24.5421 14.7166C24.5338 14.8539 24.5421 15.5171 24.3266 15.7848C24.1111 16.0525 22.9977 16.9277 21.32 16.6866C19.7976 16.4676 18.9113 16.1672 18.4248 15.9821C17.9535 15.8024 17.4834 15.617 17.3646 15.446C17.2458 15.275 16.7593 13.9957 16.7081 13.4898C16.6569 12.9838 16.6204 11.4403 16.6284 11.0439C16.6364 10.6475 16.5566 4.5385 16.5566 4.5385C16.5566 4.5385 16.5566 3.92111 16.5698 3.85674C16.5829 3.79238 16.6636 3.64283 16.6636 3.64283Z" fill="url(#paint4_linear_8563_41623)"/>
<path opacity="0.47" d="M24.7706 13.9525C24.7706 13.849 24.8744 11.6308 24.8667 11.3478C24.859 11.0647 24.9765 8.98033 24.9477 8.54835C24.9192 8.12213 25.0239 5.12834 24.9961 4.90802C24.9794 4.77353 24.8488 4.24259 24.7508 3.85288C24.7224 3.73987 24.6537 3.64111 24.5577 3.57513C24.4616 3.50916 24.3448 3.4805 24.2291 3.49454C23.7001 3.55859 22.6133 3.60918 20.7047 3.36966C20.6309 3.36011 20.5559 3.368 20.4857 3.39271C19.2957 3.81733 16.0003 3.81541 15.8075 3.79075C15.7332 3.78115 15.6685 3.82278 15.6154 3.87689C15.5701 3.92724 15.5364 3.98683 15.5165 4.05153C15.4966 4.11623 15.491 4.18448 15.5001 4.25156C15.5667 4.819 15.7957 6.77654 15.7761 6.82105C15.7531 6.87325 15.6644 7.86979 15.6644 7.86979C15.6644 7.86979 15.2807 12.4263 15.233 12.8106C15.1853 13.1948 15.218 14.6486 15.2506 15.1408C15.2827 15.6401 15.5709 16.0573 15.7367 16.1505C15.9026 16.2437 16.137 16.4512 16.8044 16.2949C17.4717 16.1387 18.6149 15.8341 20.4149 15.0854C22.1669 14.3569 23.5009 14.477 23.6764 14.1779C23.8519 13.8788 24.77 14.0562 24.7706 13.9525ZM17.9085 11.5953L18.0987 5.20807C18.1028 5.08424 18.1545 4.96677 18.2431 4.88018C18.3317 4.79359 18.4504 4.7446 18.5743 4.74342L22.88 4.71685C22.9443 4.71682 23.0079 4.72969 23.0671 4.75471C23.1264 4.77972 23.1799 4.81637 23.2247 4.86248C23.2695 4.90859 23.3046 4.96321 23.3279 5.02313C23.3512 5.08304 23.3622 5.14702 23.3603 5.21127C23.3383 5.89464 23.3053 7.10317 23.3283 7.65876C23.3552 8.28897 23.4564 10.6551 23.5009 11.7093C23.5035 11.7748 23.4926 11.8402 23.4689 11.9013C23.4453 11.9625 23.4093 12.0181 23.3633 12.0649C23.3173 12.1116 23.2623 12.1485 23.2015 12.1731C23.1407 12.1978 23.0756 12.2097 23.01 12.2082L18.3725 12.0881C18.2458 12.0839 18.1259 12.0297 18.0389 11.9373C17.952 11.845 17.9051 11.7221 17.9085 11.5953Z" fill="#101C1C"/>
<path d="M16.001 17.0247L25.2027 16.8025L25.1501 21.6059L16.4153 22.4894L16.001 17.0247Z" fill="#000409"/>
<path d="M18.5636 17.3535L26.1609 17.1614C26.9474 17.1415 27.5949 17.9174 27.5789 18.8615L27.552 20.4511C27.5379 21.2913 26.9986 21.9766 26.3009 22.0413L18.9017 22.7269C18.1514 22.7964 17.4876 22.1271 17.4136 21.227L17.242 19.1436C17.1648 18.1944 17.77 17.3734 18.5636 17.3535Z" fill="url(#paint5_linear_8563_41623)"/>
<path d="M9.90904 4.12633L9.63012 13.4315C9.62212 13.702 9.81649 13.9438 10.0605 13.9614L15.619 14.3963C15.8796 14.4165 16.0888 14.2131 16.0894 13.9371L16.1195 4.20702C16.1213 4.0819 16.0735 3.96115 15.9866 3.87115C15.8996 3.78115 15.7806 3.72921 15.6555 3.72669L10.3365 3.6841C10.1069 3.68217 9.9164 3.87975 9.90904 4.12633Z" fill="#101C1C"/>
<path d="M9.80865 3.8733C9.84285 3.8433 9.88573 3.82498 9.93105 3.821C9.97637 3.81703 10.0218 3.82761 10.0607 3.8512C10.2045 3.93414 13.6494 3.69493 14.7273 3.23381C15.8897 2.73618 16.6317 2.75795 16.6317 2.75795C16.6317 2.75795 16.7662 2.97154 16.7816 3.38047C16.7969 3.7894 16.8728 8.62833 16.8728 9.3149C16.8728 10.0015 16.837 13.0257 16.8245 13.4221C16.812 13.8186 16.7944 14.8097 16.787 14.947C16.7797 15.0844 16.787 15.7476 16.5949 16.0153C16.4027 16.283 15.4177 17.1582 13.9319 16.9171C12.586 16.698 11.7995 16.397 11.3691 16.2126C10.9528 16.0329 10.5365 15.8475 10.4299 15.6765C10.3233 15.5055 9.89383 14.2262 9.84836 13.7202C9.80289 13.2143 9.77087 11.6708 9.77791 11.2744C9.78496 10.8779 9.71387 4.76897 9.71387 4.76897C9.71387 4.76897 9.71387 4.15158 9.7254 4.08721C9.74753 4.01384 9.77536 3.94232 9.80865 3.8733Z" fill="url(#paint6_linear_8563_41623)"/>
<path opacity="0.24" d="M11.51 5.17992C10.4827 6.11242 9.97289 7.55439 9.70198 8.87693C9.36996 10.5041 9.28608 12.1721 9.45316 13.8244C9.46341 13.9256 9.47814 14.0354 9.54475 14.1049C9.61135 14.1744 9.71895 14.1847 9.8147 14.1876L16.5394 14.3947C16.6304 10.9401 16.6462 7.55525 16.5868 4.24006C16.5849 4.13022 16.5785 4.00981 16.5026 3.93744C16.4408 3.87884 16.3476 3.86635 16.2602 3.85835C14.7074 3.71232 12.8338 4.05048 11.6051 5.09762C11.5718 5.12516 11.5407 5.15206 11.51 5.17992Z" fill="#B2C9D5"/>
<path d="M25.3156 3.55349L27.5969 3.53428C27.6393 3.53212 27.6809 3.54592 27.7135 3.57295C27.7462 3.59999 27.7675 3.63829 27.7733 3.6803L27.9395 5.4899C27.9405 5.5126 27.9367 5.53525 27.9286 5.55646C27.9205 5.57768 27.9081 5.59701 27.8923 5.61328C27.8764 5.62956 27.8574 5.64243 27.8364 5.65111C27.8154 5.65979 27.7929 5.6641 27.7701 5.66378C27.7272 5.66701 27.6846 5.65389 27.651 5.62704C27.6173 5.6002 27.595 5.56162 27.5886 5.51904L27.4397 4.0745C27.4335 4.03299 27.4121 3.99525 27.3797 3.96858C27.3473 3.94191 27.3061 3.92819 27.2642 3.93008L25.3377 3.9368C25.3011 3.93794 25.265 3.92755 25.2346 3.9071C25.2042 3.88664 25.181 3.85716 25.1683 3.8228L25.1475 3.75876C25.1142 3.65724 25.1981 3.55605 25.3156 3.55349Z" fill="url(#paint7_linear_8563_41623)"/>
<path d="M28.1397 6.8543L27.4672 6.90169C27.3596 6.90937 27.2665 6.84917 27.2649 6.77136L27.2271 4.91405C27.2255 4.84232 27.303 4.78243 27.4022 4.77859L28.1439 4.74849C28.2505 4.74433 28.3395 4.80581 28.3383 4.88267L28.3088 6.723C28.3069 6.79025 28.2342 6.84853 28.1397 6.8543Z" fill="url(#paint8_linear_8563_41623)"/>
<path d="M24.9161 2.07977L9.84815 1.96481C9.53593 1.96257 9.29032 1.87835 9.30217 1.7778L9.30953 1.71375C9.32106 1.61481 9.5782 1.53699 9.88594 1.53923L24.9337 1.65772C25.2395 1.65996 25.4838 1.74322 25.4781 1.84249L25.4739 1.90653C25.4662 2.00484 25.218 2.08298 24.9161 2.07977Z" fill="#000409"/>
<path d="M16.3987 24.4132C15.3803 23.8423 14.5282 23.1035 13.9281 22.3779C12.9726 21.2225 12.5329 20.0636 11.9664 18.9483C11.2251 17.4884 10.2327 16.0617 8.81635 14.833C7.45891 13.6552 4.01488 12.17 4.0168 12.2203C3.97037 11.1315 3.95788 11.1261 4.06964 10.7428C4.09846 10.6435 4.27426 10.298 4.37097 10.3342C5.95257 10.9253 8.28797 12.4413 9.30245 13.4561C10.3954 14.5487 11.1277 15.7671 11.6449 17.0026C12.1429 18.19 12.4599 19.4139 13.3392 20.6634C14.0437 21.6647 15.2285 22.7298 16.6968 23.433" fill="url(#paint9_linear_8563_41623)"/>
<path d="M25.2346 2.11204L16.3737 2.00989L15.2013 1.98907L9.9557 1.81615C9.36553 1.79662 9.26914 2.17704 9.23423 2.70638L9.20605 16.6967L14.5538 17.2754L15.1968 17.3663L25.3999 16.869L25.2346 2.11204ZM16.0893 13.9854C16.0893 14.2614 15.8796 14.4657 15.6189 14.4446L10.0604 14.01C9.81641 13.9911 9.62203 13.7503 9.63003 13.4797L9.90895 4.17493C9.91632 3.92804 10.1069 3.73046 10.3365 3.73238L15.6554 3.77593C15.7805 3.77837 15.8996 3.83028 15.9866 3.9203C16.0735 4.01032 16.1213 4.13112 16.1194 4.25627L16.0893 13.9854ZM24.3527 13.643C24.3527 13.9034 24.1219 14.1179 23.8327 14.1272L17.2802 14.3367C16.9747 14.3466 16.725 14.1276 16.7294 13.8538L16.8822 4.22585C16.8864 3.96486 17.1275 3.75448 17.4214 3.7548L23.8445 3.76568C24.1366 3.76568 24.3729 3.97767 24.3723 4.23802L24.3527 13.643Z" fill="url(#paint10_linear_8563_41623)"/>
<path opacity="0.57" d="M18.8919 3.23288L17.6216 3.21911C17.425 3.21687 17.2694 3.07149 17.2735 2.8944L17.2761 2.79833C17.2806 2.62125 17.4436 2.47811 17.6402 2.48163L18.9096 2.49604C19.1055 2.49828 19.2618 2.64335 19.257 2.82043L19.2548 2.9165C19.2506 3.09326 19.0882 3.23576 18.8919 3.23288Z" fill="#F1F1F2"/>
<path opacity="0.57" d="M24.0138 3.21593L22.8187 3.20376C22.6234 3.20184 22.4665 3.05677 22.4713 2.88033V2.8102C22.4748 2.63376 22.6356 2.49254 22.8309 2.49478L24.0247 2.50823C24.2197 2.51047 24.375 2.65521 24.3718 2.83133V2.90146C24.3699 3.07567 24.2098 3.21785 24.0138 3.21593Z" fill="#F1F1F2"/>
<path d="M1.57691 16.8422C2.21096 16.3465 3.02881 16.1319 3.79511 15.9776C5.1106 15.7121 6.38126 15.7365 7.27181 16.8403C8.08038 17.8423 8.45664 19.2951 8.57609 20.5741C8.70418 21.9245 8.45824 23.3713 7.44729 24.3778C5.85705 25.9606 3.2392 25.7743 1.6717 24.4149C-0.623042 22.4247 -0.15295 18.1958 1.57691 16.8422Z" fill="#2F3D50"/>
<path d="M6.4081 20.3934C6.56821 22.8592 5.30107 24.9925 3.57025 25.153C1.83943 25.3134 0.305872 23.4298 0.156326 20.9551C0.00742121 18.4894 1.28576 16.3759 3.00794 16.2273C4.73011 16.0787 6.24734 17.9389 6.4081 20.3934Z" fill="#000409"/>
<path d="M5.09656 20.56C5.18751 21.969 4.42985 23.1884 3.40353 23.2819C2.3772 23.3754 1.47096 22.3052 1.38418 20.8934C1.2974 19.4815 2.05858 18.2717 3.08138 18.181C4.10418 18.0904 5.00594 19.1555 5.09656 20.56Z" fill="url(#paint11_radial_8563_41623)"/>
<path d="M2.48464 16.351C0.739729 17.1807 0.018901 19.004 0.179014 20.8552C0.291413 22.1839 0.75542 23.5628 1.78206 24.4623C2.03424 24.6894 2.32455 24.8702 2.63963 24.9964L2.95281 25.1325C2.7389 25.0553 2.52147 24.9865 2.31236 24.8914C1.68824 24.5926 1.19157 24.0678 0.82555 23.4865C-0.559107 21.1572 -0.327263 17.4689 2.48336 16.351H2.48464Z" fill="#A6A8AB"/>
<path d="M28.8739 13.1974C28.7778 13.3034 28.5447 13.8974 28.0227 15.7826C27.062 19.2496 25.3008 26.5422 25.4609 27.4449C25.6181 28.3284 25.7171 28.6454 25.7171 28.6454L27.4303 27.2044C27.4895 27.1355 27.5344 26.7993 27.5622 26.692C27.6154 26.4877 27.6687 26.2833 27.7223 26.0788C27.8357 25.6535 27.9512 25.2285 28.0688 24.8036C28.9616 21.5713 30.1503 18.2198 30.1916 14.9766C30.1942 14.7588 30.1881 14.543 30.1701 14.3316C30.1061 13.5631 29.7538 13.0363 29.0743 13.0222" fill="url(#paint12_linear_8563_41623)"/>
<path d="M28.1016 13.1486C27.6229 14.1551 27.3789 15.2942 27.1 16.3509C26.5011 18.6187 25.9074 20.8792 25.4181 23.1573C25.2311 24.0285 25.057 24.9005 24.8958 25.7732C24.7139 26.7627 24.5638 27.8509 24.9829 28.5723C25.5126 28.0164 26.2443 27.7397 26.6337 27.0468C26.7858 26.7762 26.8652 26.4723 26.9437 26.1754C27.6824 23.3722 28.5448 20.5772 29.0866 17.7609C29.29 16.7041 29.4491 15.6371 29.4037 14.6207C29.3851 14.2096 29.3303 13.7993 29.1561 13.4817C28.9819 13.164 28.6694 12.9523 28.3133 13.0212" fill="url(#paint13_linear_8563_41623)"/>
<path opacity="0.26" d="M28.5037 15.3967C28.9237 15.3967 29.2642 15.0562 29.2642 14.6361C29.2642 14.2161 28.9237 13.8756 28.5037 13.8756C28.0837 13.8756 27.7432 14.2161 27.7432 14.6361C27.7432 15.0562 28.0837 15.3967 28.5037 15.3967Z" fill="#000409"/>
<path d="M27.558 18.458C26.9787 18.051 26.4164 17.9777 25.9168 17.8544C24.9344 17.6094 24.0615 17.3955 23.2798 17.3084C23.0005 17.2764 22.7325 17.2594 22.4744 17.2556C22.1923 17.2511 21.898 17.2905 21.7241 17.7775C21.8884 18.1765 21.9912 18.8224 22.1993 19.1013C22.2826 19.2134 22.3732 19.2506 22.4632 19.2877C23.373 19.6656 24.4217 20.2407 25.6014 20.502C26.0894 20.6099 26.6034 20.6621 27.0821 20.4482C27.1993 20.3999 27.3058 20.329 27.3954 20.2394C27.4851 20.1498 27.5561 20.0434 27.6044 19.9262C27.7325 19.6335 27.7745 19.1711 27.665 18.7094" fill="url(#paint14_linear_8563_41623)"/>
<path d="M26.9224 18.8865C26.3431 18.4795 25.7811 18.4062 25.2816 18.2829C24.2988 18.0382 23.4243 17.824 22.6442 17.7385C22.3653 17.7065 22.0969 17.6892 21.8392 17.6854C21.557 17.6809 21.2611 17.7206 21.0889 18.2073C21.2531 18.6063 21.3559 19.2522 21.5641 19.5315C21.6473 19.6432 21.738 19.6804 21.8276 19.7175C22.7374 20.0954 23.7864 20.6705 24.9678 20.9318C25.4558 21.04 25.9697 21.0919 26.4485 20.8783C26.5655 20.83 26.6718 20.759 26.7613 20.6694C26.8507 20.5798 26.9216 20.4734 26.9698 20.3564C27.0979 20.0634 27.1399 19.601 27.0303 19.1395" fill="url(#paint15_linear_8563_41623)"/>
<path d="M18.3389 14.9923C18.4965 14.2557 19.477 14.0377 20.1043 14.599C21.4137 15.7704 23.368 17.7052 24.785 19.9276C26.1431 22.0568 26.5143 25.5975 26.6577 25.9478C27.0167 26.8211 27.1778 27.8711 27.1778 27.8711C27.1778 27.8711 25.8751 27.9572 25.3781 27.4173C24.8657 26.8608 23.3568 22.0561 22.293 21.4717C17.8262 19.0175 18.1653 17.2956 18.0632 16.5911C18.0417 16.4445 18.1842 15.7153 18.3389 14.9923Z" fill="url(#paint16_linear_8563_41623)"/>
<path d="M16.505 15.3323C16.609 14.5551 17.5771 14.2256 18.248 14.7383C19.648 15.8082 21.7515 17.5973 23.3373 19.7402C24.8565 21.7935 25.4883 25.4082 25.6593 25.7573C26.0839 26.6219 26.3228 27.6873 26.3228 27.6873C26.3228 27.6873 25.0211 27.9114 24.4831 27.409C23.9281 26.8889 21.0419 21.2514 19.2954 19.2938C14.6323 17.2364 16.5014 17.7289 16.3471 17.0122C16.3138 16.8633 16.4031 16.0951 16.505 15.3323Z" fill="url(#paint17_linear_8563_41623)"/>
<path d="M25.3599 20.7762L37.0523 19.4905L37.8163 27.6162L25.0742 30.2546L25.3599 20.7762Z" fill="url(#paint18_linear_8563_41623)"/>
<path d="M25.6551 25.2466L25.7678 30.114C23.8644 30.3362 22.2726 28.2381 22.2774 25.5569C22.2802 22.9752 23.7718 20.8195 25.5517 20.6978C25.5782 20.6958 25.6048 20.6946 25.6314 20.6936L25.6551 25.2466Z" fill="url(#paint19_linear_8563_41623)"/>
<path d="M37.4904 23.4293L37.916 27.6095C36.6056 27.7411 35.3487 25.9049 35.155 23.6111C34.9676 21.3913 35.8508 19.56 37.0907 19.4898C37.1093 19.4898 37.1279 19.4882 37.1468 19.4879L37.4904 23.4293Z" fill="url(#paint20_linear_8563_41623)"/>
<path d="M11.8642 18.3226C12.5488 17.7782 13.4368 17.5438 14.2691 17.3741C15.697 17.0833 17.0791 17.1092 18.0602 18.3174C18.9508 19.4145 19.3764 21.0073 19.523 22.4087C19.6777 23.8903 19.4289 25.479 18.3401 26.5866C16.6263 28.3299 13.8438 28.1522 12.1197 26.6597C9.59635 24.4751 9.99215 19.8078 11.8642 18.3226Z" fill="#2F3D50"/>
<path d="M17.1626 22.2134C17.3673 24.9183 16.0098 27.2665 14.1243 27.4459C12.235 27.6255 10.5458 25.5565 10.3578 22.8365C10.1711 20.1306 11.5427 17.8135 13.4157 17.6489C15.2839 17.484 16.959 19.5222 17.1626 22.2134Z" fill="#000409"/>
<path d="M15.7368 22.398C15.8514 23.9438 15.0399 25.2852 13.922 25.3899C12.8041 25.4946 11.805 24.3191 11.6958 22.7695C11.5866 21.2199 12.4035 19.8916 13.5176 19.7914C14.6317 19.6912 15.6224 20.8565 15.7368 22.398Z" fill="url(#paint21_radial_8563_41623)"/>
<path d="M12.8599 17.7587C10.945 18.6713 10.186 20.7144 10.3782 22.7359C10.4678 23.7168 10.7304 24.6986 11.228 25.5539C11.6658 26.3099 12.3143 26.9219 13.0943 27.3152C13.2051 27.3728 13.3185 27.426 13.4321 27.4769C13.1963 27.3913 12.967 27.2889 12.7459 27.1704C12.0766 26.8134 11.5207 26.2623 11.1214 25.6186C9.59904 23.092 9.79791 19.0024 12.8599 17.7587Z" fill="#A6A8AB"/>
<path opacity="0.05" d="M10.8193 4.98168C10.7575 4.97822 10.6957 4.98727 10.6376 5.0083C10.5795 5.02933 10.5262 5.0619 10.481 5.10404C10.4357 5.14619 10.3995 5.19705 10.3744 5.25355C10.3494 5.31006 10.336 5.37106 10.3351 5.43287L10.2521 11.1009C10.2441 11.6453 10.5083 12.1035 10.8401 12.1182L14.7263 12.2934C15.0552 12.3081 15.3258 11.8825 15.3312 11.3417L15.3889 5.74926C15.3902 5.61141 15.3384 5.47834 15.2442 5.37773C15.1499 5.27711 15.0206 5.21669 14.8829 5.20904L10.8193 4.98168Z" fill="#F1F1F2"/>
<path opacity="0.24" d="M21.9789 5.15366C23.0065 6.07847 23.5159 7.50796 23.7881 8.81896C24.1208 10.4314 24.2053 12.0852 24.0389 13.7232C24.0286 13.8231 24.0139 13.932 23.9473 14.0012C23.8807 14.0703 23.7731 14.08 23.6773 14.0828L16.9545 14.2855C16.8623 10.8613 16.8452 7.50614 16.9033 4.2202C16.9052 4.11132 16.9113 3.9922 16.9875 3.92047C17.049 3.86219 17.1422 3.85002 17.2299 3.84201C18.7824 3.69791 20.6563 4.03415 21.885 5.07232C21.9167 5.0989 21.9481 5.12516 21.9789 5.15366Z" fill="#B2C9D5"/>
<path d="M5.31665 15.1017C5.24077 15.1415 5.16224 15.1759 5.0816 15.2049C4.9074 15.258 4.70822 15.0841 4.63809 14.8206C4.62341 14.7684 4.61545 14.7146 4.61439 14.6605C4.61439 14.5612 4.61439 14.4619 4.61279 14.3745C4.70086 14.828 5.03901 15.1322 5.31665 15.1017Z" fill="url(#paint22_linear_8563_41623)"/>
<path d="M5.52832 15.007C5.74768 14.786 5.74928 14.3082 5.53537 13.9429C5.62631 14.0469 5.73006 14.128 5.80852 14.2573C5.94141 14.476 5.92732 14.779 5.77906 14.8843C5.76367 14.8964 5.74728 14.9071 5.73006 14.9164C5.66281 14.9477 5.59525 14.9772 5.52832 15.007Z" fill="#3EB776"/>
<path d="M5.26863 13.6604C4.96505 13.4683 4.66948 13.6284 4.60256 14.0111C4.60256 13.8564 4.57726 13.6908 4.61761 13.5496C4.65283 13.4263 4.71656 13.345 4.81903 13.3351C4.90229 13.3271 4.98747 13.3632 5.06624 13.4455C5.13413 13.515 5.20106 13.5887 5.26863 13.6604Z" fill="url(#paint23_linear_8563_41623)"/>
<path d="M6.28044 14.9218C6.28044 14.9516 6.28044 14.9811 6.28044 15.0108C6.28268 15.096 6.25097 15.1216 6.19237 15.1114C6.16871 15.1081 6.14648 15.0981 6.12833 15.0826C6.10615 15.0636 6.09196 15.0369 6.08862 15.008C6.08862 14.9971 6.08862 14.9916 6.09791 14.9951C6.10719 14.9987 6.12096 15.0025 6.12993 15.0054H6.13217C6.14466 15.0102 6.14018 15.0089 6.14594 15.0236C6.14995 15.0343 6.15736 15.0434 6.16702 15.0495C6.17667 15.0555 6.18805 15.0583 6.19942 15.0573C6.21639 15.0544 6.22664 15.0377 6.22664 15.0128C6.22664 15.008 6.22664 15.0025 6.22376 14.9987C6.22087 14.9948 6.21767 14.9987 6.21511 14.9987C6.16547 15.0307 6.0851 14.9702 6.0835 14.8626C6.0835 14.8101 6.09438 14.7691 6.13185 14.755C6.14764 14.7495 6.16487 14.7497 6.18054 14.7555C6.19621 14.7613 6.20934 14.7725 6.21767 14.787C6.2244 14.7956 6.22952 14.8027 6.23048 14.787C6.23048 14.7767 6.23592 14.7761 6.24233 14.7774C6.27947 14.7835 6.27947 14.7832 6.27947 14.8315C6.28044 14.8622 6.28044 14.892 6.28044 14.9218ZM6.13857 14.8709C6.13857 14.925 6.17252 14.967 6.20518 14.951C6.22568 14.9413 6.23432 14.8965 6.22279 14.861C6.21255 14.8309 6.19493 14.8142 6.17284 14.8142C6.15074 14.8142 6.1389 14.8373 6.13857 14.8709Z" fill="#F1F1F2"/>
<path d="M6.76752 14.6653C6.76514 14.6677 6.76367 14.6708 6.76336 14.6742L6.73966 14.7729C6.7388 14.7777 6.73706 14.7824 6.73454 14.7866C6.73378 14.7878 6.73274 14.7888 6.73151 14.7894C6.73028 14.7901 6.7289 14.7905 6.72749 14.7905C6.72467 14.7899 6.72189 14.7892 6.71917 14.7882H6.71468L6.70572 14.786C6.69963 14.7844 6.69387 14.7825 6.68778 14.7802C6.68399 14.7791 6.68063 14.7769 6.67818 14.7738C6.67643 14.7705 6.67514 14.7669 6.67434 14.7632L6.61926 14.5221C6.61845 14.5197 6.61845 14.5171 6.61926 14.5148C6.61926 14.5131 6.62214 14.5131 6.62406 14.5148C6.635 14.516 6.64575 14.5186 6.65608 14.5224C6.66118 14.5242 6.66579 14.5272 6.66953 14.5311C6.67495 14.5386 6.67837 14.5475 6.67946 14.5567L6.70604 14.6825C6.70625 14.6847 6.70702 14.6868 6.70828 14.6886C6.70864 14.6891 6.7091 14.6895 6.70963 14.6897C6.71015 14.69 6.71073 14.6901 6.71132 14.6901C6.71191 14.6901 6.71249 14.69 6.71302 14.6897C6.71354 14.6895 6.714 14.6891 6.71436 14.6886C6.71584 14.6864 6.71682 14.6839 6.71725 14.6813L6.73774 14.5804C6.7403 14.5682 6.7435 14.5548 6.75247 14.5506C6.75965 14.5487 6.7673 14.5495 6.77393 14.5529C6.77985 14.5548 6.78523 14.558 6.78962 14.5625C6.79577 14.5713 6.79953 14.5815 6.8005 14.5922L6.8226 14.7114C6.82301 14.7145 6.82387 14.7175 6.82516 14.7203C6.82676 14.7229 6.82964 14.7245 6.83125 14.7229C6.83285 14.7213 6.83285 14.7203 6.83317 14.7187L6.86199 14.5958C6.86272 14.591 6.8647 14.5864 6.86775 14.5826C6.87191 14.5788 6.87832 14.5804 6.88408 14.5826L6.9113 14.591C6.91357 14.5915 6.9156 14.5927 6.91707 14.5945C6.9181 14.5967 6.91863 14.5991 6.91863 14.6015C6.91863 14.604 6.9181 14.6064 6.91707 14.6086L6.86039 14.8174C6.86002 14.8201 6.85879 14.8227 6.85686 14.8247C6.85481 14.8255 6.85252 14.8255 6.85046 14.8247C6.83951 14.8232 6.82877 14.8204 6.81844 14.8164C6.81291 14.8148 6.80794 14.8117 6.80403 14.8074C6.7996 14.8007 6.79666 14.793 6.79538 14.785C6.78641 14.7453 6.77809 14.7056 6.77008 14.6659C6.76933 14.6654 6.76842 14.6652 6.76752 14.6653Z" fill="#F1F1F2"/>
<path d="M6.54976 14.7095C6.54231 14.7181 6.53258 14.7244 6.5217 14.7277C6.51082 14.731 6.49924 14.7311 6.48828 14.7281C6.48118 14.7262 6.47439 14.7233 6.4681 14.7194C6.46114 14.7153 6.45469 14.7104 6.44889 14.7047C6.44249 14.6988 6.43679 14.6921 6.43192 14.6849C6.42675 14.6774 6.42225 14.6694 6.41847 14.6612C6.41467 14.6527 6.41167 14.6439 6.4095 14.6349C6.40708 14.6259 6.40526 14.6167 6.40406 14.6074C6.40306 14.5982 6.40252 14.589 6.40246 14.5798V14.5776C6.40147 14.5524 6.40687 14.5274 6.41815 14.5049C6.4233 14.4952 6.43087 14.4869 6.44012 14.481C6.44938 14.4751 6.46001 14.4716 6.47099 14.4709C6.48333 14.4714 6.49544 14.4745 6.50649 14.48C6.51754 14.4855 6.52728 14.4933 6.53503 14.503C6.53855 14.5068 6.544 14.511 6.54592 14.5071C6.54638 14.5055 6.54638 14.5037 6.54592 14.502V14.4216C6.54523 14.4168 6.54625 14.412 6.5488 14.4079C6.54995 14.407 6.55125 14.4065 6.55263 14.4062C6.55401 14.4059 6.55544 14.4059 6.55681 14.4063C6.56676 14.4073 6.57648 14.4099 6.58563 14.4139C6.5893 14.4154 6.59258 14.4177 6.59523 14.4207C6.59912 14.4278 6.60079 14.4359 6.60004 14.444V14.7428C6.6003 14.7459 6.59964 14.7491 6.59812 14.7518C6.59658 14.7524 6.59485 14.7524 6.59331 14.7518C6.58481 14.7518 6.57637 14.7504 6.56834 14.7476C6.56276 14.7463 6.55786 14.743 6.55457 14.7383C6.54984 14.7295 6.54815 14.7194 6.54976 14.7095ZM6.4569 14.5926C6.45559 14.607 6.45783 14.6214 6.46341 14.6347C6.46899 14.648 6.47775 14.6597 6.48892 14.6688C6.49332 14.6726 6.49866 14.6751 6.50436 14.676C6.51006 14.677 6.51591 14.6764 6.52129 14.6743C6.52668 14.6722 6.53139 14.6687 6.53494 14.6641C6.53849 14.6595 6.54073 14.6541 6.54144 14.6484C6.54662 14.6311 6.54749 14.6128 6.54397 14.5951C6.54045 14.5774 6.53266 14.5608 6.52126 14.5468C6.49084 14.5151 6.45658 14.5398 6.4569 14.5926Z" fill="#F1F1F2"/>
<path d="M6.93226 14.9925C6.97902 14.9624 7.02353 14.9768 7.05587 15.0303C7.0959 15.0963 7.09078 15.2276 7.02161 15.2368C7.00803 15.2387 6.99421 15.237 6.98147 15.232C6.96873 15.2269 6.95752 15.2187 6.94892 15.208C6.94507 15.2039 6.94123 15.1952 6.93611 15.1984C6.93098 15.2016 6.93386 15.2096 6.93386 15.2157C6.93386 15.2428 6.93386 15.27 6.93386 15.2974C6.93386 15.3092 6.9313 15.3127 6.92202 15.3105C6.88135 15.3012 6.88135 15.3015 6.88135 15.2497C6.88135 15.1581 6.88135 15.0668 6.88135 14.9752C6.88135 14.955 6.88615 14.9502 6.9012 14.956C6.91625 14.9618 6.93226 14.9586 6.93226 14.9925ZM6.9787 15.1722C7.00624 15.1802 7.02577 15.1568 7.02641 15.1155C7.02802 15.0987 7.02451 15.0819 7.01633 15.0672C7.00815 15.0525 6.9957 15.0406 6.98062 15.0332C6.95276 15.0255 6.93418 15.0473 6.93386 15.0883C6.93354 15.1292 6.94988 15.1642 6.9787 15.1722Z" fill="#F1F1F2"/>
<path d="M6.32809 14.6486C6.30023 14.6842 6.26693 14.6742 6.23202 14.6505C6.22212 14.6431 6.21407 14.6334 6.20852 14.6223C6.20296 14.6112 6.20005 14.5989 6.2 14.5865C6.19808 14.5545 6.20544 14.5308 6.22658 14.5199C6.24134 14.5127 6.25831 14.5114 6.27397 14.5164C6.28422 14.5189 6.29447 14.5221 6.306 14.5241C6.31752 14.526 6.32009 14.5327 6.32265 14.5225C6.32374 14.5169 6.32368 14.5112 6.32247 14.5057C6.32125 14.5002 6.31892 14.495 6.3156 14.4904C6.30247 14.4715 6.27301 14.4645 6.26308 14.4811C6.26195 14.4837 6.26028 14.486 6.25819 14.4878C6.2561 14.4897 6.25364 14.4911 6.25096 14.4919C6.24829 14.4927 6.24548 14.4929 6.24271 14.4926C6.23994 14.4922 6.23728 14.4913 6.2349 14.4898C6.22949 14.4887 6.22414 14.4874 6.21889 14.4856C6.20544 14.4834 6.20448 14.4738 6.20833 14.4616C6.21089 14.4505 6.21687 14.4405 6.22543 14.433C6.23399 14.4254 6.2447 14.4208 6.25604 14.4197C6.28166 14.417 6.30741 14.4234 6.32873 14.4379C6.34281 14.448 6.35422 14.4614 6.36197 14.4769C6.36973 14.4924 6.37359 14.5096 6.37324 14.5269C6.37324 14.5561 6.37324 14.5849 6.37324 14.6137C6.37324 14.6246 6.37324 14.6339 6.38381 14.6387C6.39438 14.6435 6.39053 14.6547 6.39053 14.6627C6.39053 14.7015 6.39053 14.7015 6.36171 14.6922C6.35246 14.689 6.34434 14.6832 6.33837 14.6754C6.33239 14.6677 6.32882 14.6584 6.32809 14.6486ZM6.29287 14.5666C6.28417 14.5629 6.27451 14.5621 6.26533 14.5644C6.25668 14.5676 6.25252 14.5753 6.25316 14.5881C6.25303 14.5933 6.25418 14.5985 6.25653 14.6032C6.25887 14.6079 6.26233 14.612 6.26661 14.615C6.26993 14.6178 6.27381 14.62 6.27799 14.6213C6.28218 14.6226 6.28658 14.623 6.29093 14.6225C6.29528 14.622 6.29949 14.6206 6.30329 14.6185C6.3071 14.6163 6.31041 14.6134 6.31304 14.6099C6.31682 14.6056 6.31945 14.6004 6.32069 14.5948C6.32192 14.5892 6.32171 14.5834 6.32009 14.5779C6.31656 14.566 6.30664 14.5708 6.29959 14.567L6.29287 14.5666Z" fill="#F1F1F2"/>
<path d="M7.04801 14.7671C7.02879 14.762 7.0099 14.7575 6.99068 14.7518C6.9782 14.7479 6.97724 14.754 6.98044 14.7684C6.98197 14.7783 6.98578 14.7876 6.99156 14.7957C6.99734 14.8039 7.00494 14.8105 7.01374 14.8152C7.03167 14.8235 7.04833 14.8229 7.05761 14.8027C7.06113 14.7944 7.06562 14.7931 7.07298 14.7956C7.07886 14.7976 7.08485 14.7992 7.09092 14.8004C7.11813 14.8078 7.11942 14.8113 7.10565 14.8395C7.10168 14.8496 7.09489 14.8584 7.08609 14.8647C7.07729 14.8711 7.06685 14.8748 7.05601 14.8754C7.0264 14.8761 6.99746 14.8665 6.9741 14.8483C6.95075 14.8301 6.93443 14.8044 6.92792 14.7755C6.90839 14.7114 6.92376 14.6397 6.96186 14.6192C7.00477 14.5958 7.06754 14.6234 7.09668 14.6784C7.11156 14.7073 7.11831 14.7396 7.11621 14.7719C7.11621 14.7835 7.11173 14.7851 7.10372 14.7828C7.08643 14.7771 7.06722 14.7723 7.04801 14.7671ZM7.02079 14.7121L7.05281 14.7204C7.0621 14.723 7.06466 14.7178 7.06017 14.7063C7.05764 14.6972 7.05288 14.689 7.04634 14.6822C7.0398 14.6754 7.03168 14.6704 7.02271 14.6676C7.01565 14.665 7.00788 14.6653 7.00102 14.6683C6.99416 14.6714 6.98874 14.6769 6.98588 14.6839C6.98108 14.6938 6.98172 14.7018 6.99389 14.7047L7.02079 14.7121Z" fill="#F1F1F2"/>
<path d="M7.26421 14.8248C7.24467 14.8197 7.22546 14.8156 7.20624 14.8092C7.19504 14.8056 7.1944 14.8127 7.19664 14.8236C7.19799 14.8335 7.20157 14.8429 7.20712 14.8513C7.21266 14.8596 7.22003 14.8665 7.22866 14.8716C7.24467 14.8806 7.2626 14.8841 7.27061 14.8678C7.27862 14.8514 7.29271 14.8501 7.30712 14.8553C7.32153 14.8604 7.32697 14.8572 7.33145 14.8694C7.33594 14.8815 7.32761 14.8911 7.32313 14.9014C7.3191 14.9104 7.31268 14.9182 7.30455 14.9238C7.29642 14.9295 7.28689 14.9328 7.27701 14.9334C7.24822 14.9351 7.21974 14.9268 7.19639 14.9098C7.17304 14.8929 7.15627 14.8684 7.14892 14.8405C7.13906 14.8173 7.13485 14.792 7.13663 14.7668C7.13841 14.7416 7.14613 14.7171 7.15917 14.6955C7.18543 14.6596 7.22322 14.6606 7.26228 14.682C7.2865 14.6964 7.30624 14.7172 7.3193 14.7421C7.33237 14.7671 7.33824 14.7952 7.33626 14.8232C7.33626 14.8415 7.33081 14.8437 7.31864 14.8399C7.30199 14.8341 7.28246 14.83 7.26421 14.8248ZM7.23763 14.7701C7.24755 14.7726 7.25748 14.7749 7.26741 14.7781C7.27733 14.7813 7.2815 14.7781 7.27573 14.7627C7.27311 14.7537 7.26823 14.7456 7.26156 14.739C7.25489 14.7325 7.24665 14.7277 7.23763 14.7253C7.23393 14.724 7.23002 14.7235 7.22612 14.7238C7.22223 14.7241 7.21843 14.7251 7.21494 14.7269C7.21145 14.7286 7.20835 14.7311 7.20582 14.734C7.20328 14.737 7.20136 14.7404 7.20016 14.7441C7.19504 14.7557 7.19792 14.7602 7.20817 14.7621C7.21841 14.764 7.22802 14.7672 7.23795 14.7701H7.23763Z" fill="#F1F1F2"/>
<path d="M6.7934 15.1511C6.78525 15.1594 6.77466 15.165 6.76315 15.167C6.75164 15.1689 6.7398 15.1672 6.72935 15.162C6.7119 15.1543 6.69688 15.142 6.68592 15.1265C6.67497 15.1109 6.6685 15.0926 6.66723 15.0736C6.66022 15.0176 6.65925 14.961 6.66435 14.9048C6.66435 14.8971 6.66915 14.892 6.67491 14.8936C6.69061 14.8978 6.70694 14.9032 6.70694 14.9035C6.71879 14.9067 6.71686 14.9125 6.71686 14.9227C6.71686 14.9605 6.71686 14.9983 6.71686 15.0361C6.71654 15.0469 6.71762 15.0576 6.72007 15.0681C6.72615 15.0934 6.73544 15.105 6.75209 15.1098C6.76874 15.1146 6.78251 15.1059 6.78763 15.0857C6.79094 15.0732 6.79256 15.0603 6.79244 15.0473C6.79244 15.0137 6.79244 14.9804 6.79244 14.9468C6.79244 14.9327 6.79436 14.9266 6.80653 14.9304C6.85456 14.9452 6.84591 14.9324 6.84623 14.9926C6.84656 15.0528 6.84623 15.111 6.84623 15.1703C6.84623 15.1863 6.84303 15.1914 6.83118 15.1882C6.82738 15.1874 6.82364 15.1863 6.81998 15.185C6.80749 15.1802 6.79404 15.1802 6.7934 15.1511Z" fill="#F1F1F2"/>
<path d="M6.5376 15.1097C6.47579 15.0924 6.43865 15.0342 6.43897 14.9541C6.43929 14.874 6.47803 14.8382 6.53888 14.8548C6.59972 14.8715 6.63911 14.9333 6.63879 15.0121C6.63847 15.0908 6.5978 15.127 6.5376 15.1097ZM6.58403 15.0015C6.58541 14.9881 6.58405 14.9745 6.58004 14.9616C6.57602 14.9487 6.56942 14.9368 6.56065 14.9266C6.5392 14.9048 6.51294 14.9067 6.50109 14.9294C6.49381 14.9469 6.4912 14.966 6.4935 14.9848C6.4958 15.0036 6.50294 15.0215 6.51422 15.0367C6.51904 15.0437 6.52597 15.0489 6.53399 15.0516C6.542 15.0543 6.55068 15.0544 6.55873 15.0518C6.57827 15.0447 6.58339 15.0223 6.58403 15.0015Z" fill="#F1F1F2"/>
<path d="M6.08791 14.4348C6.08407 14.4245 6.07414 14.4277 6.0671 14.4249C6.06458 14.4239 6.06245 14.4221 6.06106 14.4198C6.05967 14.4175 6.05909 14.4147 6.05941 14.4121C6.05989 14.4043 6.05989 14.3965 6.05941 14.3887C6.05781 14.3691 6.06166 14.3595 6.07831 14.3672C6.08695 14.3711 6.09112 14.3656 6.09016 14.3541V14.3477C6.09016 14.333 6.08471 14.3032 6.09432 14.3054C6.12282 14.3112 6.12218 14.3112 6.13691 14.315C6.14139 14.315 6.14331 14.3211 6.14331 14.3269V14.3416C6.14331 14.3823 6.14331 14.3826 6.17342 14.3922C6.17534 14.3926 6.17717 14.3933 6.17879 14.3944C6.18042 14.3955 6.18181 14.3969 6.18288 14.3986C6.18395 14.4002 6.18469 14.4021 6.18504 14.404C6.1854 14.4059 6.18536 14.4079 6.18494 14.4098V14.4185C6.18494 14.4553 6.18494 14.4559 6.1574 14.4482C6.14588 14.4454 6.14267 14.4482 6.14299 14.4643C6.14299 14.4902 6.14299 14.5161 6.14299 14.5424C6.14299 14.5686 6.14652 14.5744 6.16573 14.5802C6.17277 14.5824 6.18334 14.5802 6.18526 14.5923C6.18783 14.6082 6.18783 14.6245 6.18526 14.6404C6.18526 14.642 6.18174 14.6429 6.18014 14.6426C6.15958 14.6389 6.13971 14.6321 6.12122 14.6224C6.11203 14.6161 6.10453 14.6076 6.09934 14.5978C6.09415 14.5879 6.09144 14.5769 6.09144 14.5658C6.09144 14.5437 6.09144 14.5222 6.09144 14.5017C6.09016 14.5001 6.09112 14.4438 6.08791 14.4348Z" fill="#F1F1F2"/>
<path d="M6.31433 14.9209C6.31433 14.8869 6.31433 14.853 6.31433 14.8187C6.31433 14.8014 6.31882 14.7989 6.33131 14.8021L6.34892 14.8069C6.35724 14.8085 6.36333 14.8114 6.36461 14.8258C6.36589 14.8402 6.37069 14.8405 6.3771 14.8335C6.38266 14.8285 6.3895 14.8251 6.39686 14.8238C6.40422 14.8225 6.41179 14.8233 6.41873 14.8261C6.42385 14.8261 6.4293 14.8287 6.42962 14.8376C6.42962 14.8533 6.42962 14.8697 6.42962 14.8844C6.42962 14.8937 6.42321 14.8902 6.41873 14.8892C6.37806 14.8812 6.36781 14.8927 6.36749 14.9456C6.36749 14.9776 6.36749 15.0096 6.36749 15.0435C6.36749 15.0563 6.36461 15.0605 6.35468 15.0576C6.30505 15.0429 6.3153 15.0554 6.31433 14.9971C6.31369 14.9718 6.31401 14.9462 6.31433 14.9209Z" fill="#F1F1F2"/>
<path d="M7.41766 14.7508C7.42386 14.7442 7.43166 14.7393 7.4403 14.7366C7.44894 14.7339 7.45813 14.7335 7.46698 14.7354C7.47818 14.7373 7.48075 14.7402 7.48267 14.7585C7.48283 14.7613 7.48283 14.7642 7.48267 14.7671C7.48267 14.7991 7.48267 14.7991 7.45801 14.7972C7.43335 14.7953 7.41734 14.8126 7.41702 14.8568C7.41702 14.8904 7.41702 14.924 7.41702 14.958C7.41702 14.973 7.4135 14.9749 7.40293 14.972C7.36386 14.9615 7.36386 14.9621 7.36386 14.9118C7.36386 14.8523 7.36386 14.793 7.36386 14.7332C7.36386 14.7146 7.3613 14.7069 7.38308 14.713C7.38644 14.7136 7.38976 14.7145 7.393 14.7155C7.41958 14.7248 7.41734 14.7258 7.41766 14.7508Z" fill="#F1F1F2"/>
<defs>
<linearGradient id="paint0_linear_8563_41623" x1="13.5127" y1="15.6528" x2="-3.19119" y2="18.9739" gradientUnits="userSpaceOnUse">
<stop offset="0.15" stop-color="#D1DFE6"/>
<stop offset="0.35" stop-color="#9FCDD9"/>
<stop offset="0.79" stop-color="#39A9BF"/>
<stop offset="0.99" stop-color="#109AB5"/>
</linearGradient>
<linearGradient id="paint1_linear_8563_41623" x1="12.2888" y1="14.3723" x2="-1.20007" y2="27.6473" gradientUnits="userSpaceOnUse">
<stop offset="0.02" stop-color="#0E93BD"/>
<stop offset="0.03" stop-color="#128DB4"/>
<stop offset="0.06" stop-color="#1C7C9A"/>
<stop offset="0.1" stop-color="#2D6071"/>
<stop offset="0.14" stop-color="#404041"/>
</linearGradient>
<linearGradient id="paint2_linear_8563_41623" x1="18.7489" y1="-1.0088" x2="23.047" y2="25.9529" gradientUnits="userSpaceOnUse">
<stop offset="0.08" stop-color="#404041"/>
<stop offset="0.1" stop-color="#515152"/>
<stop offset="0.13" stop-color="#69696A"/>
<stop offset="0.16" stop-color="#777778"/>
<stop offset="0.18" stop-color="#7C7C7D"/>
<stop offset="0.19" stop-color="#727273"/>
<stop offset="0.22" stop-color="#5D5D5D"/>
<stop offset="0.26" stop-color="#4C4C4C"/>
<stop offset="0.3" stop-color="#414141"/>
<stop offset="0.35" stop-color="#3A3A3A"/>
<stop offset="0.51" stop-color="#383838"/>
</linearGradient>
<linearGradient id="paint3_linear_8563_41623" x1="22.7801" y1="21.3527" x2="40.9932" y2="7.05334" gradientUnits="userSpaceOnUse">
<stop stop-color="#649193"/>
<stop offset="0.12" stop-color="#7BA2A5"/>
<stop offset="0.36" stop-color="#B6CED5"/>
<stop offset="0.47" stop-color="#D3E3EC"/>
<stop offset="0.49" stop-color="#DCE5EA"/>
<stop offset="0.5" stop-color="#E4E6E8"/>
<stop offset="0.52" stop-color="#D3E3EC"/>
<stop offset="0.54" stop-color="#BACFD5"/>
<stop offset="0.57" stop-color="#A4BDC1"/>
<stop offset="0.61" stop-color="#93B0B2"/>
<stop offset="0.65" stop-color="#88A6A7"/>
<stop offset="0.7" stop-color="#81A1A1"/>
<stop offset="0.86" stop-color="#7F9F9F"/>
</linearGradient>
<linearGradient id="paint4_linear_8563_41623" x1="19.1252" y1="-1.09779" x2="23.413" y2="25.7989" gradientUnits="userSpaceOnUse">
<stop offset="0.08" stop-color="#404041"/>
<stop offset="0.1" stop-color="#515152"/>
<stop offset="0.13" stop-color="#69696A"/>
<stop offset="0.16" stop-color="#777778"/>
<stop offset="0.18" stop-color="#7C7C7D"/>
<stop offset="0.19" stop-color="#727273"/>
<stop offset="0.22" stop-color="#5D5D5D"/>
<stop offset="0.26" stop-color="#4C4C4C"/>
<stop offset="0.3" stop-color="#414141"/>
<stop offset="0.35" stop-color="#3A3A3A"/>
<stop offset="0.51" stop-color="#383838"/>
</linearGradient>
<linearGradient id="paint5_linear_8563_41623" x1="22.3832" y1="23.4096" x2="22.438" y2="13.066" gradientUnits="userSpaceOnUse">
<stop stop-color="#649193"/>
<stop offset="0.12" stop-color="#7BA2A5"/>
<stop offset="0.36" stop-color="#B6CED5"/>
<stop offset="0.47" stop-color="#D3E3EC"/>
<stop offset="0.49" stop-color="#DCE5EA"/>
<stop offset="0.5" stop-color="#E4E6E8"/>
<stop offset="0.52" stop-color="#D3E3EC"/>
<stop offset="0.54" stop-color="#BACFD5"/>
<stop offset="0.57" stop-color="#A4BDC1"/>
<stop offset="0.61" stop-color="#93B0B2"/>
<stop offset="0.65" stop-color="#88A6A7"/>
<stop offset="0.7" stop-color="#81A1A1"/>
<stop offset="0.86" stop-color="#7F9F9F"/>
</linearGradient>
<linearGradient id="paint6_linear_8563_41623" x1="11.8293" y1="-0.800396" x2="16.0931" y2="25.9461" gradientUnits="userSpaceOnUse">
<stop offset="0.08" stop-color="#404041"/>
<stop offset="0.1" stop-color="#515152"/>
<stop offset="0.13" stop-color="#69696A"/>
<stop offset="0.16" stop-color="#777778"/>
<stop offset="0.18" stop-color="#7C7C7D"/>
<stop offset="0.19" stop-color="#727273"/>
<stop offset="0.22" stop-color="#5D5D5D"/>
<stop offset="0.26" stop-color="#4C4C4C"/>
<stop offset="0.3" stop-color="#414141"/>
<stop offset="0.35" stop-color="#3A3A3A"/>
<stop offset="0.51" stop-color="#383838"/>
</linearGradient>
<linearGradient id="paint7_linear_8563_41623" x1="25.2227" y1="4.80482" x2="27.9248" y2="4.66972" gradientUnits="userSpaceOnUse">
<stop stop-color="#231F20"/>
<stop offset="0.52" stop-color="#252122"/>
<stop offset="0.7" stop-color="#2B2829"/>
<stop offset="0.84" stop-color="#353334"/>
<stop offset="0.92" stop-color="#404041"/>
</linearGradient>
<linearGradient id="paint8_linear_8563_41623" x1="27.2135" y1="5.85187" x2="28.3423" y2="5.80787" gradientUnits="userSpaceOnUse">
<stop stop-color="#231F20"/>
<stop offset="0.07" stop-color="#252122"/>
<stop offset="0.1" stop-color="#2B2829"/>
<stop offset="0.12" stop-color="#353334"/>
<stop offset="0.13" stop-color="#404041"/>
<stop offset="0.65" stop-color="#404041"/>
<stop offset="0.81" stop-color="#3E3E3F"/>
<stop offset="0.87" stop-color="#373738"/>
<stop offset="0.92" stop-color="#2C2C2D"/>
<stop offset="0.95" stop-color="#1B1B1C"/>
<stop offset="0.98" stop-color="#060606"/>
<stop offset="0.99"/>
</linearGradient>
<linearGradient id="paint9_linear_8563_41623" x1="-13.6103" y1="17.3936" x2="32.7529" y2="17.3523" gradientUnits="userSpaceOnUse">
<stop offset="0.38" stop-color="#24CD7F"/>
<stop offset="0.49" stop-color="#18AEA0"/>
<stop offset="0.62" stop-color="#0B8DC3"/>
<stop offset="0.73" stop-color="#0378D8"/>
<stop offset="0.8" stop-color="#0071E0"/>
</linearGradient>
<linearGradient id="paint10_linear_8563_41623" x1="9.20605" y1="9.59091" x2="25.3989" y2="9.59091" gradientUnits="userSpaceOnUse">
<stop stop-color="#43525A"/>
<stop offset="0.01" stop-color="#374554"/>
<stop offset="0.02" stop-color="#303E50"/>
<stop offset="0.04" stop-color="#2D3B4D"/>
<stop offset="0.07" stop-color="#273242"/>
<stop offset="0.12" stop-color="#232D3B"/>
<stop offset="0.26" stop-color="#222C39"/>
</linearGradient>
<radialGradient id="paint11_radial_8563_41623" cx="0" cy="0" r="1" gradientTransform="matrix(2.53668 -0.152812 0.183374 3.05623 3.29067 20.6081)" gradientUnits="userSpaceOnUse">
<stop offset="0.4" stop-color="#B3D6D8"/>
<stop offset="0.52" stop-color="#A6CBD0"/>
<stop offset="0.96" stop-color="#DDFEFE"/>
</radialGradient>
<linearGradient id="paint12_linear_8563_41623" x1="12.6848" y1="14.2475" x2="24.6059" y2="19.8632" gradientUnits="userSpaceOnUse">
<stop stop-color="#649193"/>
<stop offset="0.12" stop-color="#7BA2A5"/>
<stop offset="0.36" stop-color="#B6CED5"/>
<stop offset="0.47" stop-color="#D3E3EC"/>
<stop offset="0.49" stop-color="#DCE5EA"/>
<stop offset="0.5" stop-color="#E4E6E8"/>
<stop offset="0.52" stop-color="#D3E3EC"/>
<stop offset="0.54" stop-color="#BACFD5"/>
<stop offset="0.57" stop-color="#A4BDC1"/>
<stop offset="0.61" stop-color="#93B0B2"/>
<stop offset="0.65" stop-color="#88A6A7"/>
<stop offset="0.7" stop-color="#81A1A1"/>
<stop offset="0.86" stop-color="#7F9F9F"/>
</linearGradient>
<linearGradient id="paint13_linear_8563_41623" x1="23.5532" y1="19.6597" x2="35.2627" y2="25.1757" gradientUnits="userSpaceOnUse">
<stop stop-color="#9DBBC0"/>
<stop offset="0.04" stop-color="#A5C1C7"/>
<stop offset="0.1" stop-color="#BCD2DA"/>
<stop offset="0.11" stop-color="#C0D5DD"/>
<stop offset="0.19" stop-color="#BDD3DB"/>
<stop offset="0.24" stop-color="#B5CDD4"/>
<stop offset="0.28" stop-color="#A8C3CA"/>
<stop offset="0.36" stop-color="#AAC4CB"/>
<stop offset="0.39" stop-color="#B1C8CF"/>
<stop offset="0.41" stop-color="#BCD0D7"/>
<stop offset="0.42" stop-color="#CDDAE1"/>
<stop offset="0.43" stop-color="#D5DFE6"/>
<stop offset="0.47" stop-color="#CCDEE7"/>
<stop offset="0.48" stop-color="#C9DBE4"/>
<stop offset="0.49" stop-color="#B6CDD4"/>
<stop offset="0.51" stop-color="#A8C3C9"/>
<stop offset="0.53" stop-color="#A0BDC3"/>
<stop offset="0.58" stop-color="#9EBBC1"/>
</linearGradient>
<linearGradient id="paint14_linear_8563_41623" x1="25.209" y1="12.8766" x2="21.4682" y2="20.5283" gradientUnits="userSpaceOnUse">
<stop stop-color="#649193"/>
<stop offset="0.12" stop-color="#7BA2A5"/>
<stop offset="0.36" stop-color="#B6CED5"/>
<stop offset="0.47" stop-color="#D3E3EC"/>
<stop offset="0.49" stop-color="#DCE5EA"/>
<stop offset="0.5" stop-color="#E4E6E8"/>
<stop offset="0.52" stop-color="#D3E3EC"/>
<stop offset="0.54" stop-color="#BACFD5"/>
<stop offset="0.57" stop-color="#A4BDC1"/>
<stop offset="0.61" stop-color="#93B0B2"/>
<stop offset="0.65" stop-color="#88A6A7"/>
<stop offset="0.7" stop-color="#81A1A1"/>
<stop offset="0.86" stop-color="#7F9F9F"/>
</linearGradient>
<linearGradient id="paint15_linear_8563_41623" x1="24.5727" y1="13.3092" x2="20.8319" y2="20.9608" gradientUnits="userSpaceOnUse">
<stop offset="0.37" stop-color="#B3D6D8"/>
<stop offset="0.44" stop-color="#C5E7E8"/>
<stop offset="0.55" stop-color="#DDFEFE"/>
<stop offset="0.58" stop-color="#CEF0F1"/>
<stop offset="0.63" stop-color="#BCDFE2"/>
<stop offset="0.7" stop-color="#AFD4D8"/>
<stop offset="0.78" stop-color="#A8CDD2"/>
<stop offset="0.98" stop-color="#A6CBD0"/>
</linearGradient>
<linearGradient id="paint16_linear_8563_41623" x1="-6.3583" y1="32.3826" x2="18.6724" y2="17.7049" gradientUnits="userSpaceOnUse">
<stop stop-color="#649193"/>
<stop offset="0.12" stop-color="#7BA2A5"/>
<stop offset="0.36" stop-color="#B6CED5"/>
<stop offset="0.47" stop-color="#D3E3EC"/>
<stop offset="0.49" stop-color="#DCE5EA"/>
<stop offset="0.5" stop-color="#E4E6E8"/>
<stop offset="0.52" stop-color="#D3E3EC"/>
<stop offset="0.54" stop-color="#BACFD5"/>
<stop offset="0.57" stop-color="#A4BDC1"/>
<stop offset="0.61" stop-color="#93B0B2"/>
<stop offset="0.65" stop-color="#88A6A7"/>
<stop offset="0.7" stop-color="#81A1A1"/>
<stop offset="0.86" stop-color="#7F9F9F"/>
</linearGradient>
<linearGradient id="paint17_linear_8563_41623" x1="10.5377" y1="26.9134" x2="35.6394" y2="10.0671" gradientUnits="userSpaceOnUse">
<stop stop-color="#9DBBC0"/>
<stop offset="0.04" stop-color="#A5C1C7"/>
<stop offset="0.1" stop-color="#BCD2DA"/>
<stop offset="0.11" stop-color="#C0D5DD"/>
<stop offset="0.19" stop-color="#BDD3DB"/>
<stop offset="0.24" stop-color="#B5CDD4"/>
<stop offset="0.28" stop-color="#A8C3CA"/>
<stop offset="0.36" stop-color="#AAC4CB"/>
<stop offset="0.39" stop-color="#B1C8CF"/>
<stop offset="0.41" stop-color="#BCD0D7"/>
<stop offset="0.42" stop-color="#CDDAE1"/>
<stop offset="0.43" stop-color="#D5DFE6"/>
<stop offset="0.47" stop-color="#CCDEE7"/>
<stop offset="0.48" stop-color="#C9DBE4"/>
<stop offset="0.49" stop-color="#B6CDD4"/>
<stop offset="0.51" stop-color="#A8C3C9"/>
<stop offset="0.53" stop-color="#A0BDC3"/>
<stop offset="0.58" stop-color="#9EBBC1"/>
</linearGradient>
<linearGradient id="paint18_linear_8563_41623" x1="30.936" y1="16.0657" x2="28.9319" y2="37.8653" gradientUnits="userSpaceOnUse">
<stop offset="0.15" stop-color="#2E3C4F"/>
<stop offset="0.16" stop-color="#2D3B4D"/>
<stop offset="0.19" stop-color="#273242"/>
<stop offset="0.23" stop-color="#232D3B"/>
<stop offset="0.36" stop-color="#222C39"/>
<stop offset="0.41" stop-color="#2B3742"/>
<stop offset="0.54" stop-color="#3D4B54"/>
<stop offset="0.62" stop-color="#43525A"/>
<stop offset="0.63" stop-color="#435057"/>
<stop offset="0.67" stop-color="#41474A"/>
<stop offset="0.73" stop-color="#404143"/>
<stop offset="0.86" stop-color="#404041"/>
</linearGradient>
<linearGradient id="paint19_linear_8563_41623" x1="26.5363" y1="18.5031" x2="28.4897" y2="36.0812" gradientUnits="userSpaceOnUse">
<stop offset="0.15" stop-color="#2F3D50"/>
<stop offset="0.27" stop-color="#2B384A"/>
<stop offset="0.43" stop-color="#202B3A"/>
<stop offset="0.62" stop-color="#0F161F"/>
<stop offset="0.74" stop-color="#000409"/>
</linearGradient>
<linearGradient id="paint20_linear_8563_41623" x1="29.5093" y1="22.5552" x2="44.0646" y2="25.106" gradientUnits="userSpaceOnUse">
<stop stop-color="#FBBC34"/>
<stop offset="0.04" stop-color="#F9BB34"/>
<stop offset="0.06" stop-color="#F2B633"/>
<stop offset="0.07" stop-color="#E7AD30"/>
<stop offset="0.08" stop-color="#C0902A"/>
<stop offset="0.09" stop-color="#A47C25"/>
<stop offset="0.1" stop-color="#5E4919"/>
<stop offset="0.11" stop-color="#000409"/>
<stop offset="0.25" stop-color="#090F17"/>
<stop offset="0.5" stop-color="#222D3C"/>
<stop offset="0.62" stop-color="#2F3D50"/>
<stop offset="0.66" stop-color="#464A4E"/>
<stop offset="0.73" stop-color="#806B49"/>
<stop offset="0.83" stop-color="#DC9F42"/>
<stop offset="0.86" stop-color="#FBB03F"/>
<stop offset="0.98" stop-color="#F6932A"/>
<stop offset="0.99" stop-color="#FBB53A"/>
<stop offset="1" stop-color="#FAAF40"/>
</linearGradient>
<radialGradient id="paint21_radial_8563_41623" cx="0" cy="0" r="1" gradientTransform="matrix(2.36551 -0.1425 0.199501 3.24901 13.7827 22.4097)" gradientUnits="userSpaceOnUse">
<stop offset="0.4" stop-color="#B3D6D8"/>
<stop offset="0.52" stop-color="#A6CBD0"/>
<stop offset="0.96" stop-color="#DDFEFE"/>
</radialGradient>
<linearGradient id="paint22_linear_8563_41623" x1="4.32392" y1="14.8511" x2="5.15088" y2="15.0472" gradientUnits="userSpaceOnUse">
<stop offset="0.08" stop-color="#1B75BB"/>
<stop offset="0.29" stop-color="#207FB0"/>
<stop offset="0.67" stop-color="#2F9A94"/>
<stop offset="1" stop-color="#3EB775"/>
</linearGradient>
<linearGradient id="paint23_linear_8563_41623" x1="4.39056" y1="13.7634" x2="5.02917" y2="13.9148" gradientUnits="userSpaceOnUse">
<stop offset="0.08" stop-color="#1B75BB"/>
<stop offset="0.27" stop-color="#1F7CB4"/>
<stop offset="0.56" stop-color="#288EA0"/>
<stop offset="0.9" stop-color="#38AD80"/>
<stop offset="1" stop-color="#3EB775"/>
</linearGradient>
</defs>
</svg>
