<svg width="24" height="24" viewBox="0 0 24 24" fill="none" xmlns="http://www.w3.org/2000/svg">
<path fill-rule="evenodd" clip-rule="evenodd" d="M19.4082 8.26758C19.8542 8.26773 20.2107 8.63272 20.2109 9.07812C20.2109 9.52372 19.8544 9.8895 19.4082 9.88965H18.9297L17.9043 20.3682C17.8039 21.4086 16.9487 22.2002 15.9121 22.2002H8.42969L8.25684 22.1914L8.24805 22.1904C7.29903 22.0997 6.54151 21.3434 6.44727 20.3672L5.42188 9.88965H4.94336C4.49739 9.88938 4.14062 9.52374 4.14062 9.07812C4.14084 8.63269 4.49753 8.26785 4.94336 8.26758H19.4082ZM8.54102 20.0605H15.8105L16.7549 10.4062H7.59668L8.54102 20.0605Z" fill="#101828"/>
<path fill-rule="evenodd" clip-rule="evenodd" d="M19.5176 3.8418C19.6334 3.86528 19.7409 3.92234 19.8252 4.00781C19.9373 4.1216 20 4.2758 20 4.43555C20.0002 4.59861 20.0642 4.7549 20.1768 4.86914L20.2676 4.94531C20.3655 5.01153 20.4811 5.0468 20.5996 5.04688C20.7596 5.04688 20.9131 5.1117 21.0254 5.22559L21.0996 5.31738C21.1428 5.38276 21.1731 5.45609 21.1885 5.5332L21.2002 5.65137C21.2002 5.77114 21.1644 5.88765 21.0996 5.98633L21.0254 6.0791C20.9131 6.19303 20.7597 6.25781 20.5996 6.25781C20.4418 6.25792 20.2894 6.32147 20.1768 6.43555C20.0641 6.5498 20.0002 6.70612 20 6.86914C20 7.02885 19.9373 7.18305 19.8252 7.29688C19.7409 7.38238 19.6335 7.4404 19.5176 7.46387L19.3994 7.47559C19.24 7.47541 19.0869 7.41064 18.9746 7.29688C18.8631 7.18335 18.7998 7.0289 18.7998 6.86914C18.7996 6.70619 18.7356 6.54978 18.623 6.43555C18.5385 6.34995 18.4311 6.29295 18.3164 6.26953L18.1992 6.25781C18.0391 6.25749 17.887 6.19232 17.7754 6.0791C17.6912 5.99368 17.6351 5.8856 17.6123 5.76953L17.6006 5.65137C17.6009 5.49158 17.6638 5.3388 17.7754 5.22559C17.8871 5.11232 18.0391 5.04719 18.1992 5.04688L18.3164 5.03516C18.4311 5.01172 18.5385 4.95472 18.623 4.86914L18.6982 4.77637C18.7637 4.67658 18.7997 4.55781 18.7998 4.43555C18.7998 4.27579 18.8631 4.1213 18.9746 4.00781C19.0869 3.89409 19.24 3.83026 19.3994 3.83008L19.5176 3.8418Z" fill="#101828"/>
<path fill-rule="evenodd" clip-rule="evenodd" d="M4.71875 3.43555C4.8344 3.45908 4.94216 3.51711 5.02637 3.60254C5.1377 3.71597 5.20012 3.86976 5.2002 4.0293C5.20028 4.19224 5.26451 4.34861 5.37695 4.46289C5.48982 4.57715 5.64303 4.6416 5.80078 4.6416C5.9609 4.64192 6.11297 4.7071 6.22461 4.82031C6.33658 4.93405 6.39934 5.08755 6.39941 5.24707C6.39903 5.40666 6.33601 5.55973 6.22461 5.67285C6.11293 5.78615 5.9609 5.85124 5.80078 5.85156C5.64307 5.85156 5.48983 5.91603 5.37695 6.03027L5.37598 6.0293C5.26362 6.14353 5.20031 6.30096 5.2002 6.46387C5.20008 6.6234 5.13764 6.77726 5.02637 6.89062C4.94217 6.97601 4.83437 7.0341 4.71875 7.05762L4.60059 7.06934C4.44052 7.06934 4.2871 7.00455 4.1748 6.89062C4.06293 6.77697 4.00012 6.62334 4 6.46387C3.99989 6.30074 3.93589 6.14357 3.82324 6.0293C3.71057 5.91507 3.55832 5.85167 3.40039 5.85156C3.28043 5.85156 3.16427 5.81515 3.06641 5.74902L2.97461 5.67285C2.86366 5.55998 2.80019 5.40774 2.7998 5.24805C2.79988 5.08844 2.86303 4.93384 2.97461 4.82031L3.06641 4.74414C3.16429 4.67798 3.2804 4.6416 3.40039 4.6416C3.55836 4.6415 3.71058 4.57712 3.82324 4.46289C3.9359 4.34858 3.99991 4.19241 4 4.0293C4.00008 3.86982 4.06288 3.71626 4.1748 3.60254C4.2871 3.48861 4.44052 3.42383 4.60059 3.42383L4.71875 3.43555ZM5.35645 4.70508C5.37099 4.71491 5.38625 4.72359 5.40137 4.73242C5.36378 4.71038 5.3278 4.68531 5.29395 4.65723L5.35645 4.70508ZM4.16504 4.26562C4.15751 4.29071 4.14951 4.31564 4.13965 4.33984C4.10973 4.41328 4.06867 4.48188 4.01855 4.54395C4.1017 4.44082 4.15895 4.31842 4.18457 4.18848L4.16504 4.26562ZM5.00488 4.10938L5.0166 4.18848C5.02017 4.20657 5.02454 4.22443 5.0293 4.24219C5.01768 4.19882 5.0093 4.15446 5.00488 4.10938Z" fill="#101828"/>
<path fill-rule="evenodd" clip-rule="evenodd" d="M14.6973 4.64648C14.9259 4.66932 15.1422 4.7707 15.3066 4.9375C15.4936 5.12732 15.5984 5.38462 15.5986 5.65137C15.5986 5.85115 15.5389 6.04703 15.4297 6.21289C15.3205 6.37843 15.1652 6.50992 14.9824 6.58691C14.799 6.66399 14.5955 6.68367 14.4014 6.64453C14.2066 6.60504 14.0287 6.50727 13.8896 6.36621C13.7507 6.22519 13.6558 6.04555 13.6172 5.84961C13.5789 5.65434 13.5978 5.45088 13.6729 5.2666C13.748 5.08265 13.8763 4.92325 14.041 4.81152L14.1699 4.73828C14.3037 4.6746 14.4505 4.6416 14.5986 4.6416L14.6973 4.64648ZM14.6768 4.8457C14.7031 4.84831 14.7291 4.85226 14.7549 4.85742C14.7038 4.84725 14.6514 4.84186 14.5986 4.8418L14.6768 4.8457Z" fill="#101828"/>
<path fill-rule="evenodd" clip-rule="evenodd" d="M11.1191 2.21777C11.2347 2.24135 11.3416 2.2994 11.4258 2.38477C11.5374 2.49829 11.6005 2.65188 11.6006 2.81152C11.6006 2.97453 11.6647 3.1307 11.7773 3.24512C11.8902 3.35938 12.0419 3.42362 12.1992 3.42383C12.3593 3.42383 12.5118 3.48887 12.624 3.60254C12.7359 3.71626 12.7997 3.86985 12.7998 4.0293C12.7995 4.1883 12.737 4.34333 12.625 4.45703C12.5131 4.57004 12.3593 4.63574 12.1992 4.63574C12.0416 4.63595 11.8901 4.69915 11.7773 4.81348C11.6646 4.92789 11.6007 5.08404 11.6006 5.24707C11.6002 5.40669 11.5371 5.56023 11.4268 5.67285C11.3145 5.78676 11.1604 5.8513 11.001 5.85156C10.8811 5.85156 10.7648 5.81511 10.667 5.74902L10.5752 5.67285C10.4639 5.55983 10.4008 5.40772 10.4004 5.24805C10.4003 5.12621 10.3642 5.00704 10.2988 4.90723L10.2236 4.81348C10.111 4.69924 9.95795 4.63579 9.7998 4.63574C9.67984 4.63566 9.56356 4.59929 9.46582 4.5332L9.375 4.45703C9.2629 4.34331 9.20049 4.18938 9.2002 4.03027C9.20027 3.87066 9.26307 3.71621 9.375 3.60254C9.4872 3.48871 9.63989 3.42394 9.7998 3.42383C9.958 3.42378 10.111 3.35942 10.2236 3.24512L10.2988 3.15234C10.3644 3.0525 10.4004 2.93383 10.4004 2.81152C10.4005 2.65198 10.4632 2.4985 10.5752 2.38477C10.6873 2.27117 10.8409 2.20605 11.001 2.20605L11.1191 2.21777ZM12.5684 4.18457C12.5601 4.20473 12.5494 4.22357 12.5381 4.24219C12.5632 4.20114 12.5824 4.15675 12.5918 4.10938L12.5684 4.18457ZM9.7998 3.62402L9.87891 3.62012C9.89111 3.61889 9.90294 3.61507 9.91504 3.61328C9.87698 3.61895 9.83868 3.62401 9.7998 3.62402ZM10.3662 3.38574L10.4189 3.32617C10.4291 3.31363 10.4379 3.3002 10.4473 3.28711C10.4226 3.32166 10.3963 3.3552 10.3662 3.38574Z" fill="#101828"/>
<path fill-rule="evenodd" clip-rule="evenodd" d="M6.59766 1.7998C6.8638 1.79981 7.11836 1.90763 7.30566 2.09766C7.49268 2.28747 7.59757 2.54429 7.59766 2.81152C7.5976 3.01163 7.53858 3.20664 7.42969 3.37207C7.32043 3.53796 7.16457 3.66804 6.98145 3.74512C6.79958 3.82154 6.59775 3.84398 6.40234 3.80469C6.20785 3.76544 6.02919 3.66782 5.88965 3.52637C5.75006 3.38475 5.65459 3.20355 5.61621 3.00781C5.57785 2.81142 5.59916 2.60889 5.67383 2.42578L5.74023 2.29199C5.81576 2.16463 5.91896 2.05508 6.04199 1.97168C6.20561 1.86092 6.39849 1.7998 6.59766 1.7998Z" fill="#101828"/>
<path d="M14.7578 11.5575C15.0187 11.5764 15.2161 11.8197 15.1979 12.1005L14.8085 18.2882C14.7914 18.5596 14.5807 18.7677 14.3315 18.7651C14.3224 18.765 14.3133 18.7644 14.3046 18.7638C14.0436 18.7451 13.8464 18.5016 13.8645 18.2208L14.253 12.0323C14.2713 11.7506 14.5107 11.5384 14.7578 11.5575Z" fill="#101828"/>
<path d="M12.2918 11.5308C12.5534 11.5336 12.7629 11.7637 12.76 12.0456L12.6953 18.2369C12.6924 18.5188 12.4787 18.745 12.2171 18.7424C11.9555 18.7396 11.7461 18.5095 11.7489 18.2276L11.8127 12.0355C11.8158 11.7536 12.0302 11.5281 12.2918 11.5308Z" fill="#101828"/>
<path d="M9.82594 11.5058C10.0627 11.4904 10.3084 11.7089 10.3204 11.9909L10.5805 18.1865C10.5927 18.4675 10.3907 18.706 10.1295 18.7193C10.1207 18.7197 10.1111 18.7207 10.1019 18.7206C9.85282 18.7178 9.64663 18.5058 9.63503 18.2342L9.375 12.0395C9.36268 11.7583 9.56463 11.5191 9.82594 11.5058Z" fill="#101828"/>
</svg>
