<svg xmlns="http://www.w3.org/2000/svg" fill="none" viewBox="0 0 157 154"><g clip-path="url(#error-2_svg-clip0_11575_22811)"><path fill="#EAEEF9" d="M122.09 105.26a43 43 0 0 1-6.64 5.19c-21.65 14.41-47.27 10.21-52.72 9.19-8.04-1.52-23.58-4.45-34.82-16.71-17-18.56-14.35-47.79-1.16-67.09 2.4-3.53 15.15-23.12 41.05-26.26 15.67-1.9 33.94 1.93 47.17 12.22 27.77 21.6 25.8 65.22 7.12 83.46"/><path fill="#D6DCE8" d="M23.98 41.83a.76.76 0 0 1-.97-.35q-.6-1.16-1.12-2.37a.77.77 0 0 1 .4-1l.02-.01a.77.77 0 0 1 1 .4q.48 1.16 1.07 2.26c.2.37.05.84-.32 1.04zm-2.46-6.24-.09.03a.76.76 0 0 1-.94-.55q-.34-1.27-.57-2.56a.77.77 0 1 1 1.5-.28q.23 1.23.55 2.44c.1.38-.1.78-.45.92m-1.03-6.63-.25.05a.8.8 0 0 1-.8-.74q-.05-1.31 0-2.62a.77.77 0 0 1 .8-.73c.43.02.76.38.73.8a30 30 0 0 0 0 2.5.8.8 0 0 1-.48.74m.48-6.7a1 1 0 0 1-.43.05.8.8 0 0 1-.61-.9q.24-1.3.59-2.56a.77.77 0 1 1 1.48.4q-.34 1.2-.57 2.44a.7.7 0 0 1-.46.57m1.96-6.42a.77.77 0 0 1-1-1.02q.53-1.2 1.15-2.36a.77.77 0 1 1 1.35.73q-.6 1.1-1.08 2.24a.8.8 0 0 1-.42.41m3.32-5.82a.8.8 0 0 1-.75-.09.77.77 0 0 1-.16-1.07q.77-1.06 1.63-2.05a.77.77 0 1 1 1.16 1q-.82.95-1.55 1.95-.14.17-.33.26m25.4-12.26q-.15.06-.33.06-1.24-.06-2.48 0a.77.77 0 0 1-.06-1.54q1.3-.06 2.6 0a.77.77 0 0 1 .26 1.48M30.76 5.08a.8.8 0 0 1-.87-.21.77.77 0 0 1 .08-1.09q.98-.86 2.04-1.63a.77.77 0 0 1 1.07.17c.25.34.18.82-.16 1.07q-1 .75-1.95 1.55zm14.2-6.85-.14.04q-1.22.23-2.43.56a.76.76 0 0 1-.94-.54.77.77 0 0 1 .54-.94q1.27-.35 2.55-.59a.77.77 0 0 1 .42 1.47m-8.7 3.05a.77.77 0 0 1-.65-1.4q1.16-.6 2.36-1.13h.01a.77.77 0 0 1 .6 1.42q-1.16.5-2.25 1.08zm39.7 10.95a.8.8 0 0 1-.95-.31q-.3-.52-.64-1.02a.77.77 0 1 1 1.28-.85q.36.53.68 1.07a.8.8 0 0 1-.37 1.11M61.57 55.54l-1 .39a.76.76 0 0 1-.97-.46.77.77 0 0 1 .45-1 31 31 0 0 0 2.27-.92.77.77 0 0 1 .64 1.4zm-4.88 1.52-.13.03q-1.27.28-2.53.45a.77.77 0 0 1-.2-1.53q1.2-.16 2.4-.42c.42-.1.83.17.92.6a.8.8 0 0 1-.46.87m9.81-4.07a.8.8 0 0 1-.93-.3.77.77 0 0 1 .23-1.06q1.03-.66 2-1.41a.76.76 0 0 1 1.08.14c.26.34.2.82-.14 1.08a34 34 0 0 1-2.24 1.55m-16.35 4.75a1 1 0 0 1-.3.05q-1.29 0-2.57-.13a.76.76 0 0 1-.7-.83.76.76 0 0 1 .84-.7q1.22.12 2.44.12a.77.77 0 0 1 .29 1.49m21.46-8.9a.77.77 0 0 1-.83-1.26q.86-.87 1.64-1.81a.77.77 0 1 1 1.18.98q-.82.99-1.73 1.92a1 1 0 0 1-.26.17m4.08-5.17a.8.8 0 0 1-.7-.06.77.77 0 0 1-.24-1.07q.66-1.03 1.21-2.13a.76.76 0 0 1 1.04-.33c.38.2.52.66.33 1.04a31 31 0 0 1-1.28 2.24.7.7 0 0 1-.36.3m2.86-5.96a.77.77 0 0 1-1-.97q.4-1.15.71-2.35c.11-.4.53-.65.94-.54s.65.52.54.93q-.32 1.25-.75 2.47a.7.7 0 0 1-.44.46m1.5-6.43q-.17.08-.38.05a.77.77 0 0 1-.67-.85q.14-1.22.2-2.45a.77.77 0 1 1 1.54.05q-.06 1.3-.21 2.58a.8.8 0 0 1-.48.62m.06-6.6-.22.05a.77.77 0 0 1-.84-.69q-.12-1.22-.35-2.43a.77.77 0 1 1 1.5-.29q.25 1.27.38 2.56a.8.8 0 0 1-.47.8m-1.4-6.46-.04.02a.77.77 0 0 1-.98-.49q-.28-.86-.62-1.7l-.25-.6a.76.76 0 0 1 .41-1 .75.75 0 0 1 1 .4q.14.3.26.63.36.88.66 1.78c.13.4-.06.81-.44.96M43.59 56.96a1 1 0 0 1-.46.04q-.61-.14-1.22-.32a.77.77 0 0 1-.54-.95.77.77 0 0 1 .95-.53l1.15.3a.77.77 0 0 1 .12 1.46" opacity=".3"/><path fill="#E2E6EF" d="M41.22 48.28q.22.11.42-.04l3.23-2.94q2.97.83 6.13.68l2.51 3.57q.16.2.4.14l5.03-1.47a.4.4 0 0 0 .25-.32l.22-4.37a19 19 0 0 0 4.81-3.87l4.3.74q.25.03.38-.18l2.52-4.6a.4.4 0 0 0-.05-.42l-2.93-3.25q.85-2.97.69-6.15l3.56-2.52a.4.4 0 0 0 .13-.4l-1.46-5.04a.4.4 0 0 0-.32-.26l-4.36-.22a19 19 0 0 0-3.85-4.83l.74-4.32a.4.4 0 0 0-.18-.37L58.8 5.3a.4.4 0 0 0-.42.05L55.15 8.3q-2.97-.83-6.13-.68l-2.51-3.58a.4.4 0 0 0-.4-.13l-5.03 1.46a.4.4 0 0 0-.25.33l-.22 4.37a19 19 0 0 0-4.81 3.87l-4.3-.74a.4.4 0 0 0-.38.18l-2.52 4.6q-.12.23.05.42l2.93 3.25a19 19 0 0 0-.69 6.15l-3.56 2.52a.4.4 0 0 0-.13.4l1.46 5.04q.08.24.32.26l4.36.22a19 19 0 0 0 3.85 4.83l-.74 4.32q-.03.24.18.37z"/><path fill="#fff" d="M51.97 31.7a5.26 5.26 0 0 1-6.5-2.23 5.3 5.3 0 0 1 1.87-7.23 5.23 5.23 0 0 1 7.2 1.89 5.3 5.3 0 0 1-2.57 7.57m-3.46-8.67q-.28.12-.54.27a4.07 4.07 0 0 0-1.44 5.54 4.04 4.04 0 1 0 6.97-4.1 4 4 0 0 0-5-1.7" opacity=".56"/><path fill="#fff" d="M54.92 38.73q-.62.25-1.26.44l-.4.11q-1.02.27-2.05.35h-.03l-.08.01-.15.01a.3.3 0 0 1-.33-.28.3.3 0 0 1 .28-.33 12.36 12.36 0 0 0 5.1-23.2 12.2 12.2 0 0 0-9.38-1.03 12.4 12.4 0 0 0-4.97 20.95l.08.1q.06.18-.06.33a.3.3 0 0 1-.43.02 13 13 0 0 1-3.62-5.9 13 13 0 0 1 8.82-16.1 12.8 12.8 0 0 1 9.85 1.1 13 13 0 0 1 6.2 7.77 13 13 0 0 1-1.1 9.88 12.8 12.8 0 0 1-6.47 5.77" opacity=".56"/></g><path fill="#F7F9FF" d="M123.5 50.66H19.85a4.4 4.4 0 0 0-4.29 4.28v71.33c0 2.28 2 1.45 4.29 1.45h103.4c2.27 0 4.28.83 4.28-1.45V54.94c.27-2.28-1.73-4.28-4.01-4.28"/><path fill="#F4F7FC" d="M140.86 123.71V126a5 5 0 0 1-4.84 4.84H7.4A5 5 0 0 1 2.56 126v-2.28z"/><path fill="#fff" d="M84.94 123.71v.83a2.8 2.8 0 0 1-2.83 2.83H61.03a2.8 2.8 0 0 1-2.83-2.83v-.83z"/><g filter="url(#error-2_svg-filter0_d_11575_22811)"><path fill="url(#error-2_svg-paint0_linear_11575_22811)" d="M115.42 59.99v56.53a4.47 4.47 0 0 1-4.42 4.29H27.23a4.34 4.34 0 0 1-4.42-4.29V60a4.34 4.34 0 0 1 4.42-4.29h83.84a4.3 4.3 0 0 1 4.35 4.29"/></g><path fill="#D6DCE8" d="M27.86 62.2c.82 0 1.52-.7 1.52-1.52s-.7-1.52-1.52-1.52-1.52.69-1.52 1.52.69 1.52 1.52 1.52m4.49 0c.83 0 1.52-.7 1.52-1.52s-.7-1.52-1.52-1.52-1.52.69-1.52 1.52.69 1.52 1.52 1.52"/><path fill="#F1F3F9" d="M36.98 62.2c.83 0 1.52-.7 1.52-1.52s-.7-1.52-1.52-1.52-1.52.69-1.52 1.52.69 1.52 1.52 1.52"/><g filter="url(#error-2_svg-filter1_d_11575_22811)"><path fill="url(#error-2_svg-paint1_linear_11575_22811)" d="M124.96 50.52v56.81a4.36 4.36 0 0 1-4.35 4.01H36.77a4.34 4.34 0 0 1-4.42-4.28V50.52a4.34 4.34 0 0 1 4.42-4.28h83.84a4.24 4.24 0 0 1 4.35 4.28"/></g><path fill="#D6DCE8" d="M37.4 52.73c.82 0 1.51-.69 1.51-1.52s-.69-1.52-1.52-1.52-1.52.7-1.52 1.52.7 1.52 1.52 1.52m4.5 0c.82 0 1.52-.69 1.52-1.52s-.7-1.52-1.52-1.52-1.53.7-1.53 1.52.7 1.52 1.53 1.52"/><path fill="#F1F3F9" d="M46.52 52.73c.83 0 1.52-.69 1.52-1.52s-.7-1.52-1.52-1.52-1.52.7-1.52 1.52.69 1.52 1.52 1.52"/><g filter="url(#error-2_svg-filter2_d_11575_22811)"><path fill="url(#error-2_svg-paint2_linear_11575_22811)" d="M134.77 98.9a4.47 4.47 0 0 1-4.42 4.28H46.58a4.34 4.34 0 0 1-4.42-4.28V42.37a4.34 4.34 0 0 1 4.42-4.29h83.84a4.34 4.34 0 0 1 4.42 4.29V98.9z"/></g><g clip-path="url(#error-2_svg-clip1_11575_22811)"><path fill="#D6DCE8" d="M91.5 94.03a21.5 21.5 0 1 0 0-43 21.5 21.5 0 0 0 0 43"/><path fill="#fff" d="M91.5 90.12a17.6 17.6 0 1 0 0-35.18 17.6 17.6 0 0 0 0 35.18"/><path fill="#D6DCE8" d="M90.65 57.36v6.45c-1.78.17-3.4.88-4.72 1.95l-4.56-4.56a15 15 0 0 1 9.28-3.84m16.02 14.32h-6.45a8.7 8.7 0 0 0-1.95-4.71l4.56-4.57a15 15 0 0 1 3.84 9.28m-9.61-5.92a9 9 0 0 0-4.71-1.95v-6.45a15.2 15.2 0 0 1 9.28 3.84zm-14.27 5.92h-6.46a15 15 0 0 1 3.84-9.28l4.56 4.57a8.7 8.7 0 0 0-1.94 4.71m23.88 1.7a15 15 0 0 1-3.84 9.28l-4.56-4.57a8.7 8.7 0 0 0 1.95-4.7z"/><path fill="#CBE7FF" d="m84.73 78.09-4.56 4.57a15 15 0 0 1-3.84-9.28h6.45c.18 1.78.88 3.4 1.95 4.7"/><path fill="#0272D5" d="m83.43 79.37 7.52-3.92-1.6-2.38-6.45 5.52a.47.47 0 0 0 .53.79"/><path fill="#0272D5" d="M91.8 75.86a2.87 2.87 0 1 0 0-5.74 2.87 2.87 0 0 0 0 5.74"/><path fill="#EDF3F3" d="M91.8 74.61a1.62 1.62 0 1 0 0-3.23 1.62 1.62 0 0 0 0 3.23"/><path fill="#CBE7FF" d="M91.8 73.84a.85.85 0 1 0 0-1.7.85.85 0 0 0 0 1.7"/><path fill="#D6DCE8" d="M93.76 80.68h-3.93a.62.62 0 0 1 0-1.23h3.93a.62.62 0 1 1 0 1.23"/></g><path fill="#AAB2C5" d="M47.2 44.65c.84 0 1.53-.7 1.53-1.53 0-.82-.7-1.58-1.52-1.58s-1.52.69-1.52 1.52c0 .82.69 1.59 1.52 1.59m4.49 0c.83 0 1.52-.7 1.52-1.53 0-.82-.7-1.58-1.52-1.58s-1.52.69-1.52 1.52c0 .82.69 1.59 1.52 1.59m4.63 0c.83 0 1.52-.7 1.52-1.53 0-.82-.7-1.58-1.52-1.58s-1.52.69-1.52 1.52c0 .82.62 1.59 1.52 1.59"/><path fill="#D6DCE8" d="M62 62.54c0 1.39-1.08 2.5-2.42 2.5a2.45 2.45 0 0 1-2.42-2.5c0-1.05 1.45-4.2 2.1-5.6.1-.27.48-.27.64 0 .65 1.34 2.1 4.5 2.1 5.6m85.77-12.92a2.8 2.8 0 0 1 .2 3.94 2.8 2.8 0 0 1-3.94.2c-.9-.75-2.41-4.34-3.04-5.93-.13-.28.14-.63.49-.56 1.66.42 5.39 1.52 6.29 2.35m-.42 12.23a2.7 2.7 0 0 1-.83 3.8 2.7 2.7 0 0 1-3.8-.82c-.62-.97-1.17-4.84-1.38-6.57-.07-.34.34-.55.62-.41 1.45.9 4.77 2.97 5.4 4m-90.89 6.91c0 1.39-1.08 2.5-2.42 2.5a2.45 2.45 0 0 1-2.42-2.5c0-1.05 1.45-4.2 2.1-5.6.1-.27.48-.27.64 0 .65 1.4 2.1 4.55 2.1 5.6"/><path fill="#0272D5" d="M123.5 81.7h14.66c.9 0 1.73.34 2.35.96l10.37 10.37c.62.62.97 1.45.97 2.35v14.58c0 .9-.35 1.73-.97 2.35l-10.23 10.23c-.62.62-1.45.96-2.35.96h-14.8a3.3 3.3 0 0 1-2.34-.96l-10.5-10.5a3.3 3.3 0 0 1-.97-2.36v-14.3c0-.9.34-1.73.96-2.35l10.44-10.37a3.6 3.6 0 0 1 2.42-.97"/><path fill="#fff" d="M133.25 90.01v6.94q.01.67-.06 1.45l-.77 4.96a.9.9 0 0 1-.9.72H130a1 1 0 0 1-.9-.72l-.75-4.96q-.09-.67-.07-1.45V90a.9.9 0 0 1 .9-.86h3.24c.42.07.83.4.83.86m-.83 24.52h-3.38c-.55 0-1.04-.48-1.04-1.04v-3.39c0-.55.49-1.03 1.04-1.03h3.38c.56 0 1.04.48 1.04 1.03v3.4c0 .55-.48 1.03-1.04 1.03"/><defs><linearGradient id="error-2_svg-paint0_linear_11575_22811" x1="69.09" x2="69.09" y1="54.2" y2="121.51" gradientUnits="userSpaceOnUse"><stop stop-color="#FDFEFF"/><stop offset="1" stop-color="#ECF0F5"/></linearGradient><linearGradient id="error-2_svg-paint1_linear_11575_22811" x1="78.62" x2="78.62" y1="44.73" y2="112.04" gradientUnits="userSpaceOnUse"><stop stop-color="#FDFEFF"/><stop offset="1" stop-color="#ECF0F5"/></linearGradient><linearGradient id="error-2_svg-paint2_linear_11575_22811" x1="88.47" x2="88.47" y1="36.57" y2="103.89" gradientUnits="userSpaceOnUse"><stop stop-color="#FDFEFF"/><stop offset="1" stop-color="#ECF0F5"/></linearGradient><filter id="error-2_svg-filter0_d_11575_22811" width="136.61" height="109.11" x=".81" y="44.7" color-interpolation-filters="sRGB" filterUnits="userSpaceOnUse"><feFlood flood-opacity="0" result="BackgroundImageFix"/><feColorMatrix in="SourceAlpha" result="hardAlpha" values="0 0 0 0 0 0 0 0 0 0 0 0 0 0 0 0 0 0 127 0"/><feOffset dy="11"/><feGaussianBlur stdDeviation="11"/><feColorMatrix values="0 0 0 0 0.397708 0 0 0 0 0.47749 0 0 0 0 0.575 0 0 0 0.27 0"/><feBlend in2="BackgroundImageFix" result="effect1_dropShadow_11575_22811"/><feBlend in="SourceGraphic" in2="effect1_dropShadow_11575_22811" result="shape"/></filter><filter id="error-2_svg-filter1_d_11575_22811" width="136.61" height="109.11" x="10.35" y="35.24" color-interpolation-filters="sRGB" filterUnits="userSpaceOnUse"><feFlood flood-opacity="0" result="BackgroundImageFix"/><feColorMatrix in="SourceAlpha" result="hardAlpha" values="0 0 0 0 0 0 0 0 0 0 0 0 0 0 0 0 0 0 127 0"/><feOffset dy="11"/><feGaussianBlur stdDeviation="11"/><feColorMatrix values="0 0 0 0 0.397708 0 0 0 0 0.47749 0 0 0 0 0.575 0 0 0 0.27 0"/><feBlend in2="BackgroundImageFix" result="effect1_dropShadow_11575_22811"/><feBlend in="SourceGraphic" in2="effect1_dropShadow_11575_22811" result="shape"/></filter><filter id="error-2_svg-filter2_d_11575_22811" width="136.68" height="109.11" x="20.16" y="27.08" color-interpolation-filters="sRGB" filterUnits="userSpaceOnUse"><feFlood flood-opacity="0" result="BackgroundImageFix"/><feColorMatrix in="SourceAlpha" result="hardAlpha" values="0 0 0 0 0 0 0 0 0 0 0 0 0 0 0 0 0 0 127 0"/><feOffset dy="11"/><feGaussianBlur stdDeviation="11"/><feColorMatrix values="0 0 0 0 0.397708 0 0 0 0 0.47749 0 0 0 0 0.575 0 0 0 0.27 0"/><feBlend in2="BackgroundImageFix" result="effect1_dropShadow_11575_22811"/><feBlend in="SourceGraphic" in2="effect1_dropShadow_11575_22811" result="shape"/></filter><clipPath id="error-2_svg-clip0_11575_22811"><path fill="#fff" d="M0 0h136v121H0z"/></clipPath><clipPath id="error-2_svg-clip1_11575_22811"><path fill="#fff" d="M70 51.03h43v43H70z"/></clipPath></defs></svg>