<svg width="134" height="161" viewBox="0 0 134 161" fill="none" xmlns="http://www.w3.org/2000/svg">
<path d="M64.4233 118.594C91.7969 118.594 113.989 96.4015 113.989 68.9301C113.989 41.4587 91.6991 19.2665 64.4233 19.2665C37.0496 19.2665 14.8574 41.4587 14.8574 68.9301C14.8574 96.4015 37.0496 118.594 64.4233 118.594Z" fill="#EAEEF9"/>
<path d="M93.6338 19.2665C83.2422 39.7489 67.9889 47.8973 54.0085 52.7632C50.764 53.9081 47.2331 54.9099 43.8931 54.0512C40.5531 53.1925 37.6425 49.8055 38.5491 46.4661C39.3602 43.3652 43.3682 41.8387 46.2788 43.079C49.2371 44.3194 50.8594 47.7541 50.5731 50.9504C50.2868 54.1467 48.3305 56.9613 45.8494 58.9172C43.3205 60.8731 40.3145 62.0657 37.2608 62.9721C30.533 64.9758 23.519 65.9299 16.9821 68.4582C10.3976 70.9866 4.14697 75.5186 1.9044 82.1497C0.282106 86.8725 0.950108 92.2155 3.04954 96.6998C5.14898 101.184 8.72756 104.953 12.7356 107.958C18.8907 112.538 26.4773 115.4 34.1116 115.209C41.7459 115.019 49.4757 111.679 54.1994 105.668C58.9231 99.6575 60.3068 90.9275 56.9668 84.0102C54.6765 79.2397 49.4757 75.3278 44.2748 76.4727C40.1714 77.4268 37.1653 81.4341 36.7359 85.6799C36.3065 89.9256 38.1673 94.1237 40.9348 97.2723C43.7022 100.469 47.3762 102.711 51.1934 104.667C56.776 107.481 63.3606 109.628 69.134 107.243C74.6212 105.001 77.818 99.3236 79.9175 93.8375C82.0169 88.3514 83.5915 82.3882 87.4086 77.8562C91.9892 72.4178 99.7189 69.8894 106.638 71.5114C113.556 73.1334 119.377 78.858 121.095 85.7276C122.431 91.0706 120.809 97.7493 115.799 100.087C111.886 101.947 107.067 100.612 103.679 97.9401C100.292 95.2686 98.0012 91.4522 95.8064 87.7312" stroke="#D6DCE8" stroke-width="2" stroke-miterlimit="10" stroke-dasharray="4 4"/>
<g filter="url(#filter0_d_7698_14182)">
<path d="M55.1789 42.099C63.5326 44.9269 72.5971 40.4474 75.425 32.0937C78.2529 23.74 73.7734 14.6755 65.4197 11.8476C57.066 9.01965 48.0015 13.4992 45.1735 21.8529C42.3456 30.2066 46.8252 39.2711 55.1789 42.099Z" fill="url(#paint0_linear_7698_14182)"/>
</g>
<path d="M59.7561 28.5765C60.6415 28.8762 61.6023 28.4014 61.902 27.516C62.2018 26.6305 61.7269 25.6697 60.8415 25.37C59.9561 25.0703 58.9953 25.5451 58.6956 26.4305C58.3958 27.3159 58.8706 28.2767 59.7561 28.5765Z" fill="#989FB0"/>
<path fill-rule="evenodd" clip-rule="evenodd" d="M60.682 25.8436C60.0581 25.6324 59.3811 25.967 59.1699 26.5908C58.9587 27.2147 59.2933 27.8917 59.9172 28.1029C60.541 28.3141 61.218 27.9795 61.4292 27.3556C61.6404 26.7318 61.3058 26.0548 60.682 25.8436ZM58.2227 26.2702C58.611 25.1232 59.8556 24.5081 61.0026 24.8964C62.1496 25.2847 62.7647 26.5293 62.3764 27.6763C61.9881 28.8233 60.7435 29.4384 59.5965 29.0501C58.4495 28.6618 57.8344 27.4172 58.2227 26.2702Z" fill="#989FB0"/>
<path d="M62.5 20.2272L61 25.2272" stroke="#989FB0" stroke-width="2" stroke-miterlimit="10" stroke-linecap="round" stroke-linejoin="round"/>
<path d="M62.0837 26.9815L65.5005 27.2272" stroke="#989FB0" stroke-width="2" stroke-miterlimit="10" stroke-linecap="round" stroke-linejoin="round"/>
<path d="M64.0749 17.4972C64.3354 17.373 64.4334 17.0486 64.2938 16.7727C64.1542 16.4967 63.8298 16.3737 63.5693 16.4979C63.3088 16.6221 63.2108 16.9465 63.3504 17.2224C63.49 17.4983 63.8144 17.6213 64.0749 17.4972Z" fill="#989FB0"/>
<path fill-rule="evenodd" clip-rule="evenodd" d="M63.8029 16.9598C63.7832 16.9691 63.7758 16.9936 63.7864 17.0144C63.7969 17.0353 63.8214 17.0446 63.841 17.0352C63.8607 17.0258 63.8681 17.0013 63.8576 16.9805C63.847 16.9597 63.8225 16.9504 63.8029 16.9598ZM62.9142 17.4302C62.6455 16.8992 62.8342 16.275 63.3355 16.036C63.8368 15.797 64.4611 16.0338 64.7297 16.5648C64.9984 17.0957 64.8098 17.7199 64.3084 17.9589C63.8071 18.1979 63.1829 17.9612 62.9142 17.4302Z" fill="#989FB0"/>
<path d="M57.3171 37.4317C57.5776 37.3075 57.6756 36.9832 57.536 36.7072C57.3964 36.4313 57.072 36.3083 56.8115 36.4325C56.551 36.5567 56.453 36.881 56.5926 37.157C56.7322 37.4329 57.0566 37.5559 57.3171 37.4317Z" fill="#989FB0"/>
<path fill-rule="evenodd" clip-rule="evenodd" d="M57.0451 36.8943C57.0254 36.9037 57.018 36.9282 57.0285 36.949C57.0391 36.9698 57.0635 36.9791 57.0832 36.9698C57.1029 36.9604 57.1103 36.9359 57.0997 36.9151C57.0892 36.8942 57.0647 36.885 57.0451 36.8943ZM56.1564 37.3648C55.8877 36.8338 56.0763 36.2096 56.5777 35.9706C57.079 35.7316 57.7032 35.9683 57.9719 36.4993C58.2405 37.0303 58.0519 37.6545 57.5506 37.8935C57.0493 38.1325 56.425 37.8958 56.1564 37.3648Z" fill="#989FB0"/>
<path d="M50.7204 24.1097C50.9809 23.9855 51.0789 23.6611 50.9393 23.3852C50.7997 23.1093 50.4753 22.9863 50.2148 23.1105C49.9543 23.2346 49.8563 23.559 49.9959 23.8349C50.1355 24.1109 50.4599 24.2339 50.7204 24.1097Z" fill="#989FB0"/>
<path fill-rule="evenodd" clip-rule="evenodd" d="M50.4484 23.5724C50.4287 23.5818 50.4213 23.6063 50.4318 23.6271C50.4424 23.6479 50.4669 23.6572 50.4865 23.6478C50.5062 23.6385 50.5136 23.614 50.5031 23.5932C50.4925 23.5723 50.468 23.563 50.4484 23.5724ZM49.5597 24.0429C49.291 23.5119 49.4797 22.8877 49.981 22.6487C50.4823 22.4097 51.1066 22.6464 51.3752 23.1774C51.6439 23.7084 51.4552 24.3326 50.9539 24.5716C50.4526 24.8106 49.8284 24.5738 49.5597 24.0429Z" fill="#989FB0"/>
<path d="M70.655 30.8675C70.9155 30.7433 71.0135 30.4189 70.8739 30.143C70.7343 29.8671 70.4099 29.7441 70.1494 29.8683C69.8889 29.9925 69.7909 30.3168 69.9305 30.5928C70.0701 30.8687 70.3945 30.9917 70.655 30.8675Z" fill="#989FB0"/>
<path fill-rule="evenodd" clip-rule="evenodd" d="M70.3829 30.3303C70.3633 30.3397 70.3559 30.3641 70.3664 30.385C70.377 30.4058 70.4014 30.4151 70.4211 30.4057C70.4408 30.3963 70.4482 30.3718 70.4376 30.351C70.4271 30.3302 70.4026 30.3209 70.3829 30.3303ZM69.4943 30.8008C69.2256 30.2697 69.4142 29.6455 69.9156 29.4065C70.4169 29.1675 71.0411 29.4042 71.3098 29.9352C71.5784 30.4663 71.3898 31.0905 70.8885 31.3295C70.3871 31.5685 69.7629 31.3318 69.4943 30.8008Z" fill="#989FB0"/>
<path d="M12.301 46.8251L14.943 46.0288C15.1344 45.9732 15.1344 45.6955 14.943 45.6399L12.301 44.8436C12.2331 44.8251 12.1837 44.7757 12.1652 44.7078L11.3689 42.072C11.3133 41.8806 11.0356 41.8806 10.98 42.072L10.1837 44.7078C10.1652 44.7757 10.1158 44.8251 10.0479 44.8436L7.41207 45.6399C7.22071 45.6955 7.22071 45.9732 7.41207 46.0288L10.0541 46.8251C10.122 46.8436 10.1714 46.893 10.1899 46.9609L10.9862 49.6029C11.0417 49.7943 11.3195 49.7943 11.3751 49.6029L12.1714 46.9609C12.1837 46.893 12.2331 46.8436 12.301 46.8251Z" fill="#EAEEF9"/>
<path d="M96.5552 15.9003L99.2571 16.4606C99.4518 16.5031 99.5843 16.2589 99.4426 16.1188L97.5003 14.1587C97.4495 14.1101 97.4297 14.0431 97.4458 13.9746L98.0031 11.2781C98.0456 11.0834 97.8014 10.9509 97.6613 11.0926L95.7042 13.0294C95.6555 13.0803 95.5886 13.1001 95.5201 13.084L92.8236 12.5266C92.6289 12.4842 92.4964 12.7283 92.6381 12.8684L94.5803 14.8285C94.6312 14.8772 94.651 14.9442 94.6349 15.0127L94.0746 17.7146C94.0322 17.9093 94.2763 18.0417 94.4164 17.9001L96.3765 15.9578C96.4197 15.904 96.4867 15.8842 96.5552 15.9003Z" fill="#EAEEF9"/>
<path d="M94.8947 82.7402L96.959 80.9092C97.1094 80.7785 96.9929 80.5263 96.7958 80.5562L94.0635 80.9416C93.9941 80.9533 93.9286 80.9292 93.8833 80.8753L92.0548 78.8168C91.9241 78.6664 91.6719 78.7829 91.7018 78.9799L92.0845 81.7065C92.0962 81.7759 92.0721 81.8414 92.0182 81.8867L89.9595 83.7152C89.8091 83.8459 89.9257 84.0981 90.1227 84.0682L92.855 83.6828C92.9244 83.6711 92.9899 83.6952 93.0352 83.7491L94.8663 85.8132C94.997 85.9636 95.2492 85.8471 95.2193 85.6501L94.834 82.9179C94.8167 82.8511 94.8408 82.7855 94.8947 82.7402Z" fill="#D6DCE8"/>
<path d="M73.8721 64.0531L76.1839 63.3564C76.3513 63.3078 76.3513 63.0647 76.1839 63.0161L73.8721 62.3194C73.8127 62.3032 73.7695 62.26 73.7533 62.2006L73.0565 59.8944C73.0079 59.7269 72.7649 59.7269 72.7163 59.8944L72.0195 62.2006C72.0033 62.26 71.9601 62.3032 71.9007 62.3194L69.5943 63.0161C69.4269 63.0647 69.4269 63.3078 69.5943 63.3564L71.9061 64.0531C71.9655 64.0693 72.0087 64.1125 72.0249 64.1719L72.7217 66.4835C72.7703 66.651 73.0133 66.651 73.0619 66.4835L73.7587 64.1719C73.7695 64.1125 73.8127 64.0693 73.8721 64.0531Z" fill="#D6DCE8"/>
<path d="M29.5118 96.4887L31.8235 95.6924C31.991 95.6368 31.991 95.359 31.8235 95.3035L29.5118 94.5072C29.4524 94.4887 29.4092 94.4393 29.393 94.3714L28.6962 91.7356C28.6476 91.5442 28.4045 91.5442 28.3559 91.7356L27.6591 94.3714C27.6429 94.4393 27.5997 94.4887 27.5403 94.5072L25.234 95.3035C25.0665 95.359 25.0665 95.6368 25.234 95.6924L27.5457 96.4887C27.6051 96.5072 27.6483 96.5566 27.6646 96.6245L28.3613 99.2665C28.4099 99.4578 28.653 99.4578 28.7016 99.2665L29.3984 96.6245C29.4092 96.5566 29.4524 96.5072 29.5118 96.4887Z" fill="#D6DCE8"/>
<path d="M25.6922 57.3989L27.3434 56.9013C27.463 56.8665 27.463 56.6929 27.3434 56.6582L25.6922 56.1606C25.6497 56.149 25.6188 56.1181 25.6073 56.0757L25.1096 54.4284C25.0749 54.3088 24.9013 54.3088 24.8665 54.4284L24.3688 56.0757C24.3573 56.1181 24.3264 56.149 24.284 56.1606L22.6366 56.6582C22.517 56.6929 22.517 56.8665 22.6366 56.9013L24.2878 57.3989C24.3303 57.4105 24.3611 57.4413 24.3727 57.4838L24.8704 59.1349C24.9051 59.2545 25.0787 59.2545 25.1134 59.1349L25.6111 57.4838C25.6188 57.4413 25.6497 57.4105 25.6922 57.3989Z" fill="#D6DCE8"/>
<path d="M120.831 58.4895L122.482 57.9918C122.602 57.9571 122.602 57.7835 122.482 57.7488L120.831 57.2511C120.788 57.2396 120.758 57.2087 120.746 57.1663L120.248 55.519C120.214 55.3994 120.04 55.3994 120.005 55.519L119.508 57.1663C119.496 57.2087 119.465 57.2396 119.423 57.2511L117.775 57.7488C117.656 57.7835 117.656 57.9571 117.775 57.9918L119.426 58.4895C119.469 58.5011 119.5 58.5319 119.511 58.5743L120.009 60.2255C120.044 60.3451 120.217 60.3451 120.252 60.2255L120.75 58.5743C120.758 58.5319 120.788 58.5011 120.831 58.4895Z" fill="#EAEEF9"/>
<path d="M37.8972 34.381L39.5485 33.8833C39.6681 33.8486 39.6681 33.675 39.5485 33.6403L37.8972 33.1426C37.8548 33.131 37.8239 33.1002 37.8124 33.0578L37.3147 31.4105C37.2799 31.2909 37.1063 31.2909 37.0716 31.4105L36.5739 33.0578C36.5623 33.1002 36.5315 33.131 36.489 33.1426L34.8417 33.6403C34.7221 33.675 34.7221 33.8486 34.8417 33.8833L36.4929 34.381C36.5353 34.3925 36.5662 34.4234 36.5778 34.4658L37.0755 36.1169C37.1102 36.2365 37.2838 36.2365 37.3185 36.1169L37.8162 34.4658C37.8239 34.4234 37.8548 34.3925 37.8972 34.381Z" fill="#D6DCE8"/>
<path d="M13.3064 89.8305L14.9577 89.3329C15.0773 89.2982 15.0773 89.1246 14.9577 89.0899L13.3064 88.5922C13.264 88.5806 13.2331 88.5498 13.2215 88.5073L12.7238 86.8601C12.6891 86.7405 12.5155 86.7405 12.4808 86.8601L11.9831 88.5073C11.9715 88.5498 11.9407 88.5806 11.8982 88.5922L10.2508 89.0899C10.1312 89.1246 10.1312 89.2982 10.2508 89.3329L11.9021 89.8305C11.9445 89.8421 11.9754 89.873 11.987 89.9154L12.4846 91.5665C12.5194 91.6861 12.693 91.6861 12.7277 91.5665L13.2254 89.9154C13.2331 89.873 13.264 89.8421 13.3064 89.8305Z" fill="#EAEEF9"/>
<path d="M74.5356 109.274C74.5356 109.274 64.4216 118.652 63.7422 118.7C63.2927 118.873 59.3138 120.523 56.7792 121.588L56.1085 120.631C55.7731 120.153 55.4377 119.675 55.1309 119.034C55.255 118.805 55.3121 118.479 55.3692 118.154C56.6664 114.105 60.698 107.853 69.1952 108.169L74.5356 109.274Z" fill="#F1F3F9" stroke="#D6DCE8" stroke-width="1.9781" stroke-miterlimit="10" stroke-linecap="round" stroke-linejoin="round"/>
<g filter="url(#filter1_d_7698_14182)">
<path d="M58.6927 64.3176L61.9795 69.0029C62.9186 70.3416 63.5608 71.4604 64.0503 72.9718C65.8828 77.8212 65.1993 83.1516 62.6776 87.4887C62.2095 88.2451 61.9712 89.1256 62.0868 89.9006C62.1068 90.7426 62.3565 91.7088 62.8932 92.4737C63.9664 94.0036 65.766 94.7385 67.5742 94.4688C73.3812 93.3912 79.3539 95.1936 83.4441 99.6006C83.9422 100.107 84.3446 100.681 84.8142 101.35L88.101 106.036C88.5034 106.609 88.8103 107.25 89.1456 107.728L61.034 127.449C60.603 127.038 60.1335 126.368 59.7981 125.89L56.5113 121.205C56.1759 120.727 55.9362 120.182 55.6008 119.704C55.4666 119.512 55.361 119.159 55.1598 118.872C52.5709 113.554 52.8805 107.487 55.8418 102.557C56.7779 101.044 56.6324 99.0058 55.5591 97.4759C55.0896 96.8066 54.3617 96.1758 53.5768 95.8704C53.5097 95.7748 53.4141 95.8419 53.4141 95.8419C52.6292 95.5365 51.7872 95.5565 50.9451 95.5765C47.0419 96.3172 43.0416 95.6993 39.4324 93.8084C38.5133 93.3117 37.5942 92.8151 36.7993 92.0887C36.5695 91.9645 36.3682 91.6777 36.2341 91.4864C35.3721 90.6644 34.443 89.7468 33.7052 88.695L30.4184 84.0097C30.3513 83.9141 30.2172 83.7229 30.083 83.5316L58.3859 63.6768C58.4915 64.0308 58.5586 64.1264 58.6927 64.3176Z" fill="url(#paint1_linear_7698_14182)"/>
</g>
<path d="M56.5314 83.811L45.3641 92.5011L39.5956 93.8369C38.6765 93.3403 37.7574 92.8437 36.9625 92.1173C36.7327 91.9931 36.5315 91.7062 36.3973 91.515C39.4828 86.3544 42.3213 83.0791 50.5773 81.4249C51.9645 81.1652 53.2561 80.9725 54.8059 80.7413C68.6021 79.0528 56.5314 83.811 56.5314 83.811Z" fill="#BAC3D1"/>
<path d="M64.1176 73.0674C65.9501 77.9168 65.2665 83.2472 62.7448 87.5844C62.2767 88.3408 62.0384 89.2213 62.154 89.9962L62.0584 90.0633C60.5285 91.1365 60.1289 93.4143 61.2022 94.9442L71.1966 109.191L68.4237 111.136L58.3622 96.7938C57.2889 95.2639 55.1068 94.7972 53.4813 95.9375C52.6964 95.6321 51.8544 95.6521 51.0124 95.6721C47.1091 96.4129 43.1088 95.795 39.4996 93.904C38.5805 93.4074 37.6614 92.9108 36.8665 92.1844C45.3808 90.4917 48.2464 85.6279 50.4528 81.6547C51.1692 80.4388 51.79 79.2899 52.4778 78.2367C55.2008 74.1864 59.2182 72.7949 64.1176 73.0674Z" fill="#D5DDEA"/>
<path d="M84.7178 101.417L88.0046 106.103C88.407 106.676 88.7139 107.317 89.0493 107.795L63.9974 125.369L59.3949 125.317L56.4435 121.109C56.1081 120.631 55.7727 120.153 55.5329 119.608C55.3988 119.417 55.2932 119.063 55.0919 118.776C55.1876 118.709 55.2546 118.805 55.3503 118.738C55.513 118.766 55.6086 118.699 55.7042 118.632C65.022 116.661 67.5137 111.061 69.8727 106.695C70.2452 106.006 70.7133 105.249 71.1528 104.656C74.0385 100.634 78.2186 99.271 83.2807 99.5721C83.7502 100.241 84.2483 100.748 84.7178 101.417Z" fill="#D5DDEA"/>
<path d="M60.9899 64.133L29.6273 86.1342C28.9579 86.6037 27.9818 86.4325 27.5793 85.8588L25.4329 82.799C24.9633 82.1297 25.2016 81.2491 25.871 80.7796L57.3292 58.7113C57.9985 58.2418 58.9076 58.3174 59.3772 58.9867L61.4566 61.9509C61.7349 62.7544 61.6592 63.6634 60.9899 64.133Z" fill="url(#paint2_linear_7698_14182)"/>
<path d="M92.6494 109.265L61.2868 131.266C60.6174 131.736 59.7083 131.66 59.2388 130.991L57.1594 128.027C56.6899 127.357 56.9282 126.477 57.5975 126.007L89.0558 103.939C89.7251 103.47 90.6342 103.545 91.1037 104.215L93.1831 107.179C93.4614 107.982 93.3187 108.796 92.6494 109.265Z" fill="url(#paint3_linear_7698_14182)"/>
<path d="M93.8336 60.4872C93.8336 60.4872 87.0032 57.9361 86.8191 57.6267C86.6308 57.4554 84.907 55.9677 83.8025 55.0232L84.0949 54.4794C84.2411 54.2075 84.3873 53.9356 84.6171 53.6386C84.7551 53.6427 84.9224 53.5924 85.0896 53.5421C87.31 53.1937 91.2202 53.6138 93.0877 57.7026L93.8336 60.4872Z" fill="#F1F3F9" stroke="#D6DCE8" stroke-width="1.9781" stroke-miterlimit="10" stroke-linecap="round" stroke-linejoin="round"/>
<g filter="url(#filter2_d_7698_14182)">
<path d="M111.307 42.3321L109.874 44.9967C109.465 45.758 109.089 46.327 108.491 46.917C106.636 48.9337 103.956 49.8761 101.309 49.7146C100.84 49.673 100.368 49.7695 100.029 50.0081C99.6362 50.2174 99.2391 50.5647 99.0052 50.9997C98.5373 51.8698 98.6174 52.8943 99.174 53.6844C101.061 56.1715 101.628 59.4204 100.517 62.3985C100.396 62.754 100.221 63.0803 100.016 63.461L98.5832 66.1256C98.4078 66.4519 98.178 66.749 98.0318 67.0209L82.0439 58.424C82.1357 58.1228 82.3404 57.7421 82.4866 57.4702L83.9194 54.8056C84.0656 54.5337 84.2662 54.291 84.4124 54.0191C84.4709 53.9104 84.613 53.7765 84.7007 53.6133C86.5978 51.1282 89.5369 49.8343 92.5688 50.0626C93.5056 50.1457 94.4337 49.5931 94.9015 48.723C95.1062 48.3424 95.2314 47.8488 95.1893 47.4056C95.2185 47.3512 95.1642 47.322 95.1642 47.322C95.1221 46.8787 94.9128 46.4858 94.7034 46.0928C93.427 44.425 92.7693 42.3888 92.8057 40.2352C92.8221 39.6832 92.8385 39.1311 92.9929 38.5832C92.997 38.4452 93.0847 38.2821 93.1432 38.1733C93.3269 37.571 93.5398 36.9144 93.8614 36.3162L95.2942 33.6515C95.3235 33.5972 95.3819 33.4884 95.4404 33.3796L111.537 42.035C111.395 42.1689 111.366 42.2233 111.307 42.3321Z" fill="url(#paint4_linear_7698_14182)"/>
</g>
<path d="M101.587 45.9383L94.8318 42.7264L92.8315 40.3189C92.8479 39.7669 92.8643 39.2149 93.0187 38.667C93.0228 38.529 93.1105 38.3658 93.169 38.257C96.339 38.4894 98.5598 39.0526 101.301 42.5596C101.753 43.1532 102.151 43.7175 102.628 44.3946C106.7 50.5103 101.587 45.9383 101.587 45.9383Z" fill="#BAC3D1"/>
<path d="M108.462 46.9713C106.607 48.9881 103.927 49.9305 101.28 49.769C100.811 49.7274 100.339 49.8239 100 50.0624L99.9459 50.0332C99.0758 49.5653 97.9051 49.9173 97.4372 50.7874L93.0803 58.8901L91.5033 58.0421L95.8894 49.885C96.3573 49.0149 96.0597 47.8735 95.1353 47.3764C95.0932 46.9331 94.8839 46.5401 94.6745 46.1472C93.3981 44.4794 92.7404 42.4432 92.7768 40.2895C92.7932 39.7375 92.8096 39.1855 92.964 38.6376C95.7847 42.2574 98.7622 42.4564 101.163 42.5554C101.907 42.6052 102.597 42.6257 103.258 42.7005C105.817 43.0252 107.428 44.5925 108.462 46.9713Z" fill="#D5DDEA"/>
<path d="M99.9622 63.4317L98.5294 66.0964C98.354 66.4226 98.1241 66.7197 97.9779 66.9916L83.7302 59.3304L82.6626 57.1439L83.9492 54.7512C84.0954 54.4793 84.2416 54.2074 84.4422 53.9647C84.5007 53.856 84.6428 53.7221 84.7305 53.5589C84.7849 53.5882 84.7556 53.6425 84.81 53.6718C84.8352 53.7554 84.8895 53.7846 84.9439 53.8139C88.0867 57.7472 91.3234 57.5947 93.9454 57.6727C94.3594 57.685 94.8278 57.7265 95.2126 57.7932C97.7972 58.2015 99.4332 59.8524 100.493 62.3149C100.288 62.6955 100.167 63.0511 99.9622 63.4317Z" fill="#D5DDEA"/>
<path d="M111.939 43.373L94.1026 33.7819C93.722 33.5772 93.5711 33.0755 93.7466 32.7492L94.6823 31.009C94.887 30.6283 95.3595 30.5319 95.7402 30.7366L113.631 40.3569C114.012 40.5616 114.192 41.009 113.987 41.3896L113.081 43.0754C112.767 43.3976 112.32 43.5777 111.939 43.373Z" fill="url(#paint5_linear_7698_14182)"/>
<path d="M98.1377 69.0407L80.3008 59.4496C79.9202 59.2449 79.7401 58.7975 79.9448 58.4169L80.8513 56.7311C81.0559 56.3504 81.5284 56.2539 81.9091 56.4586L99.8003 66.079C100.181 66.2837 100.361 66.731 100.156 67.1117L99.2499 68.7975C98.9364 69.1197 98.5183 69.2453 98.1377 69.0407Z" fill="url(#paint6_linear_7698_14182)"/>
<defs>
<filter id="filter0_d_7698_14182" x="22.3262" y="0" width="75.9463" height="75.9465" filterUnits="userSpaceOnUse" color-interpolation-filters="sRGB">
<feFlood flood-opacity="0" result="BackgroundImageFix"/>
<feColorMatrix in="SourceAlpha" type="matrix" values="0 0 0 0 0 0 0 0 0 0 0 0 0 0 0 0 0 0 127 0" result="hardAlpha"/>
<feOffset dy="11"/>
<feGaussianBlur stdDeviation="11"/>
<feColorMatrix type="matrix" values="0 0 0 0 0.397708 0 0 0 0 0.47749 0 0 0 0 0.575 0 0 0 0.27 0"/>
<feBlend mode="normal" in2="BackgroundImageFix" result="effect1_dropShadow_7698_14182"/>
<feBlend mode="normal" in="SourceGraphic" in2="effect1_dropShadow_7698_14182" result="shape"/>
</filter>
<filter id="filter1_d_7698_14182" x="8.08301" y="52.6769" width="103.062" height="107.772" filterUnits="userSpaceOnUse" color-interpolation-filters="sRGB">
<feFlood flood-opacity="0" result="BackgroundImageFix"/>
<feColorMatrix in="SourceAlpha" type="matrix" values="0 0 0 0 0 0 0 0 0 0 0 0 0 0 0 0 0 0 127 0" result="hardAlpha"/>
<feOffset dy="11"/>
<feGaussianBlur stdDeviation="11"/>
<feColorMatrix type="matrix" values="0 0 0 0 0.397708 0 0 0 0 0.47749 0 0 0 0 0.575 0 0 0 0.27 0"/>
<feBlend mode="normal" in2="BackgroundImageFix" result="effect1_dropShadow_7698_14182"/>
<feBlend mode="normal" in="SourceGraphic" in2="effect1_dropShadow_7698_14182" result="shape"/>
</filter>
<filter id="filter2_d_7698_14182" x="60.0439" y="22.3796" width="73.4932" height="77.6412" filterUnits="userSpaceOnUse" color-interpolation-filters="sRGB">
<feFlood flood-opacity="0" result="BackgroundImageFix"/>
<feColorMatrix in="SourceAlpha" type="matrix" values="0 0 0 0 0 0 0 0 0 0 0 0 0 0 0 0 0 0 127 0" result="hardAlpha"/>
<feOffset dy="11"/>
<feGaussianBlur stdDeviation="11"/>
<feColorMatrix type="matrix" values="0 0 0 0 0.397708 0 0 0 0 0.47749 0 0 0 0 0.575 0 0 0 0.27 0"/>
<feBlend mode="normal" in2="BackgroundImageFix" result="effect1_dropShadow_7698_14182"/>
<feBlend mode="normal" in="SourceGraphic" in2="effect1_dropShadow_7698_14182" result="shape"/>
</filter>
<linearGradient id="paint0_linear_7698_14182" x1="65.6467" y1="11.1445" x2="55.0586" y2="42.4218" gradientUnits="userSpaceOnUse">
<stop stop-color="#FDFEFF"/>
<stop offset="0.9964" stop-color="#ECF0F5"/>
</linearGradient>
<linearGradient id="paint1_linear_7698_14182" x1="43.5115" y1="72.5933" x2="75.4132" y2="118.069" gradientUnits="userSpaceOnUse">
<stop stop-color="#FDFEFF"/>
<stop offset="0.9964" stop-color="#ECF0F5"/>
</linearGradient>
<linearGradient id="paint2_linear_7698_14182" x1="26.4909" y1="84.3404" x2="60.457" y2="60.5128" gradientUnits="userSpaceOnUse">
<stop stop-color="#B0BACC"/>
<stop offset="1" stop-color="#969EAE"/>
</linearGradient>
<linearGradient id="paint3_linear_7698_14182" x1="58.184" y1="129.52" x2="92.15" y2="105.693" gradientUnits="userSpaceOnUse">
<stop stop-color="#B0BACC"/>
<stop offset="1" stop-color="#969EAE"/>
</linearGradient>
<linearGradient id="paint4_linear_7698_14182" x1="103.795" y1="37.1259" x2="89.8876" y2="62.9893" gradientUnits="userSpaceOnUse">
<stop stop-color="#FDFEFF"/>
<stop offset="0.9964" stop-color="#ECF0F5"/>
</linearGradient>
<linearGradient id="paint5_linear_7698_14182" x1="94.2054" y1="31.8747" x2="113.523" y2="42.2619" gradientUnits="userSpaceOnUse">
<stop stop-color="#B0BACC"/>
<stop offset="1" stop-color="#969EAE"/>
</linearGradient>
<linearGradient id="paint6_linear_7698_14182" x1="80.389" y1="57.5695" x2="99.7065" y2="67.9568" gradientUnits="userSpaceOnUse">
<stop stop-color="#B0BACC"/>
<stop offset="1" stop-color="#969EAE"/>
</linearGradient>
</defs>
</svg>
