<svg width="24" height="24" viewBox="0 0 24 24" fill="none" xmlns="http://www.w3.org/2000/svg">
<path d="M1.12594 10.3262C1.65017 10.9338 2.28712 11.4405 3.00387 11.8164C3.00265 11.8775 2.99997 11.9387 2.99997 12C2.99997 16.9706 7.0294 21 12 21C16.9705 21 21 16.9706 21 12C21 7.02946 16.9705 3.00002 12 3.00002C11.8444 3.00002 11.6897 3.00394 11.5361 3.01174C11.1394 2.31001 10.6153 1.69035 9.99313 1.18557C10.644 1.06556 11.3144 1.00002 12 1.00002C18.0751 1.00002 23 5.92489 23 12C23 18.0752 18.0751 23 12 23C5.92484 23 0.999968 18.0752 0.999968 12C0.999968 11.431 1.04263 10.8719 1.12594 10.3262Z" fill="#101828"/>
<path d="M15.7929 6.79299C16.1835 6.40251 16.8165 6.40248 17.207 6.79299C17.5975 7.1835 17.5975 7.81654 17.207 8.20705L13.9297 11.4834C13.9737 11.6484 14 11.8211 14 12C14 13.1046 13.1045 14 12 14C10.8954 14 9.99997 13.1046 9.99997 12C9.99997 10.8955 10.8954 10 12 10C12.1785 10 12.3509 10.0255 12.5156 10.0694L15.7929 6.79299Z" fill="#101828"/>
<path fill-rule="evenodd" clip-rule="evenodd" d="M5.96826 0.902344C8.86776 0.902344 11.2183 3.25285 11.2183 6.15234C11.2183 9.05184 8.86776 11.4023 5.96826 11.4023C3.06877 11.4023 0.718262 9.05184 0.718262 6.15234C0.718262 3.25285 3.06877 0.902344 5.96826 0.902344ZM5.96826 2.40234C3.89719 2.40234 2.21826 4.08128 2.21826 6.15234C2.21826 8.22341 3.89719 9.90234 5.96826 9.90234C8.03933 9.90234 9.71826 8.22341 9.71826 6.15234C9.71826 4.08128 8.03933 2.40234 5.96826 2.40234Z" fill="#101828"/>
<path d="M8.68677 6.10326C8.68652 6.37915 8.4627 6.60319 8.18677 6.60326C7.91078 6.60326 7.68701 6.37919 7.68677 6.10326V5.91869L6.65063 6.95482C6.62204 6.98342 6.57872 7.02713 6.53735 7.06224C6.49148 7.10115 6.41515 7.15824 6.30786 7.1931C6.1726 7.23701 6.02711 7.23704 5.89185 7.1931C5.7845 7.15822 5.70822 7.10115 5.66235 7.06224C5.621 7.02714 5.57865 6.98342 5.55005 6.95482L5.05591 6.46166L3.67114 7.8474C3.47588 8.04266 3.15937 8.04266 2.96411 7.8474C2.76888 7.65214 2.76886 7.33562 2.96411 7.14037L4.5061 5.59838C4.53462 5.56986 4.57716 5.52699 4.61841 5.49193C4.66418 5.45307 4.74048 5.39508 4.8479 5.3601L4.95142 5.33568C5.02101 5.32468 5.09178 5.32472 5.16138 5.33568L5.26489 5.3601L5.34009 5.38939C5.40898 5.42215 5.46004 5.46278 5.49438 5.49193C5.5357 5.52702 5.57813 5.56982 5.60669 5.59838L6.09888 6.09057C6.39522 5.79422 6.64208 5.54932 6.88794 5.30346L6.97974 5.21166H6.79517C6.51918 5.21148 6.29517 4.98769 6.29517 4.71166C6.29517 4.43563 6.51918 4.21184 6.79517 4.21166H8.18677C8.46285 4.21172 8.68677 4.43556 8.68677 4.71166V6.10326Z" fill="#101828"/>
</svg>
