<svg width="22.2979" height="24" style="display: block;" viewBox="0 0 22.2979 24" fill="none" xmlns="http://www.w3.org/2000/svg">
<path id="Vector" d="M7.35773e-06 9.85839V5.56078C-0.00319265 3.59038 1.03761 1.76558 2.73521 0.764774C4.44802 -0.244029 6.64242 -0.256829 8.36562 0.738374L12.088 2.88718C12.0736 2.88318 12.0592 2.87838 12.0456 2.87358C7.00562 1.35197 1.68561 4.20398 0.164008 9.24399C0.101608 9.44799 0.0472075 9.65359 7.35773e-06 9.85839ZM7.35773e-06 14.1416V18.4392C-0.00319265 20.4096 1.03761 22.2352 2.73521 23.2352C4.44802 24.244 6.64242 24.2568 8.36562 23.2616L12.088 21.1128C12.0736 21.1168 12.0592 21.1216 12.0456 21.1264C7.00562 22.6488 1.68641 19.7968 0.164008 14.7568C0.102408 14.552 0.0480075 14.3472 7.35773e-06 14.1416ZM15.788 18.976L19.5104 16.828C21.2193 15.8456 22.2793 14.0328 22.2977 12.0616C22.3161 10.0744 21.2305 8.16719 19.5064 7.17119L15.7848 5.02158C15.796 5.03198 15.8064 5.04158 15.8176 5.05198C19.6544 8.65679 19.8432 14.6896 16.2384 18.5264C16.092 18.6824 15.9416 18.832 15.788 18.9752V18.976Z" fill="url(#paint0_linear_0_4)"/>
<defs>
<linearGradient id="paint0_linear_0_4" x1="7.35773e-06" y1="12" x2="22.2977" y2="12" gradientUnits="userSpaceOnUse">
<stop stop-color="#0072E0"/>
<stop offset="0.21" stop-color="#0A8BC4"/>
<stop offset="0.55" stop-color="#19B09D"/>
<stop offset="0.83" stop-color="#22C784"/>
<stop offset="1" stop-color="#26D07C"/>
</linearGradient>
</defs>
</svg>
