<svg width="24" height="24" viewBox="0 0 24 24" fill="none" xmlns="http://www.w3.org/2000/svg">
<path d="M14.5734 1.23648L14.7687 1.26577L14.9103 1.30093C15.2313 1.39656 15.4836 1.57754 15.6779 1.73941C15.8978 1.92275 16.1459 2.17224 16.4122 2.43862L21.5548 7.5812C21.8211 7.84749 22.0697 8.0947 22.2531 8.3146C22.4382 8.53664 22.6486 8.8348 22.7277 9.22476C22.8324 9.74127 22.7286 10.2782 22.4396 10.7189C22.2214 11.0516 21.9156 11.2504 21.6613 11.3878C21.4094 11.5239 21.0866 11.6613 20.7404 11.8097L18.2462 12.8791C18.1895 12.9033 18.1607 12.9149 18.1408 12.924L18.1398 12.9259C18.1239 12.9411 18.1024 12.9624 18.0587 13.006L16.4972 14.5666C16.429 14.6348 16.3958 14.6692 16.3722 14.6945L16.3702 14.6955V14.6984C16.3623 14.7321 16.3521 14.7785 16.3331 14.8732L15.6007 18.5382C15.5094 18.9947 15.4283 19.4055 15.3331 19.7257C15.2409 20.0362 15.0889 20.437 14.7472 20.7404C14.3098 21.1285 13.7239 21.306 13.1447 21.2257C12.6919 21.1629 12.3429 20.9134 12.0939 20.7062C11.8371 20.4925 11.5413 20.1956 11.212 19.8664L8.37611 17.0304L3.42689 21.9806C3.03641 22.3709 2.4033 22.3709 2.01283 21.9806C1.62237 21.5902 1.6225 20.9571 2.01283 20.5666L6.96204 15.6164L4.12708 12.7804C3.79777 12.4511 3.50097 12.1554 3.28724 11.8986C3.08 11.6495 2.82951 11.3006 2.76673 10.8478C2.68661 10.2688 2.86413 9.68352 3.25208 9.24624C3.55552 8.90427 3.95712 8.75257 4.26771 8.6603C4.58796 8.56518 4.99868 8.48403 5.45521 8.39273L9.12025 7.65933C9.21462 7.64045 9.2614 7.63115 9.29505 7.62319L9.29896 7.62124C9.32428 7.59761 9.35859 7.56356 9.42689 7.49526L10.9874 5.93472C11.0311 5.89106 11.0523 5.86954 11.0675 5.85366C11.0684 5.85274 11.0687 5.85149 11.0695 5.85073C11.0785 5.83083 11.0904 5.80319 11.1144 5.74722L12.1837 3.2521C12.3321 2.90598 12.4695 2.58303 12.6056 2.3312C12.7429 2.07711 12.9414 1.77192 13.2736 1.55386C13.6591 1.301 14.1186 1.19018 14.5734 1.23648ZM14.3644 3.28237C14.2816 3.43561 14.185 3.65886 14.0216 4.04019L12.9533 6.53433C12.9165 6.62011 12.8689 6.73442 12.8058 6.84487C12.7554 6.93302 12.698 7.01734 12.6349 7.09683C12.5558 7.19646 12.4675 7.28274 12.4015 7.34878L10.841 8.9103C10.738 9.01324 10.6041 9.15204 10.4425 9.2648C10.3139 9.35453 10.1745 9.42819 10.0285 9.4855C9.84487 9.55751 9.65466 9.59268 9.51185 9.62124L5.84779 10.3537C5.35218 10.4528 5.04857 10.5145 4.83704 10.5773C4.82437 10.5811 4.81282 10.5856 4.80189 10.589C4.80917 10.5981 4.81573 10.6089 4.82435 10.6193C4.9655 10.7889 5.18374 11.009 5.54115 11.3664L12.6271 18.4523C12.9843 18.8095 13.2036 19.028 13.3732 19.1691C13.3831 19.1774 13.3937 19.1835 13.4025 19.1906C13.4059 19.1797 13.4124 19.169 13.4161 19.1564C13.479 18.9449 13.5407 18.6413 13.6398 18.1457L14.3722 14.4806C14.4007 14.3379 14.4351 14.1483 14.507 13.965C14.5643 13.8189 14.6388 13.6797 14.7286 13.5509C14.8414 13.3893 14.9802 13.2554 15.0831 13.1525L16.6437 11.5919C16.7097 11.5259 16.7969 11.4367 16.8966 11.3576C16.9759 11.2947 17.0597 11.2379 17.1476 11.1876C17.258 11.1245 17.3723 11.077 17.4581 11.0402L19.9533 9.97085C20.3344 9.80752 20.5579 9.71084 20.7111 9.62808C20.7186 9.62402 20.725 9.61906 20.7316 9.61538C20.7268 9.60945 20.7225 9.6025 20.7169 9.59585C20.6054 9.46205 20.4342 9.28871 20.1408 8.99526L14.9972 3.85269C14.7039 3.55938 14.5314 3.38805 14.3976 3.27651C14.3906 3.27069 14.3833 3.26589 14.3771 3.26089C14.3733 3.26765 14.3686 3.27463 14.3644 3.28237Z" fill="#101828"/>
</svg>
